<?xml version="1.0" encoding="UTF-8"?>
<svg id="svg2" xmlns="http://www.w3.org/2000/svg" viewBox="0 0 681.5 855.29">
  <g id="g8">
    <path id="path245" d="m256.94.04c-.51-.18-1.26.21-1.68.87-.43.67-.74,57.25-.71,128.94.05,121.87-.02,127.81-1.5,128.89-1.44,1.06-1.63.62-2.61-6.17-2.86-19.82-8.59-34.93-16.68-43.96l-4.15-4.63-4.02,3.29c-2.21,1.81-4.02,3.51-4.02,3.77s1.38,2.35,3.06,4.64c4.51,6.14,9.5,17.43,12.04,27.22,2.82,10.9,2.98,23.48.51,39.42-2.67,17.19.86,29.33,11.92,40.92l4.8,5.03h-7.82c-5.88,0-8.09.32-8.9,1.29-1.32,1.59-.34,40.94,1.06,42.67.66.81,6.15,1.08,22,1.08h21.12v11.71l-5.66,3.84c-3.22,2.18-5.56,4.37-5.41,5.07.14.68,3.26,2.48,6.94,4,3.68,1.53,6.91,2.99,7.18,3.26.27.27-2.74,1.61-6.69,2.98-9.71,3.37-9.79,4.57-.52,7.95l7.19,2.62-3.47,1.45c-13.22,5.53-13.3,5.77-3.57,9.43,7.54,2.84,7.53,2.97-.55,5.76-8.54,2.95-8.03,4.16,3.68,8.67,5.24,2.02,9.53,3.93,9.53,4.25s-1.75,1.82-3.9,3.33l-3.9,2.75v18.05l-18.84,7.64-18.84,7.64-12.13.46c-11.46.44-12.14.56-12.39,2.27-.14.99.35,2.31,1.08,2.92.74.61,1.33,1.55,1.32,2.09-.02.75-22.09,9.8-42.51,17.44-1.09.41-2.14-1.38-4.96-8.46-15.19-38.12-7.72-85.29,19.2-121.27l4.37-5.85h16.12c11.38,0,16.42-.3,17.16-1.04s1.04-6.85,1.04-22c0-24.27,1.11-22.01-10.81-22.01-6.56,0-8.17-.26-8.59-1.37-.29-.75-.53-25.9-.53-55.88s-.33-54.51-.77-54.51c-.98,0-11.7,7.08-12.08,7.99-.16.37-.74.68-1.3.69-.96,0-9.8,6.15-12.86,8.93-.8.73-2.23,1.74-3.18,2.25s-2.25,1.43-2.88,2.04c-.63.61-3.03,2.21-5.33,3.54-2.3,1.33-5.34,3.64-6.75,5.12l-2.58,2.7.56,19.11c.31,10.51.62,28.07.69,39.03l.14,19.93-8.22.25c-4.52.14-8.62.64-9.1,1.12-.51.51-1.05,9.35-1.31,21.41-.43,20.25-.46,20.58-2.67,24-4.89,7.59-7.51,12.42-10.11,18.66-2.92,7.02-8.32,26.97-9.31,34.41-.66,4.99-.44,4.84-8.67,5.85-5.09.62-13.4,2.09-17.94,3.18-4.2,1-4.29,1.57-3.97,25.41l.25,19.06,4.33.54c2.38.3,5.89.96,7.8,1.46s5.8,1.18,8.66,1.51c7.95.92,8.09,1.05,10.89,10.78,1.42,4.92,1.3,4.54,1.87,6.06.27.71,1.17,3.64,2,6.5s2.05,5.97,2.69,6.91c1.48,2.17,1.48,3.5-.01,4.94-6.12,5.92-11.5,10.64-16.69,14.67l-6.17,4.79,3.87,7.73c2.13,4.25,5.87,11.05,8.3,15.1,4.7,7.81,4.62,7.7,7.85,11.68l2.09,2.58,6.81-2.33c3.74-1.28,10.44-3.61,14.88-5.18l8.07-2.85,2.97,3.24c1.63,1.78,2.97,3.56,2.97,3.94,0,.84-12.23,8.73-22.45,14.47l-7.29,4.1-1.6-2.05c-1.63-2.08-9.1-12.83-10.68-15.38-.48-.77-1.11-1.59-1.4-1.83-1.5-1.22-16.08-27.28-19.32-34.52-16.25-36.33-20.4-78.04-11.74-117.96.98-4.53,2.14-9.89,2.58-11.92.92-4.26,5.75-18.98,6.96-21.21.45-.83.82-1.94.82-2.47,0-3.65,17.31-34.64,25.36-45.39,3.52-4.7,23.71-25.51,30.79-31.94.11-.33.22-.66.29-1,0-.03.01-.07.02-.1-.04-.72-.08-1.44-.06-2.16,0-1.48,0-2.97,0-4.45,0-1.43,0-2.86.04-4.28.02-1.07.07-2.14.12-3.2-.07-.14-.15-.27-.3-.36-.15-.09-.26-.12-.43-.07-.19.04-.38.09-.57.15-5.41,4.21-14.07,11.81-20.17,17.99-8.94,9.05-11.92,12.47-18.25,20.93-3.14,4.2-6.48,8.61-7.42,9.8s-2.92,4.31-4.4,6.93c-1.48,2.62-3.16,5.35-3.74,6.06-2.71,3.36-13.55,26.33-15.61,33.08-.77,2.54-1.8,5.58-2.28,6.78-1.72,4.23-3.36,9.47-4.12,13.16-.42,2.05-1.6,7.5-2.61,12.09-1.01,4.6-1.77,8.69-1.68,9.1s-.07,1.33-.35,2.04c-1.85,4.64-1.85,55.16,0,59.78.29.71.44,1.8.34,2.4-.16.99,2.54,13.94,5.37,25.76,5.34,22.29,21.85,54.59,39.18,76.67,9.08,11.57,33.18,34.9,39.39,38.13,1.19.62,3.73,2.37,5.63,3.89s4.05,3.03,4.76,3.37c1.37.63,2.63,1.38,8.23,4.92,4.94,3.12,26.9,13.81,28.37,13.81.68,0,1.5.27,1.82.59.99.99,17.33,6.48,22.22,7.46,1.19.24,5.67,1.26,9.96,2.28,36.25,8.56,84.43,5.7,119.99-7.11,7.11-2.56,7.34-2.66,19.49-8.5,33.63-16.17,60.55-39.69,82.53-72.09,3.93-5.8,7.15-11,7.15-11.57s.51-1.55,1.14-2.18c3.09-3.11,17.92-36.81,17.92-40.71,0-.82.32-1.68.71-1.92s1.62-4.26,2.72-8.93c1.11-4.67,2.22-9.08,2.48-9.79.59-1.64.62-1.78,2.82-14.29,3.13-17.75,2.33-67.59-1.36-84.83l-1.28-5.99,3.78-4.41c5.74-6.71,32.66-34.3,33.47-34.3.39,0,1.74,3.22,3.01,7.15,1.26,3.93,2.6,7.93,2.97,8.88,3.28,8.5,7.17,23.17,9.2,34.65.76,4.29,1.8,10.14,2.32,13,1.31,7.23,1.24,57.28-.09,64.54-.57,3.1-1.19,6.8-1.38,8.23-.69,5.12-4.15,22.56-4.81,24.26-.37.95-1.07,3.29-1.56,5.2-3.31,13.03-9.61,30.29-16.23,44.48-1.63,3.5-2.96,6.49-2.96,6.64,0,.45-12.79,22.67-15.1,26.23-5.93,9.15-14.26,20.47-18.26,24.82-.95,1.04-3.49,3.99-5.63,6.57-19.98,24.02-53.98,48.6-88.22,63.78-16.76,7.43-31.14,11.95-56.03,17.59-23.62,5.36-72.82,5.17-98.89-.37-15.24-3.24-31.72-7.64-37.12-9.93-.95-.4-3.68-1.41-6.06-2.24s-6.09-2.26-8.23-3.17-4.68-1.99-5.63-2.4c-2.16-.92-20.74-10.16-24.26-12.06-2.73-1.48-9.76-5.93-17.76-11.23-5.91-3.92-5.28-3.45-16.96-12.69-13.18-10.43-32.53-29.91-40.42-40.7-.35-.48-1.91-2.49-3.47-4.45-1.55-1.96-3.41-4.44-4.12-5.51-.71-1.07-2.49-3.56-3.95-5.53-2.42-3.26-7.16-10.82-10.95-17.44-5.66-9.9-18.51-37.69-17.43-37.69.27,0,.12-.49-.33-1.08-.76-1-1.92-4.12-4.44-11.93-2.92-9.07-5.93-22.18-7.53-32.9-.68-4.53-1.64-10.76-2.15-13.86-1.69-10.48-2.01-40.89-.56-53.71,2.04-18,3.26-26.28,4.11-27.93.43-.83.78-2.52.78-3.76,0-4.85,9.21-34.66,14.7-47.59,3.81-8.96,15.48-32.59,16.48-33.35.31-.24.84-1.02,1.18-1.73.87-1.82,2.1-3.82,6.94-11.23,27.4-42.02,68.34-75.48,116.64-95.3,2.62-1.08,5.36-2.25,6.09-2.61.73-.36,2.68-.95,4.33-1.3,1.65-.35,3.39-.94,3.87-1.29.48-.36,1.99-.92,3.37-1.25l2.51-.6-2.94-3.04c-1.62-1.67-4.23-3.84-5.8-4.82l-2.87-1.78-9.26,3.7c-8.33,3.32-27.39,12.68-34.54,16.95-10.86,6.49-16.16,9.87-21.48,13.68-28.3,20.3-54.04,46.05-71.54,71.57-2.12,3.1-4.15,5.76-4.51,5.92s-.65.63-.65,1.04-1.13,2.43-2.5,4.48c-4.13,6.14-13.83,24.61-17.77,33.83-.76,1.79-1.94,4.52-2.62,6.06-2.55,5.83-4.99,12.41-6.16,16.64-.67,2.4-2.21,7.8-3.44,12-6.82,23.41-10.34,61.72-8.28,90.27.48,6.67.9,12.91.92,13.86.05,1.61,2.33,16.48,4.38,28.59,2.72,15.98,12.62,44.83,20.92,60.92,1.61,3.12,2.1,4.93,1.53,5.63-.46.57-2.21,2.78-3.89,4.93s-3.35,4.29-3.73,4.76-3.16,4.18-6.19,8.23c-3.03,4.05-6.62,8.8-7.97,10.56-1.36,1.76-2.47,3.42-2.47,3.69s-1.36,2.43-3.03,4.81-3.03,4.62-3.03,4.98-1.3,2.61-2.89,4.99c-9.26,13.86-13.58,24.29-14.14,34.21-.45,7.99.9,12.32,4.46,14.23.95.51,1.96,1.23,2.23,1.6,1.32,1.78,11.67,2.56,21.91,1.66,14.1-1.24,43.56-8.85,58.16-15.01,4.51-1.9,18.3-6.8,19.17-6.8.54,0,1.47.59,2.08,1.32s5.77,4.85,11.49,9.15c46.06,34.69,92.55,53.64,144.43,58.87,4.53.46,8.62.99,9.1,1.19,1.62.68,45.89-.28,52.41-1.14,13-1.7,18.78-2.67,26.42-4.44,13.51-3.12,26.12-6.6,28.36-7.82.83-.45,1.92-.82,2.42-.82s5.87-1.97,11.92-4.38c17.8-7.08,33.05-15.09,48.62-25.53,3.53-2.37,7.04-4.7,7.8-5.17.76-.48,1.57-1.08,1.81-1.35s3.75-2.99,7.8-6.05c22.11-16.71,38.6-33.84,59.59-61.91,1.52-2.03,7.12-10.91,10.94-17.33,2.27-3.81,4.49-7.52,4.93-8.23.88-1.41,9.17-18.47,11.38-23.39,3.3-7.37,5.77-13.89,7.54-19.93,1.05-3.57,2.25-7.28,2.66-8.23,1.77-4.06,5.9-22.01,6.67-29.02.24-2.14.78-4.33,1.2-4.85.43-.53.72-1.89.66-3.03-.06-1.14.39-6.36,1.02-11.61s1.15-17.33,1.16-26.86c.02-14.82-.4-21.35-2.56-39.85-.17-1.43-.67-4.74-1.13-7.36s-1.05-6.13-1.32-7.8-1.46-6.9-2.64-11.63c-1.91-7.67-2-8.83-.9-10.83,2.25-4.08,8.82-18.55,13.4-29.53,2.49-5.96,4.85-11.61,5.25-12.56s1.57-3.88,2.59-6.5,2.25-5.74,2.74-6.93c3.2-7.92,14.23-43.55,16.22-52.41.53-2.38,1.75-7.52,2.69-11.43.95-3.9,2.09-9.36,2.55-12.13,6.17-37.5,6.96-46.59,6.96-79.98,0-16.14-.34-29.56-.76-29.82-.42-.26-15.72,14.44-34,32.65-30.15,30.03-43.22,42.55-51.87,49.67-1.67,1.37-3.42,2.93-3.9,3.47s-3.99,3.63-7.8,6.87c-3.81,3.24-9.46,8.19-12.56,10.99-9.5,8.6-16.7,14.53-17.64,14.53-.27,0-1.82-1.27-3.45-2.82-9.64-9.21-32.82-27.42-40.25-31.62-1.05-.6-2.79-1.57-3.86-2.17s-2.14-1.3-2.38-1.56c-2.68-2.96-39.94-20.75-43.47-20.75-.68,0-1.61-.34-2.06-.76-2.71-2.5-41.68-12.24-48.96-12.24-3.13,0-3.4.23-5.41,4.55-2.54,5.48-2.31,5.79,4.71,6.71,7.79,1.02,14.84,2.58,28.04,6.22,14.32,3.94,36.89,13.62,51.55,22.1,2.59,1.5,15.42,9.92,22.53,14.79,11.09,7.6,36.7,30.56,45.72,40.99l1.92,2.22-1.95,2.68c-1.07,1.48-2.53,3.54-3.25,4.59s-3.34,4.69-5.83,8.09c-5.83,7.96-6.11,8.36-11.97,16.58-2.72,3.81-5.38,7.22-5.91,7.57-.54.35-6.58.64-13.43.65h-12.45s.59-2.8.59-2.8c3.4-16.21,3.75-23.88,1.45-32.17-2.71-9.77-1.48-9.7-23.22-1.39-10.39,3.97-19.32,7.55-19.85,7.95-.53.4-1.17,3.22-1.41,6.27-.5,6.18-3,12.24-4.99,12.1-.71-.05-5.93-3.33-11.58-7.29-8.16-5.71-10.58-7.02-11.7-6.32-2.74,1.72-1.93,4.17,4.11,12.41,3.31,4.52,5.67,8.35,5.25,8.5s-2.93-.34-5.56-1.11c-15.34-4.46-16.68-29.6-1.95-36.46,8.05-3.75,14.44-2.27,21.39,4.97l3.49,3.63,19.22-7.75c24.54-9.89,23.45-9,19.04-15.56-14.42-21.47-30.33-31.57-52.1-33.06-26.92-1.84-54.85,17.93-63.84,45.2-2.93,8.89-3.56,33.33-.98,38.34l1.45,2.82h-11.13v-91.45l5.23-5.17c12.83-12.68,24.42-34.88,30.45-58.34,6.65-25.88,3.18-46.7-12.23-73.35C318.44,87.36,258.55.61,256.94.04Zm44.7,85.87c.41-.41,10.9,13.16,13.24,17.12,3.37,5.72,9.64,21.23,11.45,28.3,4.9,19.2-1.5,48.34-15.6,71-10.11,16.24-9.44,16.34-9.47-1.43-.09-52.89.12-114.71.39-114.98Zm-151.95,58.02c-1.55-.13-1.76,1.45-1.76,4.67,0,5.22-.08,5.12,10.78,14.4l2.55,2.18-4.5,5.65c-5.17,6.5-5.2,6.62-2.43,9.22,1.68,1.58,2.25,1.73,3.03.8.53-.63,2.79-3.37,5.02-6.09l4.06-4.95,1.39,2.35c.77,1.29,5.05,8.88,9.52,16.86,5.44,9.71,8.6,14.51,9.57,14.51.81,0,3.27-2.64,5.6-6.03l4.16-6.03,6.6,5.12c3.63,2.82,7.96,6.29,9.63,7.73,1.67,1.43,3.54,2.62,4.17,2.64,1.56.05,7.96-5.2,7.96-6.53,0-.59-4.58-4.85-10.18-9.46-5.6-4.61-10.3-8.71-10.45-9.11-.15-.4,1.52-3.42,3.71-6.71,5.36-8.05,5-8.77-4.96-10.21-4.01-.58-4.12-.67-4.12-3.61,0-2.29.42-3.13,1.73-3.47,2.08-.54,2.16-1.63.42-5.78-1.6-3.82-2.24-3.89-5.11-.47-2.43,2.89-2.72,3.87-1.38,4.7.89.55,1.22,5.85.41,6.67-.51.51-7.15-.56-7.85-1.26-.95-.95.84-5.23,2.36-5.62,1.99-.52,2.03-1.88.15-5.82-1.79-3.76-2.93-3.83-5.83-.4-2.57,3.05-2.78,4.12-.94,4.82,1.4.54,1.71,3.52.56,5.34-.66,1.04-9.65.66-9.65-.41,0-.2,1.63-2.52,3.63-5.16,3.79-5.01,3.85-6.37.38-8.49-1.55-.95-2.48-.13-8.04,7.06l-1.86,2.41-8.53-5.84c-5.36-3.67-8.25-5.53-9.8-5.66Zm28.9,26.91c.55-.55,17.34,2.38,18.81,3.28.8.49-.29,2.27-3.9,6.38-2.75,3.13-5.16,5.7-5.36,5.7-.69,0-9.98-14.93-9.55-15.36Zm420.89,2.46c.32-.11.49,0,.55.3.27,1.41-1.3,30.51-2.15,39.89-.62,6.79-2.87,22.64-4.24,29.89-.77,4.05-1.86,9.97-2.43,13.15-.57,3.18-1.32,6.07-1.68,6.42s-.64,1.7-.64,3-.79,5.04-1.76,8.3c-.97,3.27-2.34,8.08-3.06,10.7-2.71,9.9-8.77,29.74-9.93,32.49-.4.95-1,2.71-1.32,3.9s-1.08,3.34-1.69,4.76c-.61,1.43-1.99,5.13-3.07,8.23-1.08,3.1-2.3,6-2.7,6.45s-.73,1.37-.73,2.04-.53,2.44-1.17,3.94c-.64,1.5-1.99,4.68-2.99,7.06-4.93,11.75-7.33,17.35-7.52,17.57-.11.13-1.26-2.79-2.55-6.5-1.29-3.71-2.9-7.97-3.59-9.47s-1.24-3-1.24-3.33-1.17-3.12-2.6-6.21c-1.43-3.09-2.6-5.96-2.6-6.37,0-2.56-2.54-1.15-7.21,4.01-24.7,27.29-62.98,66.26-82.03,83.5-5.96,5.39-13.17,11.99-16.03,14.66-2.86,2.67-6.37,5.76-7.8,6.87-1.43,1.11-4.57,3.83-6.99,6.06-4.24,3.9-6.71,6-18.04,15.33-2.91,2.4-8.8,7.27-13.09,10.83-4.29,3.56-10.92,8.8-14.73,11.65-3.81,2.85-9.13,7.04-11.81,9.31-2.69,2.27-5.16,4.13-5.51,4.13s-2.44,1.48-4.65,3.29c-3.51,2.88-12.14,9.2-25.99,19.06-2.21,1.57-6.75,4.68-10.08,6.9s-6.26,4.27-6.5,4.56-5.31,3.71-11.26,7.6c-5.96,3.89-11.22,7.38-11.7,7.75s-5.15,3.37-10.4,6.65c-5.24,3.28-12.45,7.81-16.03,10.05-10.16,6.38-28.41,17.31-28.92,17.31-.25,0-2.52,1.23-5.05,2.73s-7.12,4.11-10.22,5.79-6.8,3.76-8.23,4.62c-1.43.86-4.74,2.65-7.36,3.96s-4.96,2.59-5.2,2.83-3.36,1.95-6.93,3.8-8.52,4.48-11,5.85c-5.61,3.09-5.04,3.14-11.28-.9-7.55-4.88-16.67-14.02-16.7-16.73,0-.34,1.85-1.68,4.11-2.98,3.67-2.11,16.97-10.22,21.47-13.09.94-.6,2.29-1.35,3.01-1.67s1.49-.81,1.73-1.08c.53-.62,7.58-5.22,9.96-6.51,4.87-2.63,52.89-34.55,63.81-42.43,2.7-1.94,5.76-4.12,6.81-4.83s5.2-3.74,9.22-6.71c4.02-2.98,7.69-5.41,8.14-5.41s.82-.31.82-.68,3.8-3.4,8.45-6.71c4.65-3.32,9.81-7.2,11.48-8.63s3.66-2.99,4.43-3.47,7.01-5.38,13.86-10.9c12.63-10.17,13.86-11.18,21.95-18.13,2.5-2.14,5.48-4.65,6.62-5.56,10.62-8.48,33.65-29.71,53.08-48.92,26.27-25.97,56.15-58.92,68.81-75.91.36-.48,3.25-4.18,6.43-8.23,3.18-4.05,6.88-8.82,8.21-10.61s3.15-4.12,4.03-5.2c.88-1.08,2.94-3.91,4.57-6.29,1.63-2.38,4.7-6.67,6.83-9.53,8.02-10.81,8.03-10.51-.46-19.88l-5.45-6.02,4.34-3.95c2.39-2.17,6.19-5.51,8.45-7.41,2.26-1.91,6.35-5.41,9.07-7.8,2.72-2.38,5.91-5.11,7.07-6.06,2.32-1.9,17.86-15.1,22.02-18.72,9.46-8.22,13.9-12.25,20.79-18.87,4.29-4.12,10.68-10.02,14.2-13.11,3.52-3.09,9.96-9.69,14.29-14.67,4.44-5.1,6.7-7.42,7.65-7.75Zm-294.32,13.34l-.26,5.1c-.14,2.81-.05,5.66.21,6.34,1.58,4.13,9.83-2.99,10.26-8.86l.19-2.58h-10.4Zm-59.94,3.14c-6.39.54-18.01,2.96-18.26,4.24-.14.73,1.55,3.75,3.76,6.71,2.21,2.97,4.38,5.39,4.84,5.39s3.57-.45,6.92-1.01c5.17-.85,6.21-1.32,6.88-3.09,1.08-2.83,1-10.94-.11-12.06-.35-.35-1.9-.38-4.03-.2Zm61.36,56.02c-.63.21-.98,2.96-.98,7.65,0,8.11-.23,7.8,6.63,8.95,8.3,1.39,9.2,1.2,12.92-2.77,7.13-7.61,7.69-8.41,6.64-9.46-1.04-1.04-23.5-4.93-25.2-4.37Zm-74.78,7.59c-2.14.31-5.53,1.71-10.89,3.97l-3.68,1.56v6.79c0,3.83.42,7.21.96,7.75.71.71,3.06.21,8.88-1.89l7.92-2.86.22-6.81c.21-6.53.15-9.03-3.41-8.51Zm21.02,25.04c.48-.29.8,5.99.8,15.59,0,8.84-.19,16.08-.42,16.08-1.49,0-4.24-8.12-4.59-13.54-.4-6.12,2.08-16.81,4.21-18.13Zm188.98,31.76c-1.09.06-1.55,1.72-2.38,6.65-1.17,6.93-.96,7.77,2.06,8.23,6.27.96,13.2.6,13.7-.72.52-1.36-8.94-12.15-12.04-13.75-.54-.28-.97-.44-1.34-.42Zm-150.06,63.13l44.76.22,44.76.23,7.59,10.4,7.59,10.4-22.44,21.93c-13.57,13.26-30.8,28.93-43.57,39.64-11.62,9.74-21.67,17.68-22.33,17.65-.66-.03-4.51-1.34-8.56-2.91l-7.36-2.86-.23-8.13-.23-8.13,6.05-3.72c8.96-5.51,8.94-6.01-.32-9.68-3.04-1.21-5.67-2.53-5.83-2.94s2.62-1.8,6.2-3.1c8.78-3.17,8.77-4.32-.03-7.86-7.81-3.15-7.79-3.27.66-6.11,8.6-2.89,8.35-3.88-2.13-8.23l-6.74-2.8,6.93-2.1c5.51-1.67,6.99-2.47,7.2-3.91.23-1.55-.93-2.26-8.23-5.04-10.54-4.03-10.6-4.08-6.83-6.42l3.09-1.91v-14.6Zm371.87,7.41c-1.76.11-3.96.41-6.79.84-12.57,1.93-12.73,2.06-16.03,12.78-3.11,10.09-9.34,26.11-14.49,37.26l-3.5,7.57h-8.27c-9.57,0-8.47,1.37-10.06-12.56-.54-4.76-1.48-11.29-2.08-14.5-1.27-6.83-1.87-6.34,8.89-7.24,4.16-.34,7.38-1.02,7.61-1.6.46-1.2-2.06-13.63-2.94-14.51-.34-.34-4.71,0-9.72.73-13,1.92-14.54,4.07-12.1,16.85,1.52,7.94,3.31,20.7,4.31,30.63.97,9.68,2.56,14.65,5.11,16.01.78.42,5.78.88,11.11,1.03,9.27.25,9.78.17,11.95-1.87,3.84-3.61,18.1-34.7,22.08-48.13l1.05-3.53,9.21-.95c5.06-.53,9.34-.83,9.5-.67,1,1,5.93,38.31,5.16,39.08-.22.22-4.74.64-10.06.94l-9.67.55.51,7.02c.71,9.67.17,9.07,8.34,9.4,3.95.16,8.82.37,10.81.47,4.25.21,6.77-2.23,7.76-7.49,1.5-8-5.07-54.16-8.84-62.13-2.3-4.86-3.56-6.31-8.83-5.99Zm-176.13,32.46c2.69,0,4.17,55.75,1.9,71.47-2.02,14.04-2.65,17.46-4.33,23.82-.95,3.57-2.17,8.25-2.73,10.4s-1.32,4.68-1.71,5.63-1.38,3.68-2.2,6.06c-3.87,11.18-13.25,29.92-21.01,41.96-1.67,2.59-3.37,5.12-3.78,5.63-.41.51-3.36,4.24-6.54,8.29-8.14,10.34-17.31,19.69-28.6,29.13-5.33,4.46-9.95,8.12-10.27,8.12s-1.99,1.1-3.73,2.45c-9.83,7.62-33.05,19.17-48.21,23.97-5.72,1.81-11.18,3.59-12.13,3.94-1.98.73-12.47,2.89-23.6,4.84-8.95,1.57-40.16,2.31-49.18,1.16-3.34-.43-9.38-1.39-13.43-2.14-4.05-.75-10.08-1.77-13.4-2.27-3.32-.5-6.76-1.29-7.63-1.76-.88-.47-5.76-2.35-10.85-4.18-5.09-1.83-12.25-4.7-15.91-6.39-3.66-1.69-8.34-3.52-10.4-4.07-3.51-.94-17.99-9.32-18.02-10.44,0-.28.97-.96,2.18-1.51,1.88-.86,2.7-.68,5.74,1.24,3.52,2.22,21.79,11.61,22.6,11.61.23,0,1.4-1.46,2.61-3.25s3.7-4.81,5.56-6.71,5.08-5.72,7.16-8.49c4.12-5.46,4.91-5.64,11.74-2.74,4.51,1.91,18.09,5.62,20.55,5.61,2.76-.01,3.73,1.5,4.47,6.92,2.24,16.52,3.52,22.55,5,23.48.65.41,10.23.75,21.29.76,23.22.02,21.28.84,22.76-9.63,1.25-8.86,3.56-19.17,4.57-20.46.47-.6,1.95-1.08,3.3-1.08s3.35-.36,4.44-.79c1.09-.43,4.33-1.45,7.19-2.26,2.86-.81,7.49-2.28,10.3-3.27l5.1-1.8,2.46,2.97c7.6,9.19,11.92,14.32,14.62,17.39l3.03,3.44,5.63-2.62c9.09-4.24,31.19-17.41,31.19-18.59,0-.93-2.92-9.82-3.45-10.5-.37-.48-1.56-3.71-2.64-7.18-1.08-3.47-2.3-6.51-2.71-6.76-2.36-1.46-.57-5.43,4.37-9.73,2.81-2.44,8.15-7.4,11.86-11.03,5.05-4.93,7.21-6.49,8.54-6.18.98.23,7.36,2.35,14.17,4.73l12.4,4.32,3.24-4.44c4.85-6.64,8.61-12.97,13.7-23.04l4.58-9.06-1.83-1.95c-1.01-1.07-3.99-3.62-6.63-5.67-2.64-2.04-6.71-5.46-9.05-7.58-4.81-4.37-4.76-3.78-1.34-15.63,2.97-10.29,4.16-15.3,4.17-17.56.03-4.94,1.66-6.14,9.96-7.31,4.28-.61,10.52-1.62,13.85-2.24l6.06-1.14.59-3.85c.77-5.05.86-24.79.16-33.1l-.55-6.56-3.76-.95c-2.07-.52-4.06-.86-4.43-.75s-3.07-.33-6.01-.96l-5.34-1.16,8.36-7.91c4.6-4.35,9.47-8.98,10.82-10.29s2.77-2.38,3.15-2.38Zm121.66,64.29c-8.97-.26-9.44,3.17-10.77,16.49-.53,5.37-1.85,15.07-2.92,21.57-2.14,12.96-2.05,16.31.54,18.67.98.9,16.25,5.89,35.65,11.66,18.66,5.55,34.74,10.13,35.73,10.18,5.82.28,9.26-11.14,12.93-42.79,2.18-18.88,1.31-26.39-3.27-28.06-2-.73-21.46-2.97-21.86-2.52-.13.14-.37,3.76-.54,8.05l-.31,7.8,6.93,1.08c3.81.6,8.25,1.3,9.86,1.58l2.93.49-.59,6.65c-.65,7.32-3.91,29.68-4.47,30.57-.26.42-65.76-15.34-66.84-16.08-.16-.11,2.36-19.59,3.71-28.69l.39-2.66,8.7,1.25c4.78.69,8.88,1.06,9.1.84s.65-3.53.94-7.34l.53-6.93-4.23-.55c-5.22-.68-9.16-1.17-12.15-1.26Zm-195.35.99c.13.32-.02,1.28-.32,3.16-.88,5.4-3.8,17.4-4.74,19.49-.43.95-1.42,3.78-2.21,6.28-.79,2.5-1.69,4.51-2.01,4.47-.56-.08-17.91-7.2-19.64-8.07-.48-.24.47-1.52,2.1-2.86,2.39-1.95,17.76-15.09,25.51-21.81.78-.68,1.18-.99,1.31-.67Zm-120.28,1.97c.49.07,1.12.25,1.91.53l2.67.93-2.53,2.03c-3.27,2.62-3.83,2.56-3.83-.42,0-2.46.3-3.27,1.78-3.06Zm-12.01.62c.62.23.7,1.75.7,6.42v6.9l-11.48,8.67c-6.31,4.77-22.2,16.06-35.3,25.09-13.1,9.03-24.32,16.72-24.93,17.07-1.23.72-16.32-13.92-22.6-21.92l-3.67-4.68,19.71-7.66c10.84-4.22,20.38-7.88,21.21-8.14,1.22-.39,1.56.14,1.78,2.74.15,1.77.66,3.35,1.14,3.5s4.57-3.01,9.1-7.03l8.23-7.3,16.89-6.47c9.29-3.56,17.58-6.74,18.41-7.07.34-.14.61-.2.81-.13Zm89.12,30.82c1.5-.34,4.3.66,14.13,4.33,7.51,2.8,13.89,5.32,14.17,5.61,1.51,1.51-10.8,16.13-19.78,23.48-12.58,10.3-33.48,20.73-49.3,24.61-6.11,1.5-9.66,2.16-23.39,4.35-3.1.49-6.61,1.06-7.8,1.26-4.79.81-8.21-.56-8.49-3.39-.27-2.75,1.05-4.04,10.75-10.57,1.96-1.32,6.28-4.22,9.59-6.46,3.32-2.23,6.54-4.67,7.16-5.41s1.62-1.36,2.21-1.36,1.52-.52,2.05-1.16c.53-.64,4.18-3.39,8.12-6.1,11.05-7.62,18.21-12.66,20.58-14.47,4.33-3.29,8.66-6.47,11.71-8.59,3.2-2.22,3.96-2.8,6.99-5.4.42-.36.77-.62,1.27-.73Zm215.34,44.25c-.82,0-4.31,12.45-3.57,12.72.48.18,17.44,7.29,37.69,15.8,20.25,8.51,37.48,15.52,38.28,15.57,1.09.07,2.07-1.76,3.85-7.25,1.31-4.04,2.22-7.48,2-7.66-.39-.33-77.76-29.18-78.25-29.18Zm-8.47,26.46c-1.17-.48-2.5,1.62-7.1,11.19-4.75,9.87-12.08,22.94-19.38,34.54-1.53,2.44-1.53,2.46,1.06,4.54,1.43,1.15,2.8,2.1,3.05,2.1s2.98-4.08,6.06-9.08c3.09-5,5.81-9.07,6.05-9.05s15.05,8.93,32.92,19.8c17.87,10.87,32.76,19.61,33.09,19.43.82-.45,7.89-13.33,7.5-13.66-.17-.14-15.32-8.57-33.66-18.72-18.34-10.15-33.46-18.53-33.58-18.61-.13-.09,1.72-4.21,4.1-9.17,4.72-9.82,5.14-11.62,2.84-12.28-.83-.24-2.16-.7-2.95-1.03Zm-522.63,15.99c1.54,0,5.01,6.26,4.12,7.43-.41.54-3.06,4.05-5.9,7.8-8.53,11.27-11.98,18.68-12.08,25.92-.09,6.49.51,7.65,5.75,11.05,5.31,3.44,15.08.55,31.71-9.37,4.68-2.79,4.87-2.71,11.31,4.78,6.13,7.12,6.23,7.48,2.48,8.59-1.55.46-9.01,3.18-16.58,6.06-7.57,2.88-14.97,5.5-16.43,5.82-1.47.32-3.26.9-3.99,1.28-3.14,1.64-13.8,4.43-22.99,6.01-4.63.8-12.84.94-15.46.26-8.08-2.08-6.16-10.88,7.02-32.09,2.74-4.41,5.56-8.7,6.28-9.54s1.85-2.6,2.53-3.9,1.55-2.37,1.95-2.37.72-.46.72-1.03.73-1.83,1.63-2.82c.9-.98,3.74-4.91,6.33-8.72,8.17-12.07,10.54-15.16,11.62-15.16Zm11.35,19.39c.59-.24,1.38.43,3.14,2.42,5.61,6.33,5.71,7.13,1.37,11.06-2.1,1.9-4.3,3.47-4.9,3.49s-1.08.38-1.08.8-1.92,1.59-4.28,2.6c-4.78,2.06-5.2,2.12-6.86,1.07-2.03-1.29.09-5.67,6.37-13.16,2.38-2.84,3.13-3.85,5.69-7.73.18-.27.35-.45.55-.53Zm478.53,26.78c-2.86-.75-6.73,2.21-13.56,10.33-3.71,4.42-10.47,12.05-15.03,16.96-8.85,9.55-10.71,12.26-10.28,14.98.15.95,11.75,14.18,25.79,29.41,28.61,31.04,27.3,30.1,34.76,25.14,4.17-2.77,21.1-20.88,31.42-33.61,6.65-8.21,8.91-12.74,8.02-16.09-.53-1.96-58.08-46.33-61.13-47.13Zm-5.08,12.11c.33.1,12.68,10.1,27.46,22.22l26.86,22.03-3.49,4.39c-1.92,2.41-7.82,9.17-13.1,15-5.28,5.84-9.83,10.61-10.11,10.61s-11.68-11.21-25.34-24.91l-24.84-24.91,8.19-8.61c4.5-4.74,9.45-10.28,10.98-12.32s3.06-3.62,3.38-3.52Zm-53.28,45.68c-3.17-.02-4.28.61-16.62,9.45-5.72,4.09-14.22,9.73-18.9,12.52-6.55,3.9-8.38,5.4-7.96,6.49.48,1.27,35.46,63.14,39.63,70.11l1.7,2.85,4.03-2.34c16.79-9.76,41.56-26.97,45.88-31.89,3.85-4.38,4.31-6.94,1.86-10.25-5.43-7.34-20.25-25.08-21.28-25.48-.65-.25-3.78.76-6.95,2.25-3.18,1.49-5.89,2.59-6.03,2.44s1.26-2.18,3.11-4.52c5.18-6.57,5.27-6.22-4.96-18.93-10.34-12.84-10.16-12.67-13.49-12.69Zm-385.78,2.28c-.31.04-.56.19-.8.43-2.12,2.2-43.97,64.41-44.07,65.51-.05.6,2.83,3.41,6.4,6.24s6.86,5.04,7.3,4.92c.71-.2,41.77-66.34,42.57-68.57.17-.48-2.25-2.76-5.38-5.07-3.57-2.64-5.09-3.58-6.03-3.47Zm380.72,8.17l7,9.38c3.85,5.16,7,9.7,7,10.09,0,2.48-7.75,12.15-12.06,15.03-2.66,1.78-6.22,4.07-7.91,5.09l-3.07,1.85-7.59-12.23c-6.12-9.85-7.37-12.43-6.46-13.25.62-.56,6.07-4.39,12.11-8.49l10.98-7.47Zm-347.14,14.66c-1.17,0-37.61,71.72-36.97,72.75,1.3,2.1,25.98,15.28,42.46,22.67,6.19,2.78,11.72,5.06,12.28,5.06.92,0,3.47-5.89,2.75-6.38-.17-.12-4.2-1.9-8.97-3.96-8.82-3.81-30.76-14.56-30.76-15.07,0-.36,11.96-26.46,12.6-27.49.27-.43,4.46,1.22,9.32,3.67,4.86,2.45,12.15,5.94,16.2,7.75l7.36,3.31,1.04-2.35c1.74-3.93,1.36-4.45-5.53-7.59-12.25-5.58-24.53-12-24.53-12.82,0-1.43,11.54-26.61,12.06-26.32,3.12,1.77,26.42,12.82,28.85,13.68,3.77,1.33,3.81,1.31,4.56-2.69l.57-3.06-5.04-2.06c-6.7-2.73-24.4-11.54-31.62-15.74-3.18-1.85-6.17-3.36-6.65-3.36Zm288.03,14.88c-2.76-.42-6.95.73-13.76,3.64-4.88,2.08-14.29,5.66-20.9,7.95-11.97,4.14-16.99,7.03-16.99,9.78,0,.79,4.62,17.62,10.26,37.39,9.1,31.89,10.5,36.07,12.34,37.02,4.74,2.44,14.98-.25,42.53-11.19,16.93-6.72,22.36-10.24,22.36-14.5,0-2.84-31.38-67.58-33.52-69.16-.65-.48-1.41-.79-2.33-.93Zm84.32,3.53l8.67,11.54,8.67,11.54-7.13,5.11c-3.92,2.81-10.15,7.13-13.84,9.6-3.69,2.47-7.25,4.7-7.9,4.95-.8.31-3.68-3.59-8.81-11.94-4.2-6.82-8.15-13.22-8.79-14.22-1.1-1.72-.72-2.11,6.91-7.15,5.78-3.81,10.09-5.91,15.15-7.38l7.08-2.06Zm-91.44,5.99c.57.84,27.3,61.98,27.53,62.99.31,1.33-5.57,3.98-22.27,10.05-13.45,4.89-15.01,5.27-15.56,3.79-.54-1.43-21.23-65.19-21.23-65.42,0-.09,1.46-.63,3.25-1.2s8.84-3.16,15.67-5.77c6.83-2.61,12.51-4.61,12.62-4.45Zm-218.25,4.35c-.15.15-3.29,11.96-6.97,26.26s-8.36,32.23-10.38,39.85-3.42,14.14-3.1,14.48c1.04,1.12,27.2,8.28,40,10.96q15.42,3.22,16.05.62c1.17-4.64.79-4.86-13.92-7.86-15.75-3.21-24.69-5.57-24.69-6.51,0-.35,3.51-16.78,7.79-36.49,4.29-19.71,7.8-36.29,7.8-36.84,0-.89-11.92-5.13-12.58-4.47Zm147.54,9.98c-2.59-.13-6.48.27-12.8,1.15-6.43.9-17.5,2.02-24.58,2.5-7.09.47-13.07,1.04-13.29,1.26-.43.43,3.13,81.74,3.65,83.4.27.86,14.85.71,15.87-.16.15-.13-1.17-17.27-2.94-38.09-3.58-42.06-3.77-39.38,2.8-39.4,1.98,0,8.35-.63,14.15-1.38s10.68-1.24,10.83-1.08c.42.42,5.52,28.83,5.23,29.13-.14.14-5.46.88-11.84,1.64-6.37.76-12.11,1.87-12.74,2.45-.94.86.05,2.5,5.38,8.91,6.55,7.87,26.72,29.9,29.41,32.11,1.48,1.22,4.81,1,13.87-.91l4.19-.88-9.82-9.21c-11.13-10.44-24.91-24.51-24.95-25.49-.02-.36,1.12-.65,2.53-.65,3.61,0,11.3-1.72,14.11-3.16,5.25-2.68,5.28-3.37,1.18-21.75-2.25-10.11-4.31-17.32-5.21-18.32-1.15-1.27-2.45-1.94-5.04-2.07Z"/>
  </g>
</svg>