<svg width="647" height="776" viewBox="0 0 647 776" fill="none" xmlns="http://www.w3.org/2000/svg">
<path d="M271.505 0.10009C270.971 -0.0871526 270.174 0.324808 269.733 1.01555C269.283 1.72033 268.955 61.5105 268.984 137.269C269.033 266.051 268.96 272.323 267.394 273.468C265.869 274.584 265.673 274.122 264.637 266.944C261.613 245.998 255.556 230.038 247.011 220.497L242.625 215.599L238.376 219.081C236.04 220.995 234.128 222.788 234.128 223.064C234.128 223.341 235.582 225.547 237.359 227.967C242.123 234.457 247.398 246.386 250.077 256.727C253.06 268.241 253.23 281.542 250.612 298.386C247.788 316.549 251.525 329.376 263.21 341.627L268.279 346.941H260.013C253.797 346.941 251.465 347.28 250.612 348.309C249.216 349.991 250.251 391.568 251.735 393.4C252.43 394.259 258.23 394.545 274.979 394.545H297.295V400.731V406.918L291.31 410.977C287.909 413.283 285.44 415.595 285.589 416.333C285.733 417.048 289.034 418.95 292.925 420.562C296.816 422.174 300.232 423.724 300.515 424.008C300.798 424.291 297.617 425.708 293.447 427.156C283.188 430.72 283.104 431.989 292.898 435.562L300.499 438.333L296.837 439.867C282.871 445.715 282.778 445.959 293.068 449.832C301.036 452.83 301.022 452.973 292.489 455.918C283.461 459.034 284.005 460.314 296.379 465.076C301.918 467.208 306.449 469.228 306.449 469.564C306.449 469.901 304.596 471.482 302.33 473.079L298.21 475.983V485.52V495.057L278.299 503.13L258.388 511.201L245.571 511.691C233.457 512.154 232.74 512.286 232.481 514.093C232.331 515.144 232.846 516.532 233.626 517.179C234.405 517.826 235.033 518.821 235.02 519.389C235.003 520.177 211.679 529.743 190.1 537.812C188.949 538.243 187.844 536.357 184.861 528.869C168.816 488.583 176.706 438.747 205.148 400.724L209.77 394.545H226.801C238.827 394.545 244.156 394.223 244.931 393.447C245.725 392.653 246.029 386.205 246.029 370.199C246.029 344.554 247.201 346.941 234.609 346.941C227.681 346.941 225.981 346.67 225.53 345.493C225.224 344.696 224.974 318.125 224.974 286.446C224.974 253.595 224.624 228.847 224.162 228.847C223.126 228.847 211.8 236.333 211.394 237.286C211.226 237.68 210.608 238.005 210.02 238.01C209.002 238.019 199.666 244.507 196.435 247.451C195.592 248.219 194.08 249.289 193.074 249.827C192.068 250.366 190.697 251.337 190.029 251.987C189.36 252.637 186.826 254.321 184.398 255.731C181.971 257.141 178.759 259.578 177.261 261.145L174.538 263.995L175.124 284.184C175.447 295.287 175.775 313.847 175.853 325.428L175.997 346.483L167.309 346.75C162.53 346.896 158.204 347.43 157.696 347.937C157.154 348.478 156.583 357.82 156.314 370.557C155.863 391.957 155.825 392.306 153.496 395.918C148.327 403.936 145.563 409.04 142.817 415.638C139.727 423.061 134.023 444.138 132.979 451.993C132.278 457.268 132.517 457.108 123.815 458.171C118.435 458.828 109.654 460.383 104.857 461.529C100.423 462.588 100.328 463.192 100.663 488.379L100.929 508.519L105.506 509.093C108.024 509.409 111.731 510.103 113.745 510.635C115.759 511.166 119.879 511.886 122.9 512.235C131.301 513.204 131.446 513.348 134.409 523.624C135.908 528.821 135.785 528.417 136.387 530.033C136.668 530.788 137.621 533.878 138.504 536.899C139.387 539.92 140.665 543.204 141.345 544.197C142.913 546.487 142.909 547.894 141.331 549.42C134.86 555.674 129.181 560.668 123.699 564.924L117.177 569.989L121.271 578.16C123.523 582.655 127.471 589.835 130.045 594.115C135.008 602.368 134.927 602.248 138.343 606.452L140.557 609.179L147.75 606.717C151.705 605.363 158.779 602.901 163.472 601.245L172.004 598.234L175.144 601.653C176.871 603.534 178.285 605.41 178.285 605.821C178.285 606.711 165.364 615.041 154.564 621.114L146.863 625.444L145.17 623.282C143.45 621.087 135.558 609.722 133.885 607.031C133.382 606.221 132.717 605.352 132.409 605.1C130.824 603.807 115.422 576.279 111.998 568.623C94.8316 530.231 90.4457 486.158 99.5951 443.979C100.633 439.196 101.859 433.529 102.322 431.387C103.293 426.889 108.401 411.326 109.678 408.976C110.152 408.101 110.541 406.927 110.541 406.365C110.541 402.504 128.837 369.763 137.342 358.404C141.061 353.436 162.395 331.444 169.873 324.653C169.993 324.306 170.105 323.955 170.18 323.595C170.187 323.558 170.193 323.521 170.2 323.484C170.161 322.722 170.119 321.961 170.135 321.197C170.136 319.63 170.138 318.062 170.143 316.495C170.148 314.986 170.152 313.478 170.18 311.969C170.205 310.841 170.254 309.712 170.305 308.585C170.227 308.436 170.143 308.297 169.989 308.206C169.826 308.113 169.719 308.083 169.53 308.134C169.328 308.176 169.128 308.224 168.932 308.288C163.213 312.741 154.063 320.767 147.618 327.293C138.174 336.854 135.017 340.473 128.337 349.405C125.021 353.839 121.494 358.499 120.499 359.757C119.504 361.016 117.41 364.312 115.846 367.081C114.283 369.85 112.506 372.734 111.897 373.489C109.031 377.044 97.5772 401.315 95.4024 408.441C94.5847 411.12 93.4993 414.342 92.9886 415.6C91.1743 420.072 89.4402 425.611 88.6384 429.504C88.1911 431.675 86.9493 437.425 85.8777 442.281C84.8061 447.137 84.0099 451.462 84.1076 451.893C84.2052 452.324 84.0372 453.294 83.7357 454.05C81.7798 458.947 81.7778 512.331 83.732 517.216C84.0342 517.971 84.1974 519.114 84.0932 519.755C83.9224 520.806 86.7753 534.487 89.7701 546.976C95.4169 570.524 112.859 604.657 131.166 627.987C140.761 640.215 166.228 664.864 172.793 668.278C174.051 668.932 176.729 670.78 178.743 672.386C180.757 673.993 183.023 675.593 183.778 675.943C185.228 676.613 186.554 677.405 192.475 681.142C197.699 684.44 220.901 695.731 222.453 695.731C223.168 695.731 224.035 696.013 224.38 696.358C225.429 697.407 242.693 703.205 247.86 704.243C249.119 704.496 253.856 705.579 258.388 706.648C296.698 715.688 347.6 712.671 385.179 699.131C392.697 696.423 392.938 696.317 405.771 690.145C441.306 673.054 469.75 648.206 492.974 613.969C497.128 607.845 500.527 602.344 500.527 601.744C500.527 601.144 501.068 600.11 501.728 599.445C504.991 596.159 520.667 560.553 520.667 556.427C520.667 555.564 521.005 554.65 521.418 554.394C521.831 554.139 523.125 549.892 524.293 544.957C525.461 540.022 526.639 535.365 526.911 534.61C527.531 532.881 527.561 532.733 529.895 519.505C533.203 500.751 532.361 448.084 528.463 429.869L527.107 423.541L531.096 418.883C537.163 411.798 565.612 382.644 566.459 382.644C566.869 382.644 568.298 386.042 569.635 390.196C570.971 394.35 572.382 398.573 572.771 399.58C576.235 408.557 580.349 424.059 582.489 436.198C583.287 440.73 584.389 446.909 584.937 449.93C586.32 457.566 586.247 510.461 584.842 518.132C584.242 521.404 583.585 525.318 583.381 526.829C582.65 532.244 578.993 550.667 578.294 552.461C577.902 553.468 577.162 555.94 576.649 557.954C573.147 571.722 566.494 589.959 559.502 604.954C557.779 608.649 556.37 611.807 556.37 611.972C556.37 612.447 542.855 635.928 540.417 639.687C534.149 649.355 525.351 661.314 521.124 665.914C520.117 667.01 517.44 670.135 515.174 672.859C494.056 698.242 458.132 724.214 421.954 740.256C404.24 748.11 389.049 752.879 362.75 758.842C337.794 764.501 285.807 764.307 258.25 758.452C242.148 755.031 224.733 750.374 219.023 747.964C218.016 747.539 215.132 746.473 212.615 745.596C210.097 744.72 206.184 743.212 203.918 742.246C201.652 741.279 198.975 740.138 197.968 739.71C195.685 738.741 176.054 728.979 172.335 726.964C169.447 725.399 162.021 720.702 153.568 715.093C147.321 710.948 147.991 711.449 135.641 701.681C121.711 690.663 101.271 670.081 92.9258 658.669C92.5518 658.157 90.9039 656.043 89.264 653.968C87.624 651.894 85.6637 649.271 84.9084 648.141C84.1532 647.011 82.2736 644.382 80.7316 642.3C78.1767 638.85 73.1646 630.865 69.1614 623.867C63.1797 613.411 49.5978 584.045 50.7432 584.045C51.028 584.045 50.8694 583.53 50.391 582.9C49.5877 581.844 48.3598 578.543 45.6992 570.29C42.6096 560.705 39.4369 546.854 37.7373 535.525C37.0196 530.742 35.9992 524.151 35.4701 520.878C33.6795 509.803 33.3472 477.666 34.8836 464.12C37.0406 445.102 38.331 436.349 39.2302 434.609C39.6821 433.734 40.0509 431.948 40.0509 430.639C40.0509 425.516 49.7847 394.015 55.5887 380.355C59.6122 370.885 71.9486 345.917 73.0021 345.11C73.3307 344.858 73.893 344.034 74.2537 343.279C75.1713 341.357 76.4763 339.245 81.5863 331.409C110.539 287.006 153.804 251.654 204.833 230.704C207.603 229.568 210.5 228.326 211.272 227.944C212.044 227.562 214.104 226.943 215.849 226.569C217.595 226.195 219.435 225.581 219.939 225.205C220.442 224.829 222.045 224.236 223.502 223.887L226.15 223.254L223.044 220.039C221.336 218.271 218.577 215.979 216.911 214.947L213.883 213.069L204.095 216.976C195.295 220.489 175.15 230.376 167.596 234.89C156.116 241.751 150.519 245.316 144.903 249.344C114.995 270.797 87.7966 298.006 69.3063 324.97C67.062 328.243 64.9171 331.058 64.5395 331.226C64.1618 331.394 63.8529 331.888 63.8529 332.324C63.8529 332.76 62.6615 334.888 61.2066 337.053C56.8468 343.541 46.5972 363.062 42.4343 372.803C41.6274 374.691 40.3807 377.574 39.6647 379.211C36.9714 385.367 34.3956 392.326 33.1564 396.792C32.4515 399.333 30.8169 405.038 29.5249 409.471C22.315 434.208 18.6022 474.685 20.7744 504.858C21.2819 511.906 21.7215 518.498 21.7507 519.505C21.7999 521.204 24.2091 536.917 26.3834 549.715C29.2526 566.602 39.7199 597.081 48.4903 614.085C50.1935 617.387 50.7131 619.298 50.1085 620.035C49.6186 620.633 47.7708 622.975 46.0014 625.24C44.232 627.506 42.4582 629.772 42.0606 630.275C41.6631 630.779 38.7198 634.692 35.5183 638.972C32.3168 643.252 28.5256 648.274 27.0933 650.133C25.6609 651.992 24.4881 653.746 24.4881 654.033C24.4881 654.319 23.0463 656.605 21.284 659.112C19.5218 661.619 18.0799 663.99 18.0799 664.38C18.0799 664.769 16.7062 667.142 15.0278 669.653C5.23855 684.296 0.682596 695.322 0.0890128 705.801C-0.389397 714.246 1.04338 718.816 4.80577 720.838C5.81277 721.379 6.87161 722.137 7.15878 722.524C8.55434 724.404 19.4888 725.233 30.3152 724.28C45.2133 722.967 76.3398 714.932 91.7743 708.415C96.5403 706.402 111.114 701.231 112.031 701.227C112.598 701.224 113.587 701.854 114.226 702.625C114.866 703.396 120.328 707.748 126.365 712.295C175.035 748.955 224.16 768.976 278.986 774.499C283.769 774.981 288.094 775.548 288.598 775.758C290.311 776.474 337.086 775.458 343.983 774.555C357.717 772.756 363.825 771.73 371.905 769.863C386.185 766.563 399.503 762.889 401.873 761.595C402.748 761.118 403.898 760.728 404.43 760.728C404.963 760.728 410.633 758.645 417.03 756.099C435.838 748.615 451.957 740.151 468.407 729.12C472.14 726.617 475.848 724.156 476.646 723.652C477.444 723.149 478.304 722.508 478.556 722.227C478.807 721.947 482.515 719.071 486.795 715.837C510.162 698.178 527.584 680.076 549.765 650.415C551.371 648.267 557.293 638.89 561.328 632.106C563.723 628.078 566.067 624.165 566.536 623.409C567.461 621.919 576.231 603.895 578.562 598.692C582.052 590.903 584.659 584.011 586.528 577.637C587.635 573.86 588.9 569.947 589.34 568.94C591.214 564.654 595.575 545.686 596.392 538.272C596.642 536.006 597.214 533.698 597.664 533.142C598.114 532.586 598.427 531.144 598.359 529.938C598.291 528.731 598.776 523.212 599.437 517.674C600.098 512.135 600.651 499.365 600.664 489.295C600.684 473.63 600.241 466.731 597.957 447.184C597.78 445.673 597.245 442.171 596.768 439.402C596.291 436.633 595.661 432.925 595.37 431.163C595.078 429.401 593.823 423.873 592.58 418.878C590.564 410.768 590.462 409.543 591.627 407.434C594.008 403.124 600.947 387.835 605.788 376.236C608.415 369.942 610.912 363.968 611.338 362.961C611.765 361.954 612.998 358.865 614.079 356.095C615.16 353.326 616.461 350.031 616.97 348.772C620.355 340.405 632.007 302.75 634.108 293.387C634.673 290.869 635.953 285.437 636.953 281.314C637.953 277.191 639.165 271.424 639.646 268.498C646.165 228.869 647 219.271 647 183.989C647 166.929 646.64 152.749 646.201 152.477C645.762 152.206 629.592 167.734 610.269 186.982C578.41 218.719 564.603 231.942 555.454 239.473C553.692 240.923 551.838 242.573 551.335 243.14C550.831 243.707 547.123 246.972 543.095 250.398C539.067 253.823 533.094 259.051 529.821 262.014C519.782 271.105 512.179 277.366 511.181 277.366C510.893 277.366 509.255 276.027 507.541 274.391C497.352 264.663 472.861 245.421 465.013 240.977C463.902 240.347 462.066 239.317 460.933 238.688C459.8 238.059 458.667 237.316 458.416 237.038C455.583 233.906 416.214 215.115 412.485 215.115C411.766 215.115 410.786 214.754 410.307 214.314C407.441 211.675 366.265 201.383 358.575 201.383C355.263 201.383 354.978 201.623 352.862 206.189C350.181 211.976 350.417 212.311 357.837 213.28C366.073 214.356 373.521 216.007 387.467 219.848C402.598 224.015 426.453 234.241 441.937 243.197C444.672 244.779 458.23 253.684 465.739 258.83C477.459 266.861 504.522 291.119 514.055 302.139L516.082 304.483L514.026 307.317C512.895 308.876 511.352 311.059 510.597 312.17C509.841 313.28 507.07 317.129 504.439 320.723C498.283 329.132 497.978 329.555 491.787 338.244C488.917 342.272 486.105 345.87 485.538 346.24C484.971 346.61 478.584 346.919 471.346 346.927L458.187 346.941L458.811 343.966C462.406 326.834 462.771 318.734 460.341 309.972C457.477 299.645 458.777 299.722 435.806 308.504C424.828 312.701 415.388 316.481 414.828 316.901C414.267 317.321 413.595 320.304 413.336 323.531C412.812 330.058 410.171 336.465 408.065 336.317C407.31 336.263 401.801 332.794 395.825 328.608C387.204 322.572 384.649 321.192 383.466 321.934C380.566 323.751 381.422 326.336 387.804 335.052C391.3 339.828 393.796 343.871 393.35 344.035C392.904 344.2 390.259 343.672 387.473 342.862C371.266 338.151 369.848 311.583 385.417 304.335C393.928 300.372 400.679 301.939 408.024 309.584L411.709 313.419L432.016 305.234C457.943 294.783 456.791 295.725 452.134 288.79C436.901 266.101 420.09 255.435 397.08 253.861C368.636 251.915 339.124 272.811 329.62 301.626C326.521 311.021 325.858 336.849 328.58 342.135L330.112 345.11H324.231H318.35V296.791V248.472L323.881 243.008C337.442 229.609 349.684 206.153 356.056 181.359C363.084 154.012 359.416 132.012 343.132 103.847C336.494 92.3665 273.205 0.696473 271.505 0.10009ZM318.74 90.8342C319.175 90.3989 330.261 104.735 332.726 108.922C336.285 114.966 342.914 131.353 344.822 138.826C350.001 159.116 343.233 189.907 328.333 213.847C317.654 231.005 318.355 231.111 318.324 212.336C318.23 156.452 318.455 91.1197 318.74 90.8342ZM158.177 152.143C156.538 152.002 156.314 153.68 156.314 157.073C156.314 162.592 156.234 162.484 167.706 172.285L170.4 174.588L165.646 180.562C160.184 187.425 160.152 187.552 163.082 190.304C164.859 191.974 165.462 192.133 166.284 191.15C166.841 190.484 169.229 187.586 171.587 184.71L175.875 179.482L177.346 181.963C178.155 183.329 182.681 191.347 187.404 199.781C193.151 210.043 196.496 215.115 197.517 215.115C198.373 215.115 200.969 212.321 203.435 208.744L207.827 202.374L214.798 207.782C218.632 210.757 223.211 214.431 224.974 215.946C226.736 217.462 228.717 218.719 229.376 218.739C231.026 218.79 237.79 213.241 237.79 211.836C237.79 211.208 232.949 206.711 227.033 201.841C221.117 196.971 216.149 192.64 215.994 192.218C215.839 191.796 217.605 188.607 219.917 185.13C225.576 176.62 225.205 175.859 214.675 174.339C210.44 173.729 210.326 173.628 210.326 170.526C210.326 168.11 210.769 167.223 212.157 166.86C214.351 166.286 214.434 165.143 212.602 160.758C210.914 156.716 210.238 156.652 207.204 160.257C204.637 163.308 204.332 164.347 205.749 165.222C206.694 165.806 207.038 171.409 206.182 172.265C205.647 172.8 198.625 171.677 197.887 170.939C196.881 169.933 198.78 165.415 200.385 164.995C202.491 164.445 202.528 163.005 200.544 158.845C198.652 154.876 197.444 154.794 194.388 158.426C191.672 161.654 191.452 162.775 193.39 163.518C194.875 164.088 195.201 167.233 193.977 169.163C193.279 170.263 183.778 169.857 183.778 168.727C183.778 168.518 185.503 166.063 187.611 163.27C191.612 157.971 191.677 156.543 188.014 154.298C186.378 153.295 185.396 154.158 179.522 161.755L177.556 164.298L168.537 158.122C162.873 154.243 159.817 152.284 158.177 152.143ZM188.716 180.576C189.301 179.992 207.04 183.09 208.588 184.046C209.43 184.567 208.283 186.444 204.471 190.787C201.564 194.098 199.018 196.806 198.811 196.806C198.083 196.806 188.267 181.025 188.716 180.576ZM633.468 183.172C633.803 183.056 633.984 183.171 634.046 183.49C634.334 184.984 632.676 215.729 631.773 225.643C631.12 232.82 628.745 249.569 627.294 257.226C626.484 261.506 625.329 267.759 624.727 271.122C624.125 274.485 623.328 277.54 622.957 277.911C622.586 278.282 622.283 279.71 622.283 281.083C622.283 282.457 621.447 286.405 620.425 289.857C619.403 293.309 617.947 298.399 617.19 301.168C614.331 311.63 607.921 332.593 606.693 335.498C606.267 336.505 605.641 338.358 605.302 339.617C604.963 340.876 604.159 343.142 603.518 344.652C602.876 346.163 601.417 350.076 600.274 353.349C599.132 356.622 597.847 359.69 597.422 360.169C596.997 360.647 596.65 361.615 596.65 362.32C596.65 363.024 596.092 364.899 595.411 366.486C594.729 368.072 593.307 371.429 592.249 373.947C587.037 386.361 584.505 392.279 584.307 392.51C584.187 392.65 582.975 389.56 581.613 385.644C580.251 381.728 578.544 377.227 577.822 375.64C577.1 374.054 576.51 372.471 576.51 372.125C576.51 371.779 575.274 368.826 573.763 365.563C572.253 362.3 571.017 359.27 571.017 358.831C571.017 356.124 568.337 357.616 563.4 363.071C537.299 391.904 496.847 433.086 476.725 451.309C470.431 457.008 462.81 463.977 459.789 466.794C456.768 469.612 453.06 472.878 451.55 474.05C450.039 475.223 446.717 478.102 444.167 480.45C439.688 484.573 437.081 486.787 425.103 496.645C422.026 499.177 415.801 504.329 411.269 508.092C406.738 511.856 399.735 517.396 395.707 520.404C391.679 523.413 386.06 527.84 383.223 530.242C380.385 532.644 377.766 534.61 377.401 534.61C377.036 534.61 374.825 536.176 372.489 538.089C368.78 541.128 359.665 547.812 345.027 558.231C342.691 559.895 337.895 563.175 334.371 565.519C330.846 567.864 327.757 570.031 327.505 570.336C327.253 570.641 321.898 574.253 315.604 578.362C309.31 582.471 303.749 586.157 303.245 586.553C302.742 586.95 297.798 590.112 292.26 593.582C286.721 597.051 279.1 601.833 275.324 604.206C264.59 610.953 245.304 622.494 244.765 622.494C244.497 622.494 242.099 623.794 239.433 625.382C236.768 626.969 231.908 629.72 228.635 631.495C225.363 633.269 221.449 635.466 219.939 636.378C218.428 637.29 214.926 639.173 212.157 640.564C209.388 641.954 206.916 643.298 206.664 643.55C206.413 643.801 203.117 645.608 199.341 647.565C195.564 649.523 190.335 652.303 187.719 653.745C181.791 657.011 182.388 657.059 175.794 652.797C167.82 647.643 158.177 637.983 158.15 635.121C158.147 634.764 160.102 633.346 162.494 631.97C166.369 629.741 180.426 621.171 185.178 618.14C186.17 617.508 187.6 616.713 188.355 616.375C189.11 616.038 189.934 615.523 190.186 615.229C190.747 614.577 198.195 609.711 200.714 608.353C205.86 605.577 256.602 571.839 268.145 563.518C270.994 561.465 274.229 559.167 275.336 558.412C276.443 557.657 280.828 554.464 285.081 551.317C289.334 548.17 293.204 545.595 293.681 545.595C294.158 545.595 294.548 545.272 294.548 544.877C294.548 544.481 298.565 541.289 303.474 537.784C308.383 534.278 313.842 530.173 315.604 528.661C317.366 527.15 319.475 525.501 320.289 524.998C321.102 524.494 327.694 519.312 334.936 513.483C348.286 502.737 349.577 501.669 358.128 494.33C360.768 492.064 363.918 489.419 365.128 488.453C376.346 479.489 400.687 457.059 421.221 436.763C448.982 409.325 480.554 374.5 493.936 356.553C494.312 356.05 497.369 352.136 500.73 347.856C504.092 343.577 507.996 338.533 509.406 336.649C510.816 334.765 512.732 332.293 513.663 331.156C514.594 330.019 516.769 327.03 518.494 324.512C520.22 321.995 523.465 317.463 525.707 314.442C534.184 303.018 534.192 303.334 525.224 293.438L519.463 287.082L524.046 282.911C526.567 280.617 530.585 277.091 532.977 275.077C535.369 273.063 539.682 269.356 542.561 266.838C545.439 264.321 548.804 261.437 550.036 260.43C552.488 258.427 568.905 244.47 573.304 240.649C583.304 231.963 587.993 227.707 595.277 220.713C599.808 216.362 606.562 210.13 610.285 206.865C614.008 203.6 620.804 196.623 625.387 191.359C630.077 185.971 632.464 183.522 633.468 183.172ZM322.47 197.263L322.191 202.654C322.038 205.619 322.138 208.633 322.414 209.352C324.088 213.713 332.798 206.19 333.255 199.988L333.455 197.263H327.963H322.47ZM259.128 200.582C252.377 201.149 240.093 203.705 239.834 205.066C239.687 205.833 241.473 209.026 243.803 212.161C246.133 215.297 248.436 217.861 248.919 217.861C249.401 217.861 252.691 217.384 256.23 216.799C261.692 215.897 262.791 215.403 263.502 213.534C264.64 210.54 264.561 201.972 263.384 200.795C263.013 200.424 261.378 200.393 259.128 200.582ZM323.966 259.779C323.3 260.001 322.928 262.903 322.928 267.859C322.928 276.431 322.687 276.106 329.931 277.321C338.7 278.793 339.653 278.588 343.584 274.391C351.115 266.352 351.71 265.503 350.599 264.392C349.498 263.291 325.763 259.18 323.966 259.779ZM244.944 267.795C242.685 268.125 239.096 269.602 233.442 271.993L229.551 273.64V280.812C229.551 284.863 229.994 288.43 230.57 289.006C231.32 289.756 233.807 289.225 239.953 287.005L248.318 283.983L248.552 276.783C248.776 269.882 248.708 267.245 244.944 267.795ZM267.156 294.257C267.66 293.946 268 300.59 268 310.727C268 320.071 267.802 327.716 267.56 327.716C265.991 327.716 263.082 319.141 262.708 313.412C262.285 306.943 264.909 295.646 267.156 294.257ZM466.844 327.816C465.692 327.875 465.203 329.632 464.325 334.849C463.092 342.168 463.315 343.057 466.503 343.545C473.125 344.56 480.45 344.176 480.984 342.786C481.535 341.349 471.541 329.942 468.259 328.26C467.688 327.967 467.228 327.797 466.844 327.816ZM308.28 394.529L355.575 394.765L402.869 395.002L410.892 405.988L418.917 416.973L395.201 440.146C380.864 454.155 362.659 470.717 349.161 482.028C336.882 492.319 326.263 500.711 325.567 500.679C324.87 500.647 320.799 499.262 316.519 497.602L308.738 494.584L308.493 485.989L308.248 477.394L314.644 473.464C324.11 467.645 324.092 467.111 314.301 463.231C311.086 461.957 308.313 460.56 308.139 460.127C307.965 459.694 310.912 458.221 314.689 456.855C323.961 453.5 323.957 452.293 314.662 448.546C306.413 445.221 306.426 445.09 315.364 442.091C324.456 439.041 324.185 437.987 313.119 433.398L305.992 430.443L313.315 428.22C319.142 426.451 320.696 425.607 320.92 424.093C321.161 422.459 319.933 421.708 312.223 418.763C301.082 414.509 301.018 414.447 305.01 411.98L308.28 409.957V402.244V394.529ZM515.12 436.656C517.958 436.656 519.527 495.567 517.132 512.181C514.993 527.018 514.335 530.636 512.556 537.356C511.557 541.133 510.26 546.076 509.674 548.342C509.089 550.608 508.275 553.285 507.868 554.292C507.461 555.299 506.414 558.183 505.542 560.7C501.45 572.509 491.537 592.313 483.346 605.039C481.585 607.775 479.788 610.453 479.353 610.99C478.918 611.527 475.808 615.468 472.439 619.748C463.836 630.678 454.144 640.55 442.218 650.533C436.582 655.251 431.699 659.112 431.365 659.112C431.031 659.112 429.257 660.275 427.422 661.698C417.038 669.748 392.499 681.951 376.482 687.03C370.44 688.946 364.673 690.82 363.666 691.193C361.574 691.968 350.486 694.243 338.73 696.31C329.277 697.972 296.291 698.747 286.767 697.531C283.243 697.081 276.857 696.063 272.577 695.269C268.298 694.476 261.924 693.397 258.415 692.872C254.905 692.347 251.275 691.512 250.347 691.016C249.419 690.519 244.258 688.533 238.877 686.603C233.496 684.673 225.931 681.634 222.064 679.851C218.198 678.069 213.255 676.136 211.079 675.555C207.37 674.563 192.074 665.703 192.035 664.523C192.025 664.226 193.06 663.509 194.334 662.928C196.319 662.023 197.189 662.212 200.405 664.242C204.125 666.59 223.434 676.506 224.287 676.506C224.531 676.506 225.77 674.961 227.041 673.073C228.311 671.185 230.955 667.992 232.916 665.978C234.877 663.964 238.282 659.929 240.483 657.011C244.832 651.246 245.666 651.051 252.891 654.115C257.653 656.134 272.012 660.051 274.605 660.038C277.519 660.025 278.549 661.621 279.325 667.351C281.692 684.811 283.048 691.179 284.605 692.165C285.291 692.6 295.415 692.963 307.104 692.97C331.638 692.986 329.591 693.853 331.154 682.793C332.478 673.426 334.911 662.54 335.985 661.172C336.48 660.543 338.05 660.028 339.476 660.028C340.901 660.028 343.013 659.652 344.169 659.195C345.326 658.737 348.744 657.663 351.765 656.809C354.786 655.955 359.684 654.4 362.65 653.353L368.041 651.451L370.644 654.594C378.679 664.301 383.238 669.723 386.094 672.966L389.298 676.604L395.249 673.831C404.858 669.352 428.205 655.435 428.205 654.186C428.205 653.204 425.123 643.815 424.563 643.092C424.173 642.588 422.919 639.176 421.774 635.509C420.629 631.842 419.341 628.625 418.913 628.36C416.422 626.821 418.308 622.619 423.528 618.079C426.494 615.5 432.135 610.255 436.065 606.425C441.406 601.221 443.686 599.572 445.091 599.897C446.125 600.136 452.866 602.385 460.069 604.895L473.168 609.458L476.594 604.762C481.717 597.743 485.689 591.062 491.066 580.419L495.905 570.842L493.972 568.784C492.909 567.652 489.757 564.958 486.968 562.798C484.179 560.637 479.875 557.031 477.404 554.784C472.324 550.163 472.379 550.791 475.99 538.272C479.126 527.397 480.385 522.103 480.401 519.721C480.435 514.503 482.158 513.237 490.925 511.992C495.45 511.349 502.037 510.281 505.562 509.621L511.97 508.419L512.589 504.35C513.4 499.015 513.499 478.157 512.757 469.369L512.172 462.442L508.203 461.443C506.019 460.893 503.915 460.537 503.525 460.651C503.135 460.765 500.276 460.307 497.172 459.634L491.529 458.411L500.362 450.05C505.22 445.452 510.365 440.558 511.796 439.173C513.228 437.789 514.724 436.656 515.12 436.656ZM437.253 505.635C437.388 505.977 437.234 506.993 436.909 508.977C435.976 514.685 432.895 527.361 431.903 529.575C431.452 530.582 430.401 533.569 429.57 536.212C428.738 538.855 427.783 540.981 427.445 540.936C426.849 540.856 408.518 533.326 406.692 532.411C406.189 532.158 407.189 530.8 408.916 529.391C411.442 527.33 427.686 513.441 435.871 506.343C436.696 505.627 437.118 505.294 437.253 505.635ZM310.16 507.722C310.681 507.795 311.342 507.989 312.176 508.28L315.001 509.265L312.328 511.405C308.871 514.171 308.28 514.106 308.28 510.96C308.28 508.366 308.594 507.501 310.16 507.722ZM297.468 508.378C298.122 508.624 298.21 510.224 298.21 515.16V522.453L286.08 531.615C279.409 536.653 262.622 548.585 248.775 558.129C234.929 567.674 223.075 575.793 222.431 576.172C221.133 576.937 205.181 561.464 198.552 553.01L194.676 548.066L215.503 539.969C226.956 535.514 237.043 531.644 237.917 531.367C239.202 530.959 239.561 531.513 239.793 534.267C239.95 536.14 240.491 537.802 240.994 537.961C241.498 538.119 245.823 534.776 250.606 530.533L259.303 522.82L277.155 515.986C286.973 512.228 295.727 508.865 296.608 508.51C296.97 508.365 297.25 508.296 297.468 508.378ZM391.641 540.95C393.224 540.594 396.188 541.649 406.576 545.524C414.512 548.484 421.25 551.151 421.549 551.449C423.148 553.048 410.14 568.495 400.652 576.263C387.36 587.147 365.271 598.173 348.56 602.268C342.104 603.85 338.357 604.547 323.843 606.86C320.57 607.381 316.863 607.981 315.604 608.194C310.545 609.046 306.928 607.603 306.635 604.616C306.351 601.712 307.741 600.345 317.995 593.444C320.065 592.051 324.626 588.981 328.131 586.623C331.636 584.265 335.039 581.69 335.694 580.901C336.349 580.113 337.401 579.467 338.033 579.467C338.665 579.467 339.642 578.914 340.203 578.237C340.765 577.561 344.625 574.659 348.782 571.79C360.454 563.733 368.022 558.414 370.532 556.504C375.102 553.025 379.681 549.667 382.908 547.426C386.289 545.079 387.088 544.463 390.294 541.724C390.739 541.345 391.113 541.069 391.641 540.95ZM57.9882 632.564C59.6112 632.564 63.2806 639.181 62.3438 640.419C61.9153 640.985 59.1089 644.695 56.1072 648.663C47.099 660.571 43.4501 668.4 43.3444 676.048C43.2497 682.908 43.8858 684.133 49.4165 687.72C55.0256 691.358 65.3553 688.306 82.9237 677.82C87.8663 674.87 88.0645 674.953 94.8783 682.87C101.357 690.397 101.465 690.775 97.496 691.945C95.8596 692.428 87.9735 695.311 79.9717 698.352C71.97 701.393 64.1566 704.159 62.6084 704.499C61.0603 704.839 59.1623 705.448 58.3905 705.851C55.0685 707.586 43.8117 710.529 34.1004 712.202C29.2028 713.045 20.5367 713.192 17.7634 712.477C9.22392 710.276 11.2575 700.98 25.1801 678.568C28.0727 673.911 31.0565 669.374 31.8118 668.485C32.5671 667.596 33.7704 665.741 34.4849 664.364C35.1993 662.986 36.1262 661.859 36.5446 661.859C36.9631 661.859 37.3046 661.37 37.3046 660.773C37.3046 660.176 38.0809 658.838 39.03 657.798C39.9789 656.759 42.9864 652.613 45.7135 648.585C54.347 635.833 56.8517 632.564 57.9882 632.564ZM69.9857 653.056C70.6051 652.8 71.4397 653.512 73.3007 655.61C79.2319 662.294 79.3381 663.147 74.7525 667.292C72.5341 669.298 70.2038 670.955 69.5745 670.976C68.9451 670.996 68.4302 671.375 68.4302 671.816C68.4302 672.258 66.3968 673.493 63.9119 674.562C58.8591 676.736 58.4176 676.804 56.6597 675.691C54.5149 674.332 56.7587 669.702 63.3951 661.789C65.9078 658.793 66.6991 657.717 69.4082 653.62C69.5969 653.334 69.7793 653.142 69.9857 653.056Z" fill="white"/>
</svg>
