<svg width="814" height="814" viewBox="0 0 814 814" fill="none" xmlns="http://www.w3.org/2000/svg">
<rect width="814" height="814" fill="#1E1E1E"/>
<g clip-path="url(#clip0_0_1)">
<rect width="814" height="814" fill="white"/>
<rect width="814" height="814" fill="black"/>
<path d="M337.994 52.0355C337.575 51.8886 336.95 52.2117 336.604 52.7536C336.251 53.3065 335.994 100.212 336.016 159.644C336.055 260.673 335.998 265.593 334.769 266.491C333.573 267.367 333.419 267.005 332.606 261.373C330.234 244.941 325.483 232.42 318.779 224.936L315.338 221.094L312.005 223.825C310.172 225.327 308.672 226.733 308.672 226.95C308.672 227.167 309.813 228.897 311.207 230.796C314.945 235.887 319.083 245.245 321.184 253.358C323.524 262.391 323.658 272.825 321.604 286.039C319.389 300.289 322.32 310.351 331.487 319.962L335.464 324.131H328.979C324.103 324.131 322.273 324.397 321.604 325.204C320.509 326.523 321.321 359.141 322.485 360.578C323.03 361.252 327.58 361.476 340.72 361.476H358.226V366.329V371.182L353.532 374.366C350.863 376.176 348.926 377.989 349.043 378.569C349.156 379.129 351.746 380.622 354.798 381.886C357.851 383.15 360.531 384.367 360.753 384.589C360.975 384.811 358.479 385.923 355.208 387.059C347.159 389.855 347.094 390.851 354.777 393.653L360.74 395.827L357.867 397.031C346.911 401.618 346.838 401.81 354.911 404.848C361.161 407.2 361.15 407.312 354.456 409.623C347.374 412.067 347.8 413.071 357.508 416.807C361.853 418.479 365.408 420.064 365.408 420.328C365.408 420.592 363.954 421.833 362.176 423.086L358.945 425.363V432.845V440.327L343.324 446.66L327.704 452.992L317.65 453.376C308.146 453.739 307.583 453.843 307.381 455.26C307.263 456.085 307.667 457.174 308.278 457.681C308.89 458.189 309.382 458.97 309.372 459.415C309.359 460.034 291.061 467.538 274.133 473.868C273.23 474.206 272.363 472.727 270.023 466.852C257.435 435.248 263.625 396.152 285.938 366.323L289.564 361.476H302.924C312.358 361.476 316.539 361.223 317.148 360.614C317.77 359.991 318.009 354.933 318.009 342.377C318.009 322.258 318.928 324.131 309.05 324.131C303.615 324.131 302.281 323.918 301.927 322.994C301.687 322.37 301.491 301.524 301.491 276.672C301.491 250.901 301.217 231.486 300.854 231.486C300.042 231.486 291.156 237.359 290.837 238.107C290.706 238.416 290.221 238.671 289.76 238.675C288.961 238.682 281.637 243.772 279.103 246.081C278.441 246.684 277.255 247.523 276.466 247.945C275.676 248.368 274.601 249.13 274.077 249.64C273.552 250.149 271.564 251.471 269.66 252.577C267.755 253.683 265.235 255.594 264.06 256.824L261.924 259.06L262.384 274.898C262.637 283.608 262.895 298.169 262.956 307.253L263.068 323.771L256.253 323.98C252.504 324.095 249.111 324.514 248.712 324.912C248.287 325.336 247.839 332.665 247.628 342.657C247.274 359.446 247.244 359.72 245.417 362.553C241.362 368.843 239.194 372.847 237.039 378.023C234.615 383.846 230.14 400.381 229.321 406.544C228.771 410.682 228.959 410.556 222.133 411.39C217.912 411.905 211.023 413.125 207.26 414.024C203.781 414.855 203.707 415.329 203.969 435.088L204.178 450.888L207.769 451.338C209.744 451.586 212.653 452.13 214.233 452.547C215.813 452.965 219.044 453.529 221.414 453.803C228.005 454.563 228.119 454.676 230.444 462.738C231.619 466.815 231.522 466.497 231.995 467.765C232.216 468.358 232.963 470.781 233.656 473.151C234.348 475.521 235.351 478.098 235.885 478.877C237.115 480.673 237.112 481.777 235.873 482.974C230.797 487.881 226.342 491.798 222.041 495.137L216.924 499.111L220.137 505.521C221.903 509.047 225 514.68 227.02 518.037C230.913 524.512 230.85 524.417 233.529 527.716L235.266 529.855L240.909 527.923C244.012 526.862 249.562 524.93 253.243 523.631L259.936 521.269L262.399 523.951C263.755 525.426 264.864 526.898 264.864 527.221C264.864 527.919 254.727 534.454 246.255 539.218L240.213 542.615L238.885 540.919C237.536 539.197 231.345 530.281 230.033 528.17C229.638 527.535 229.116 526.853 228.874 526.655C227.631 525.641 215.548 504.045 212.862 498.039C199.395 467.921 195.954 433.345 203.132 400.257C203.946 396.504 204.908 392.059 205.271 390.378C206.033 386.849 210.04 374.641 211.042 372.797C211.414 372.111 211.719 371.189 211.719 370.749C211.719 367.72 226.072 342.034 232.744 333.123C235.662 329.226 252.398 311.973 258.264 306.646C258.359 306.374 258.446 306.098 258.506 305.816C258.511 305.787 258.516 305.758 258.521 305.729C258.49 305.131 258.457 304.534 258.471 303.935C258.471 302.705 258.473 301.475 258.476 300.246C258.481 299.062 258.483 297.879 258.506 296.695C258.525 295.81 258.563 294.925 258.604 294.04C258.542 293.924 258.476 293.814 258.356 293.743C258.228 293.67 258.144 293.646 257.995 293.687C257.837 293.719 257.68 293.758 257.527 293.807C253.04 297.301 245.862 303.597 240.805 308.716C233.397 316.217 230.92 319.056 225.68 326.063C223.078 329.542 220.312 333.197 219.531 334.185C218.75 335.172 217.107 337.758 215.881 339.93C214.655 342.103 213.26 344.365 212.782 344.958C210.534 347.747 201.549 366.787 199.843 372.377C199.201 374.479 198.35 377.006 197.949 377.994C196.526 381.502 195.165 385.847 194.536 388.901C194.186 390.604 193.211 395.115 192.371 398.924C191.53 402.734 190.905 406.127 190.982 406.465C191.059 406.803 190.927 407.564 190.69 408.157C189.156 411.999 189.154 453.879 190.687 457.711C190.924 458.303 191.052 459.199 190.971 459.703C190.837 460.527 193.075 471.26 195.424 481.057C199.854 499.53 213.537 526.307 227.899 544.61C235.427 554.202 255.405 573.54 260.555 576.218C261.542 576.731 263.643 578.181 265.223 579.441C266.803 580.701 268.581 581.957 269.173 582.231C270.311 582.757 271.35 583.378 275.996 586.31C280.094 588.897 298.296 597.754 299.513 597.754C300.074 597.754 300.754 597.976 301.025 598.247C301.848 599.07 315.392 603.618 319.445 604.433C320.433 604.631 324.149 605.48 327.704 606.319C357.758 613.411 397.69 611.044 427.171 600.422C433.069 598.298 433.258 598.215 443.326 593.373C471.203 579.965 493.517 560.471 511.736 533.613C514.995 528.809 517.661 524.493 517.661 524.023C517.661 523.552 518.085 522.741 518.604 522.219C521.163 519.641 533.461 491.708 533.461 488.472C533.461 487.795 533.726 487.077 534.05 486.877C534.374 486.676 535.389 483.345 536.305 479.473C537.222 475.602 538.146 471.949 538.359 471.356C538.846 469.999 538.869 469.883 540.7 459.506C543.295 444.794 542.635 403.477 539.577 389.187L538.513 384.223L541.643 380.569C546.402 375.01 568.72 352.139 569.385 352.139C569.706 352.139 570.827 354.805 571.876 358.064C572.925 361.323 574.031 364.635 574.336 365.425C577.054 372.468 580.281 384.629 581.96 394.152C582.586 397.707 583.451 402.555 583.88 404.925C584.966 410.915 584.908 452.411 583.806 458.429C583.336 460.996 582.82 464.067 582.66 465.252C582.086 469.5 579.218 483.953 578.669 485.36C578.361 486.15 577.781 488.089 577.379 489.669C574.631 500.47 569.412 514.777 563.927 526.54C562.575 529.439 561.469 531.917 561.469 532.046C561.469 532.419 550.867 550.839 548.955 553.789C544.037 561.373 537.136 570.755 533.82 574.363C533.03 575.223 530.929 577.675 529.152 579.811C512.585 599.725 484.403 620.1 456.021 632.684C442.125 638.846 430.207 642.587 409.576 647.265C389.998 651.704 349.214 651.552 327.596 646.959C314.964 644.275 301.302 640.622 296.823 638.731C296.033 638.398 293.77 637.561 291.795 636.874C289.82 636.186 286.75 635.004 284.973 634.245C283.195 633.487 281.095 632.592 280.305 632.256C278.514 631.496 263.114 623.838 260.196 622.257C257.93 621.029 252.105 617.345 245.473 612.944C240.573 609.692 241.099 610.086 231.41 602.423C220.481 593.779 204.447 577.632 197.9 568.68C197.606 568.278 196.314 566.619 195.027 564.992C193.741 563.365 192.203 561.307 191.61 560.421C191.018 559.534 189.543 557.472 188.334 555.838C186.329 553.132 182.397 546.868 179.257 541.378C174.564 533.175 163.909 510.137 164.808 510.137C165.031 510.137 164.907 509.733 164.531 509.24C163.901 508.411 162.938 505.821 160.851 499.347C158.427 491.828 155.938 480.961 154.605 472.074C154.042 468.322 153.241 463.151 152.826 460.583C151.421 451.895 151.161 426.684 152.366 416.057C154.058 401.137 155.07 394.27 155.776 392.905C156.13 392.22 156.42 390.818 156.42 389.791C156.42 385.773 164.056 361.06 168.609 350.344C171.766 342.915 181.443 323.327 182.27 322.694C182.528 322.497 182.969 321.85 183.252 321.258C183.972 319.75 184.995 318.093 189.004 311.945C211.717 277.112 245.659 249.378 285.691 232.944C287.863 232.052 290.137 231.078 290.742 230.778C291.347 230.478 292.963 229.992 294.333 229.699C295.702 229.406 297.146 228.924 297.541 228.629C297.936 228.334 299.194 227.869 300.336 227.595L302.414 227.099L299.977 224.577C298.637 223.19 296.472 221.392 295.166 220.582L292.79 219.109L285.112 222.174C278.208 224.929 262.404 232.686 256.479 236.227C247.472 241.61 243.081 244.407 238.676 247.566C215.213 264.396 193.876 285.741 179.37 306.894C177.61 309.462 175.927 311.671 175.631 311.802C175.335 311.934 175.092 312.321 175.092 312.664C175.092 313.006 174.158 314.675 173.016 316.374C169.596 321.463 161.555 336.777 158.29 344.419C157.657 345.9 156.678 348.162 156.117 349.446C154.004 354.275 151.983 359.735 151.011 363.239C150.458 365.232 149.176 369.708 148.162 373.185C142.506 392.592 139.593 424.345 141.297 448.015C141.696 453.545 142.04 458.716 142.063 459.506C142.102 460.839 143.992 473.166 145.698 483.206C147.949 496.454 156.16 520.364 163.04 533.704C164.377 536.294 164.784 537.794 164.31 538.372C163.926 538.841 162.476 540.678 161.088 542.455C159.7 544.233 158.308 546.01 157.996 546.405C157.685 546.8 155.375 549.87 152.864 553.228C150.352 556.585 147.378 560.525 146.255 561.983C145.131 563.441 144.211 564.818 144.211 565.043C144.211 565.267 143.08 567.061 141.697 569.028C140.315 570.994 139.184 572.854 139.184 573.16C139.184 573.465 138.106 575.327 136.789 577.296C129.11 588.784 125.535 597.434 125.07 605.654C124.695 612.28 125.819 615.865 128.77 617.451C129.56 617.876 130.391 618.47 130.616 618.774C131.711 620.249 140.289 620.899 148.782 620.151C160.47 619.122 184.888 612.818 196.997 607.705C200.735 606.126 212.168 602.069 212.888 602.066C213.333 602.064 214.108 602.558 214.61 603.163C215.112 603.768 219.397 607.182 224.133 610.749C262.314 639.509 300.852 655.215 343.863 659.548C347.615 659.926 351.009 660.371 351.404 660.536C352.747 661.098 389.442 660.3 394.853 659.592C405.627 658.181 410.419 657.376 416.758 655.911C427.961 653.322 438.408 650.44 440.268 649.425C440.954 649.051 441.856 648.745 442.274 648.745C442.691 648.745 447.14 647.11 452.158 645.113C466.913 639.242 479.558 632.602 492.463 623.948C495.392 621.984 498.3 620.054 498.927 619.659C499.553 619.264 500.227 618.761 500.425 618.541C500.622 618.321 503.531 616.065 506.888 613.528C525.22 599.674 538.887 585.474 556.288 562.205C557.548 560.52 562.194 553.163 565.359 547.841C567.238 544.682 569.077 541.611 569.445 541.019C570.171 539.85 577.051 525.71 578.88 521.628C581.618 515.517 583.663 510.111 585.129 505.11C585.997 502.148 586.99 499.078 587.335 498.288C588.805 494.926 592.226 480.045 592.867 474.229C593.063 472.451 593.511 470.64 593.864 470.204C594.217 469.769 594.463 468.637 594.41 467.691C594.357 466.744 594.737 462.415 595.256 458.07C595.774 453.725 596.208 443.706 596.218 435.806C596.234 423.518 595.887 418.105 594.094 402.77C593.956 401.585 593.536 398.838 593.162 396.666C592.787 394.494 592.294 391.585 592.065 390.202C591.836 388.82 590.851 384.483 589.877 380.565C588.294 374.203 588.215 373.242 589.129 371.587C590.997 368.206 596.441 356.212 600.238 347.112C602.299 342.175 604.258 337.489 604.592 336.699C604.927 335.909 605.894 333.485 606.742 331.312C607.59 329.14 608.611 326.554 609.011 325.567C611.666 319.003 620.807 289.463 622.455 282.117C622.898 280.142 623.903 275.881 624.687 272.646C625.471 269.412 626.422 264.888 626.799 262.592C631.913 231.503 632.569 223.974 632.569 196.296C632.569 182.912 632.286 171.788 631.942 171.575C631.597 171.362 618.912 183.543 603.753 198.644C578.76 223.541 567.929 233.914 560.751 239.822C559.369 240.96 557.915 242.255 557.52 242.699C557.125 243.144 554.216 245.706 551.056 248.393C547.896 251.08 543.21 255.181 540.642 257.506C532.766 264.638 526.802 269.549 526.02 269.549C525.793 269.549 524.508 268.499 523.164 267.215C515.17 259.584 495.957 244.489 489.801 241.002C488.929 240.508 487.489 239.7 486.6 239.207C485.711 238.713 484.822 238.13 484.625 237.912C482.403 235.455 451.518 220.714 448.593 220.714C448.029 220.714 447.26 220.431 446.884 220.085C444.636 218.015 412.333 209.941 406.301 209.941C403.702 209.941 403.479 210.129 401.819 213.711C399.715 218.251 399.9 218.514 405.721 219.274C412.182 220.118 418.025 221.413 428.967 224.426C440.836 227.696 459.55 235.718 471.698 242.744C473.843 243.985 484.48 250.971 490.37 255.008C499.565 261.308 520.795 280.339 528.274 288.983L529.864 290.822L528.251 293.046C527.364 294.269 526.153 295.982 525.561 296.853C524.968 297.723 522.794 300.743 520.73 303.563C515.901 310.159 515.662 310.491 510.805 317.308C508.553 320.468 506.347 323.29 505.902 323.581C505.457 323.871 500.447 324.114 494.769 324.119L484.445 324.131L484.935 321.796C487.755 308.357 488.042 302.002 486.136 295.129C483.889 287.027 484.908 287.088 466.888 293.977C458.276 297.27 450.87 300.234 450.43 300.564C449.99 300.894 449.464 303.234 449.261 305.765C448.849 310.886 446.777 315.912 445.125 315.796C444.533 315.754 440.211 313.032 435.523 309.749C428.76 305.013 426.756 303.931 425.827 304.513C423.553 305.938 424.224 307.966 429.23 314.804C431.973 318.551 433.932 321.722 433.581 321.851C433.231 321.98 431.156 321.566 428.971 320.931C416.257 317.235 415.144 296.392 427.358 290.706C434.035 287.597 439.331 288.827 445.093 294.824L447.984 297.833L463.914 291.412C484.255 283.213 483.35 283.952 479.697 278.511C467.747 260.712 454.559 252.345 436.507 251.11C414.193 249.583 391.041 265.976 383.586 288.581C381.155 295.952 380.634 316.213 382.769 320.36L383.971 322.694H379.358H374.744V284.788V246.882L379.083 242.595C389.722 232.084 399.326 213.683 404.324 194.232C409.837 172.779 406.96 155.52 394.186 133.425C388.978 124.418 339.328 52.5033 337.994 52.0355ZM375.05 123.216C375.392 122.874 384.088 134.121 386.022 137.405C388.814 142.147 394.014 155.003 395.511 160.865C399.574 176.782 394.265 200.938 382.576 219.719C374.198 233.179 374.748 233.262 374.723 218.534C374.65 174.693 374.826 123.44 375.05 123.216ZM249.089 171.313C247.803 171.202 247.628 172.518 247.628 175.18C247.628 179.509 247.565 179.425 256.564 187.114L258.678 188.92L254.948 193.607C250.664 198.991 250.638 199.09 252.937 201.25C254.331 202.56 254.804 202.685 255.449 201.913C255.886 201.391 257.759 199.117 259.609 196.861L262.973 192.76L264.128 194.706C264.762 195.778 268.312 202.068 272.018 208.684C276.526 216.735 279.15 220.714 279.951 220.714C280.623 220.714 282.659 218.522 284.594 215.716L288.039 210.718L293.508 214.961C296.516 217.295 300.108 220.177 301.491 221.366C302.873 222.555 304.427 223.541 304.944 223.557C306.239 223.597 311.545 219.243 311.545 218.141C311.545 217.649 307.748 214.121 303.107 210.3C298.466 206.48 294.568 203.082 294.447 202.751C294.325 202.42 295.71 199.918 297.524 197.191C301.963 190.515 301.672 189.917 293.411 188.725C290.089 188.246 290 188.167 290 185.733C290 183.838 290.347 183.143 291.436 182.858C293.158 182.408 293.223 181.511 291.786 178.071C290.461 174.9 289.931 174.85 287.551 177.678C285.537 180.071 285.298 180.886 286.409 181.573C287.151 182.031 287.421 186.426 286.749 187.098C286.329 187.518 280.821 186.637 280.242 186.058C279.452 185.268 280.942 181.724 282.201 181.395C283.853 180.963 283.882 179.834 282.326 176.57C280.841 173.457 279.894 173.392 277.496 176.242C275.366 178.774 275.193 179.653 276.714 180.236C277.878 180.683 278.134 183.15 277.174 184.665C276.627 185.527 269.173 185.209 269.173 184.322C269.173 184.159 270.526 182.232 272.18 180.041C275.319 175.884 275.37 174.765 272.496 173.003C271.213 172.216 270.443 172.893 265.835 178.853L264.292 180.848L257.217 176.003C252.773 172.96 250.376 171.423 249.089 171.313ZM273.047 193.618C273.506 193.16 287.422 195.59 288.637 196.341C289.297 196.749 288.397 198.222 285.406 201.629C283.126 204.226 281.128 206.35 280.967 206.35C280.395 206.35 272.695 193.971 273.047 193.618ZM621.953 195.655C622.216 195.563 622.358 195.654 622.406 195.904C622.632 197.076 621.331 221.195 620.623 228.973C620.111 234.603 618.247 247.743 617.11 253.75C616.474 257.107 615.568 262.013 615.095 264.651C614.623 267.29 613.998 269.686 613.707 269.977C613.416 270.268 613.178 271.388 613.178 272.466C613.178 273.543 612.522 276.641 611.721 279.348C610.919 282.056 609.777 286.049 609.183 288.222C606.94 296.429 601.912 312.874 600.948 315.153C600.614 315.943 600.123 317.398 599.857 318.385C599.59 319.373 598.96 321.15 598.457 322.335C597.953 323.52 596.809 326.59 595.912 329.158C595.016 331.725 594.009 334.132 593.675 334.508C593.341 334.883 593.069 335.642 593.069 336.195C593.069 336.748 592.632 338.219 592.097 339.463C591.563 340.708 590.446 343.342 589.617 345.317C585.528 355.056 583.542 359.698 583.386 359.879C583.292 359.989 582.341 357.565 581.273 354.493C580.204 351.421 578.865 347.89 578.299 346.645C577.732 345.4 577.269 344.159 577.269 343.887C577.269 343.616 576.3 341.3 575.115 338.739C573.93 336.179 572.96 333.802 572.96 333.458C572.96 331.335 570.858 332.505 566.985 336.784C546.509 359.404 514.774 391.711 498.988 406.006C494.051 410.478 488.072 415.944 485.702 418.155C483.332 420.366 480.424 422.927 479.239 423.847C478.054 424.767 475.447 427.026 473.447 428.867C469.933 432.102 467.888 433.839 458.492 441.573C456.078 443.559 451.194 447.6 447.639 450.553C444.084 453.505 438.59 457.852 435.43 460.212C432.27 462.572 427.863 466.045 425.637 467.929C423.41 469.814 421.356 471.356 421.069 471.356C420.783 471.356 419.049 472.585 417.216 474.086C414.306 476.47 407.156 481.713 395.672 489.887C393.839 491.192 390.077 493.765 387.312 495.604C384.547 497.443 382.124 499.144 381.926 499.383C381.729 499.622 377.527 502.456 372.59 505.68C367.653 508.903 363.29 511.794 362.895 512.105C362.5 512.416 358.621 514.897 354.277 517.619C349.932 520.341 343.953 524.092 340.99 525.954C332.57 531.247 317.44 540.301 317.017 540.301C316.807 540.301 314.925 541.32 312.834 542.566C310.743 543.812 306.931 545.97 304.363 547.362C301.796 548.754 298.726 550.477 297.541 551.192C296.356 551.908 293.609 553.386 291.436 554.476C289.264 555.567 287.325 556.621 287.127 556.819C286.93 557.016 284.344 558.434 281.382 559.969C278.419 561.504 274.317 563.686 272.264 564.817C267.614 567.379 268.082 567.416 262.91 564.073C256.654 560.03 249.089 552.452 249.068 550.206C249.065 549.927 250.599 548.814 252.475 547.735C255.516 545.986 266.544 539.263 270.271 536.885C271.049 536.389 272.171 535.766 272.764 535.501C273.356 535.236 274.003 534.832 274.2 534.602C274.64 534.089 280.483 530.273 282.459 529.207C286.496 527.029 326.303 500.562 335.359 494.035C337.593 492.424 340.132 490.621 341 490.029C341.869 489.436 345.309 486.931 348.645 484.463C351.981 481.994 355.017 479.974 355.392 479.974C355.766 479.974 356.072 479.72 356.072 479.41C356.072 479.1 359.223 476.596 363.074 473.846C366.925 471.096 371.207 467.875 372.59 466.689C373.972 465.503 375.626 464.21 376.265 463.815C376.903 463.42 382.074 459.355 387.756 454.782C398.229 446.352 399.242 445.514 405.95 439.756C408.021 437.979 410.492 435.904 411.441 435.146C420.242 428.114 439.337 410.518 455.446 394.596C477.224 373.071 501.992 345.751 512.491 331.671C512.785 331.276 515.184 328.206 517.821 324.849C520.458 321.491 523.52 317.535 524.627 316.057C525.733 314.579 527.236 312.64 527.966 311.748C528.697 310.856 530.403 308.51 531.756 306.535C533.11 304.56 535.656 301.005 537.415 298.635C544.065 289.674 544.071 289.921 537.036 282.158L532.517 277.172L536.112 273.899C538.089 272.099 541.242 269.334 543.118 267.754C544.995 266.174 548.378 263.265 550.637 261.29C552.895 259.315 555.534 257.053 556.501 256.263C558.425 254.692 571.303 243.743 574.754 240.745C582.599 233.931 586.278 230.592 591.992 225.105C595.547 221.692 600.845 216.803 603.766 214.242C606.687 211.681 612.018 206.207 615.613 202.078C619.293 197.851 621.165 195.929 621.953 195.655ZM377.976 206.709L377.757 210.938C377.637 213.264 377.716 215.628 377.933 216.193C379.246 219.614 386.079 213.712 386.437 208.847L386.594 206.709H382.285H377.976ZM328.285 209.313C322.989 209.758 313.352 211.763 313.148 212.83C313.034 213.432 314.434 215.937 316.262 218.396C318.09 220.856 319.897 222.868 320.275 222.868C320.654 222.868 323.235 222.493 326.011 222.035C330.296 221.327 331.158 220.94 331.716 219.474C332.609 217.124 332.547 210.403 331.623 209.479C331.332 209.189 330.05 209.164 328.285 209.313ZM379.15 255.753C378.628 255.927 378.335 258.203 378.335 262.091C378.335 268.816 378.147 268.561 383.83 269.514C390.709 270.669 391.456 270.508 394.54 267.215C400.448 260.909 400.915 260.243 400.043 259.371C399.179 258.508 380.56 255.283 379.15 255.753ZM317.157 262.041C315.386 262.3 312.569 263.458 308.134 265.334L305.082 266.626V272.252C305.082 275.431 305.429 278.229 305.881 278.681C306.469 279.269 308.42 278.853 313.242 277.111L319.804 274.741L319.988 269.092C320.164 263.678 320.11 261.609 317.157 262.041ZM334.583 282.8C334.978 282.556 335.245 287.769 335.245 295.721C335.245 303.051 335.089 309.049 334.9 309.049C333.668 309.049 331.387 302.321 331.093 297.827C330.761 292.753 332.82 283.89 334.583 282.8ZM491.237 309.127C490.333 309.173 489.95 310.552 489.261 314.644C488.294 320.386 488.468 321.084 490.969 321.467C496.164 322.263 501.911 321.961 502.33 320.871C502.762 319.744 494.922 310.795 492.347 309.475C491.899 309.246 491.539 309.112 491.237 309.127ZM366.845 361.463L403.947 361.648L441.049 361.835L447.343 370.453L453.638 379.071L435.033 397.249C423.786 408.239 409.504 421.232 398.915 430.106C389.282 438.179 380.952 444.762 380.406 444.737C379.859 444.712 376.666 443.626 373.308 442.323L367.204 439.956L367.011 433.213L366.819 426.47L371.837 423.387C379.263 418.823 379.249 418.404 371.567 415.36C369.046 414.36 366.87 413.264 366.734 412.924C366.597 412.585 368.909 411.429 371.872 410.358C379.146 407.726 379.143 406.779 371.851 403.839C365.379 401.231 365.39 401.128 372.402 398.776C379.535 396.383 379.322 395.556 370.64 391.956L365.049 389.637L370.794 387.894C375.365 386.506 376.585 385.844 376.76 384.656C376.949 383.374 375.986 382.785 369.937 380.475C361.198 377.137 361.147 377.089 364.279 375.153L366.845 373.567V367.515V361.463ZM675.113 367.604C673.658 367.692 671.833 367.941 669.486 368.302C659.065 369.906 658.933 370.014 656.194 378.895C653.615 387.261 648.449 400.539 644.179 409.782L641.279 416.057H634.424C626.494 416.057 627.405 417.193 626.084 405.643C625.632 401.693 624.856 396.286 624.36 393.626C623.304 387.963 622.808 388.367 631.731 387.629C635.182 387.343 637.852 386.781 638.036 386.3C638.419 385.302 636.328 374.999 635.596 374.274C635.314 373.994 631.689 374.267 627.541 374.88C616.767 376.47 615.484 378.256 617.508 388.847C618.766 395.43 620.255 406.004 621.083 414.237C621.892 422.263 623.204 426.38 625.318 427.511C625.968 427.859 630.112 428.242 634.527 428.362C642.211 428.572 642.635 428.505 644.434 426.815C647.617 423.825 659.439 398.051 662.736 386.915L663.604 383.984L671.236 383.193C675.435 382.758 678.978 382.509 679.108 382.639C679.939 383.47 684.021 414.399 683.384 415.036C683.205 415.214 679.451 415.566 675.042 415.818L667.026 416.277L667.452 422.092C668.039 430.113 667.594 429.61 674.369 429.886C677.646 430.019 681.677 430.194 683.327 430.274C686.849 430.446 688.94 428.428 689.757 424.069C691.001 417.44 685.558 379.175 682.431 372.567C680.524 368.535 679.479 367.34 675.113 367.604ZM529.11 394.511C531.336 394.511 532.567 440.727 530.688 453.761C529.009 465.4 528.494 468.239 527.098 473.511C526.314 476.473 525.296 480.351 524.837 482.129C524.378 483.906 523.74 486.007 523.42 486.797C523.101 487.587 522.28 489.849 521.595 491.824C518.385 501.088 510.608 516.624 504.183 526.608C502.801 528.754 501.391 530.855 501.05 531.276C500.709 531.697 498.269 534.789 495.626 538.146C488.877 546.721 481.274 554.465 471.918 562.298C467.497 565.999 463.666 569.028 463.404 569.028C463.142 569.028 461.75 569.94 460.311 571.056C452.164 577.371 432.913 586.944 420.348 590.929C415.609 592.432 411.084 593.902 410.294 594.194C408.653 594.802 399.955 596.588 390.732 598.209C383.317 599.513 357.439 600.121 349.967 599.167C347.202 598.814 342.193 598.015 338.836 597.393C335.478 596.77 330.478 595.923 327.725 595.512C324.972 595.1 322.124 594.445 321.396 594.056C320.668 593.666 316.619 592.108 312.398 590.594C308.177 589.08 302.242 586.695 299.209 585.297C296.176 583.899 292.297 582.383 290.591 581.927C287.681 581.149 275.681 574.198 275.651 573.272C275.643 573.039 276.455 572.476 277.454 572.021C279.012 571.311 279.694 571.459 282.217 573.052C285.135 574.894 300.283 582.673 300.952 582.673C301.143 582.673 302.116 581.461 303.112 579.98C304.109 578.498 306.183 575.994 307.721 574.414C309.26 572.834 311.931 569.668 313.658 567.379C317.07 562.856 317.724 562.704 323.392 565.107C327.128 566.691 338.392 569.764 340.426 569.754C342.713 569.744 343.52 570.996 344.13 575.491C345.986 589.188 347.05 594.184 348.272 594.958C348.81 595.298 356.752 595.583 365.922 595.589C385.168 595.601 383.562 596.282 384.789 587.605C385.828 580.256 387.736 571.717 388.579 570.643C388.967 570.15 390.199 569.746 391.317 569.746C392.435 569.746 394.092 569.451 394.999 569.092C395.906 568.733 398.588 567.891 400.958 567.221C403.328 566.551 407.171 565.331 409.497 564.51L413.726 563.017L415.769 565.483C422.072 573.098 425.648 577.351 427.889 579.896L430.403 582.75L435.071 580.574C442.609 577.061 460.925 566.143 460.925 565.163C460.925 564.393 458.507 557.027 458.068 556.46C457.762 556.065 456.778 553.388 455.88 550.511C454.982 547.634 453.971 545.11 453.635 544.903C451.681 543.695 453.161 540.399 457.256 536.837C459.582 534.814 464.008 530.699 467.091 527.695C471.281 523.612 473.07 522.318 474.172 522.574C474.983 522.761 480.271 524.526 485.922 526.494L496.198 530.074L498.886 526.39C502.905 520.884 506.021 515.642 510.239 507.293L514.035 499.78L512.519 498.165C511.685 497.278 509.213 495.164 507.024 493.469C504.836 491.774 501.46 488.946 499.521 487.182C495.536 483.557 495.58 484.05 498.412 474.229C500.872 465.697 501.86 461.544 501.872 459.676C501.899 455.582 503.25 454.589 510.129 453.612C513.679 453.108 518.846 452.27 521.611 451.752L526.638 450.81L527.123 447.617C527.76 443.432 527.838 427.069 527.255 420.175L526.797 414.741L523.683 413.957C521.97 413.526 520.319 413.246 520.013 413.335C519.707 413.425 517.464 413.066 515.029 412.537L510.603 411.578L517.532 405.019C521.343 401.412 525.379 397.573 526.502 396.486C527.625 395.4 528.799 394.511 529.11 394.511ZM629.96 447.806C622.525 447.591 622.13 450.431 621.036 461.473C620.595 465.921 619.506 473.969 618.615 479.357C616.838 490.098 616.918 492.876 619.061 494.833C619.875 495.576 632.529 499.716 648.61 504.5C664.079 509.102 677.407 512.899 678.227 512.939C683.048 513.168 685.906 503.704 688.942 477.465C690.753 461.817 690.028 455.586 686.232 454.207C684.577 453.605 668.445 451.743 668.108 452.114C668.003 452.23 667.802 455.233 667.66 458.788L667.4 465.252L673.145 466.151C676.305 466.645 679.983 467.232 681.319 467.457L683.748 467.866L683.262 473.381C682.727 479.448 680.02 497.982 679.56 498.727C679.346 499.073 625.046 486.008 624.154 485.395C624.024 485.306 626.113 469.158 627.231 461.609L627.558 459.404L634.768 460.436C638.733 461.004 642.129 461.317 642.314 461.132C642.5 460.946 642.851 458.208 643.094 455.048L643.538 449.304L640.028 448.85C635.698 448.29 632.438 447.878 629.96 447.806ZM468.023 448.626C468.129 448.893 468.008 449.691 467.753 451.247C467.021 455.725 464.604 465.67 463.826 467.406C463.472 468.196 462.648 470.539 461.995 472.613C461.343 474.687 460.594 476.354 460.329 476.319C459.861 476.256 445.48 470.348 444.048 469.631C443.653 469.433 444.438 468.367 445.793 467.262C447.775 465.645 460.518 454.749 466.939 449.181C467.586 448.619 467.917 448.358 468.023 448.626ZM368.319 450.262C368.728 450.32 369.246 450.472 369.901 450.7L372.117 451.473L370.02 453.152C367.308 455.322 366.845 455.271 366.845 452.803C366.845 450.767 367.091 450.089 368.319 450.262ZM358.363 450.777C358.875 450.97 358.945 452.225 358.945 456.098V461.819L349.429 469.007C344.195 472.959 331.026 482.319 320.163 489.807C309.301 497.294 300.001 503.664 299.496 503.961C298.478 504.561 285.964 492.423 280.763 485.791L277.722 481.913L294.061 475.56C303.046 472.066 310.959 469.029 311.645 468.812C312.653 468.492 312.934 468.926 313.116 471.087C313.24 472.556 313.664 473.86 314.059 473.985C314.454 474.109 317.847 471.487 321.6 468.158L328.422 462.107L342.427 456.746C350.129 453.797 356.997 451.159 357.688 450.881C357.971 450.767 358.192 450.713 358.363 450.777ZM432.24 476.33C433.483 476.051 435.808 476.878 443.957 479.918C450.183 482.241 455.469 484.332 455.703 484.566C456.957 485.821 446.753 497.939 439.31 504.033C428.882 512.571 411.553 521.221 398.444 524.433C393.379 525.675 390.44 526.221 379.053 528.036C376.486 528.445 373.577 528.916 372.59 529.082C368.621 529.751 365.784 528.619 365.554 526.275C365.331 523.997 366.421 522.925 374.465 517.511C376.089 516.418 379.668 514.01 382.417 512.16C385.167 510.31 387.837 508.29 388.35 507.671C388.864 507.053 389.689 506.547 390.185 506.547C390.681 506.547 391.447 506.112 391.888 505.581C392.329 505.051 395.357 502.775 398.618 500.523C407.775 494.203 413.711 490.031 415.68 488.532C419.266 485.803 422.858 483.168 425.39 481.41C428.042 479.569 428.669 479.086 431.184 476.937C431.533 476.639 431.826 476.423 432.24 476.33ZM610.753 513.01C610.075 513.01 607.178 523.328 607.792 523.558C608.187 523.706 622.245 529.6 639.032 536.656C655.819 543.713 670.1 549.52 670.766 549.561C671.673 549.617 672.479 548.102 673.96 543.553C675.05 540.208 675.798 537.35 675.621 537.202C675.294 536.929 611.159 513.01 610.753 513.01ZM603.73 534.945C602.763 534.546 601.657 536.287 597.841 544.223C593.908 552.402 587.825 563.242 581.778 572.851C580.506 574.872 580.51 574.888 582.656 576.619C583.841 577.575 584.978 578.357 585.183 578.36C585.388 578.362 587.651 574.974 590.21 570.83C592.77 566.686 595.026 563.309 595.224 563.324C595.421 563.339 607.702 570.725 622.514 579.736C637.326 588.747 649.67 595.995 649.944 595.843C650.62 595.467 656.483 584.793 656.163 584.522C656.023 584.403 643.467 577.421 628.26 569.005C613.052 560.59 600.524 553.646 600.419 553.574C600.314 553.503 601.845 550.083 603.821 545.974C607.734 537.838 608.078 536.345 606.176 535.798C605.485 535.599 604.384 535.216 603.73 534.945ZM170.491 548.201C171.765 548.201 174.643 553.392 173.908 554.363C173.572 554.807 171.371 557.718 169.016 560.83C161.949 570.172 159.086 576.314 159.004 582.314C158.929 587.695 159.428 588.657 163.767 591.47C168.167 594.324 176.271 591.93 190.053 583.704C193.931 581.39 194.086 581.454 199.432 587.665C204.514 593.57 204.599 593.867 201.485 594.785C200.201 595.164 194.015 597.425 187.737 599.811C181.46 602.197 175.331 604.367 174.116 604.633C172.902 604.9 171.413 605.377 170.807 605.694C168.201 607.055 159.37 609.364 151.752 610.676C147.909 611.338 141.111 611.453 138.935 610.892C132.236 609.165 133.831 601.872 144.754 584.29C147.023 580.637 149.364 577.078 149.956 576.38C150.549 575.683 151.493 574.228 152.053 573.147C152.614 572.067 153.341 571.182 153.669 571.182C153.997 571.182 154.265 570.799 154.265 570.331C154.265 569.862 154.874 568.812 155.619 567.997C156.363 567.181 158.723 563.929 160.862 560.769C167.635 550.765 169.6 548.201 170.491 548.201ZM179.903 564.277C180.389 564.076 181.044 564.634 182.504 566.28C187.157 571.523 187.24 572.193 183.643 575.445C181.903 577.018 180.075 578.318 179.581 578.334C179.087 578.351 178.683 578.647 178.683 578.994C178.683 579.34 177.088 580.31 175.139 581.148C171.175 582.853 170.828 582.907 169.449 582.033C167.767 580.967 169.527 577.335 174.733 571.127C176.704 568.777 177.325 567.933 179.45 564.719C179.598 564.495 179.742 564.344 179.903 564.277ZM576.583 586.48C574.216 585.861 571.004 588.309 565.345 595.046C562.269 598.708 556.663 605.037 552.889 609.109C545.553 617.026 544.014 619.27 544.368 621.529C544.491 622.314 554.11 633.284 565.743 645.906C589.459 671.636 588.377 670.853 594.562 666.743C598.022 664.442 612.053 649.434 620.609 638.881C626.125 632.078 627.998 628.318 627.254 625.546C626.818 623.923 579.11 587.14 576.583 586.48ZM572.374 596.522C572.644 596.607 582.887 604.896 595.134 614.942L617.401 633.206L614.506 636.846C612.914 638.848 608.027 644.445 603.647 649.283C599.266 654.122 595.496 658.081 595.269 658.081C595.041 658.081 585.59 648.79 574.266 637.434L553.676 616.786L560.467 609.648C564.201 605.722 568.297 601.127 569.57 599.438C570.842 597.748 572.104 596.436 572.374 596.522ZM528.206 634.393C525.575 634.378 524.66 634.898 514.429 642.225C509.689 645.62 502.639 650.289 498.763 652.601C493.336 655.837 491.817 657.073 492.162 657.98C492.563 659.036 521.554 710.325 525.014 716.099L526.426 718.458L529.765 716.518C543.687 708.432 564.215 694.164 567.796 690.086C570.984 686.454 571.369 684.334 569.34 681.589C564.841 675.504 552.556 660.795 551.697 660.466C551.159 660.259 548.564 661.098 545.932 662.33C543.3 663.562 541.049 664.473 540.931 664.355C540.814 664.237 541.974 662.55 543.508 660.604C547.802 655.161 547.876 655.447 539.393 644.911C530.822 634.267 530.971 634.408 528.206 634.393ZM208.412 636.279C208.153 636.309 207.947 636.436 207.751 636.64C205.991 638.463 171.303 690.036 171.222 690.949C171.178 691.448 173.566 693.775 176.529 696.122C179.491 698.468 182.216 700.303 182.583 700.198C183.169 700.031 217.21 645.201 217.871 643.359C218.013 642.964 216.005 641.071 213.409 639.153C210.45 636.967 209.189 636.188 208.412 636.279ZM524.015 643.054L529.815 650.826C533.005 655.101 535.615 658.864 535.615 659.188C535.615 661.248 529.189 669.258 525.62 671.648C523.415 673.124 520.466 675.023 519.066 675.868L516.522 677.406L510.229 667.269C505.16 659.1 504.121 656.967 504.875 656.283C505.39 655.816 509.907 652.647 514.913 649.243L524.015 643.054ZM236.248 655.208C235.279 655.208 205.073 714.658 205.605 715.518C206.678 717.255 227.144 728.184 240.805 734.314C245.94 736.618 250.52 738.506 250.983 738.509C251.748 738.515 253.855 733.63 253.265 733.219C253.127 733.122 249.782 731.646 245.832 729.938C238.52 726.776 220.337 717.869 220.337 717.448C220.337 717.15 230.251 695.516 230.78 694.66C231 694.304 234.477 695.671 238.506 697.698C242.535 699.726 248.579 702.62 251.937 704.127L258.041 706.868L258.907 704.917C260.352 701.659 260.037 701.227 254.32 698.621C244.168 693.995 233.982 688.674 233.982 687.996C233.982 686.813 243.552 665.936 243.982 666.18C246.571 667.651 265.879 676.806 267.898 677.519C271.023 678.624 271.055 678.606 271.674 675.291L272.148 672.752L267.967 671.047C262.413 668.783 247.743 661.478 241.758 657.997C239.121 656.464 236.642 655.208 236.248 655.208ZM475.015 667.544C472.727 667.198 469.255 668.148 463.611 670.558C459.566 672.285 451.769 675.252 446.284 677.151C436.361 680.585 432.198 682.981 432.198 685.257C432.199 685.913 436.028 699.861 440.707 716.253C448.253 742.688 449.409 746.157 450.94 746.944C454.873 748.965 463.358 746.734 486.199 737.666C500.23 732.096 504.734 729.177 504.734 725.65C504.734 723.299 478.721 669.629 476.945 668.315C476.409 667.918 475.778 667.659 475.015 667.544ZM544.909 670.47L552.095 680.039L559.28 689.608L553.372 693.841C550.123 696.169 544.959 699.75 541.896 701.8C538.834 703.85 535.886 705.697 535.346 705.904C534.684 706.158 532.298 702.927 528.039 696.007C524.561 690.355 521.281 685.05 520.751 684.219C519.84 682.79 520.155 682.466 526.48 678.295C531.269 675.137 534.84 673.396 539.041 672.175L544.909 670.47ZM469.11 675.438C469.583 676.131 491.739 726.819 491.934 727.655C492.191 728.755 487.316 730.956 473.474 735.987C462.32 740.042 461.034 740.355 460.572 739.131C460.124 737.944 442.971 685.095 442.971 684.902C442.971 684.826 444.183 684.38 445.664 683.91C447.145 683.44 452.989 681.287 458.651 679.127C464.314 676.967 469.02 675.307 469.11 675.438ZM288.189 679.044C288.067 679.167 285.466 688.963 282.41 700.812C279.354 712.662 275.482 727.528 273.805 733.848C272.127 740.168 270.969 745.571 271.232 745.854C272.093 746.781 293.782 752.721 304.394 754.936C317.177 757.605 317.16 757.604 317.7 755.45C318.667 751.599 318.351 751.422 306.159 748.936C293.102 746.273 285.691 744.32 285.691 743.539C285.691 743.246 288.599 729.633 292.152 713.291C295.705 696.948 298.614 683.204 298.615 682.749C298.618 682.009 288.735 678.497 288.189 679.044ZM410.49 687.32C408.339 687.209 405.117 687.544 399.88 688.277C394.548 689.022 385.377 689.954 379.501 690.347C373.624 690.74 368.667 691.21 368.484 691.392C368.129 691.747 371.08 759.148 371.511 760.524C371.734 761.234 383.821 761.115 384.67 760.395C384.796 760.288 383.699 746.077 382.232 728.817C379.268 693.949 379.109 696.175 384.553 696.155C386.196 696.15 391.475 695.634 396.285 695.009C401.096 694.385 405.137 693.981 405.265 694.112C405.611 694.463 409.843 718.013 409.604 718.256C409.491 718.371 405.076 718.984 399.792 719.618C394.508 720.252 389.755 721.164 389.23 721.646C388.45 722.362 389.271 723.721 393.693 729.034C399.126 735.562 415.842 753.817 418.07 755.656C419.296 756.667 422.056 756.487 429.565 754.904L433.037 754.172L424.897 746.537C415.668 737.88 404.25 726.217 404.213 725.41C404.2 725.114 405.143 724.871 406.309 724.871C409.3 724.871 415.677 723.445 418.007 722.255C422.356 720.035 422.388 719.459 418.989 704.225C417.12 695.848 415.419 689.865 414.672 689.04C413.72 687.988 412.641 687.431 410.49 687.32Z" fill="#FFB800"/>
</g>
<defs>
<clipPath id="clip0_0_1">
<rect width="814" height="814" fill="white"/>
</clipPath>
</defs>
</svg>
