<svg width="814" height="814" viewBox="0 0 814 814" fill="none" xmlns="http://www.w3.org/2000/svg">
<path d="M350.459 32.0375C350.016 31.882 349.354 32.2241 348.988 32.7977C348.614 33.383 348.341 83.0331 348.365 145.943C348.406 252.885 348.346 258.093 347.045 259.044C345.779 259.97 345.617 259.587 344.756 253.626C342.245 236.232 337.215 222.979 330.119 215.056L326.477 210.989L322.949 213.88C321.009 215.47 319.421 216.959 319.421 217.188C319.421 217.418 320.629 219.249 322.104 221.26C326.06 226.649 330.441 236.554 332.665 245.142C335.142 254.703 335.284 265.748 333.109 279.736C330.765 294.819 333.868 305.47 343.571 315.643L347.78 320.056H340.916C335.755 320.056 333.818 320.338 333.109 321.192C331.95 322.589 332.81 357.115 334.042 358.636C334.619 359.349 339.436 359.587 353.344 359.587H371.875V364.724V369.861L366.906 373.232C364.081 375.147 362.031 377.067 362.154 377.68C362.274 378.273 365.016 379.853 368.246 381.191C371.477 382.53 374.314 383.817 374.549 384.053C374.784 384.288 372.143 385.464 368.68 386.667C360.161 389.626 360.091 390.681 368.224 393.647L374.536 395.949L371.495 397.222C359.897 402.078 359.821 402.281 368.365 405.497C374.982 407.987 374.97 408.106 367.884 410.551C360.387 413.139 360.839 414.202 371.115 418.156C375.714 419.926 379.477 421.604 379.477 421.883C379.477 422.163 377.938 423.476 376.056 424.802L372.635 427.213V435.133V443.053L356.101 449.757L339.567 456.459L328.924 456.866C318.864 457.25 318.268 457.36 318.054 458.86C317.929 459.733 318.357 460.885 319.004 461.422C319.651 461.96 320.173 462.786 320.162 463.258C320.147 463.913 300.779 471.856 282.86 478.557C281.904 478.914 280.987 477.348 278.51 471.13C265.185 437.677 271.737 396.292 295.356 364.718L299.194 359.587H313.337C323.323 359.587 327.748 359.319 328.392 358.675C329.052 358.016 329.304 352.661 329.304 339.37C329.304 318.074 330.277 320.056 319.821 320.056C314.067 320.056 312.656 319.831 312.281 318.853C312.027 318.192 311.819 296.127 311.819 269.82C311.819 242.541 311.529 221.99 311.145 221.99C310.285 221.99 300.88 228.207 300.542 228.998C300.403 229.325 299.89 229.595 299.402 229.599C298.556 229.607 290.804 234.994 288.121 237.439C287.421 238.077 286.165 238.965 285.33 239.412C284.494 239.859 283.356 240.666 282.801 241.206C282.246 241.745 280.141 243.144 278.125 244.315C276.109 245.486 273.442 247.509 272.198 248.811L269.937 251.178L270.424 267.942C270.692 277.162 270.965 292.575 271.03 302.191L271.148 319.676L263.934 319.897C259.966 320.019 256.374 320.462 255.952 320.883C255.501 321.332 255.027 329.09 254.804 339.667C254.429 357.438 254.398 357.728 252.464 360.727C248.172 367.385 245.876 371.623 243.596 377.102C241.03 383.266 236.293 400.769 235.426 407.292C234.844 411.673 235.043 411.54 227.817 412.422C223.349 412.968 216.058 414.259 212.074 415.21C208.392 416.09 208.313 416.591 208.591 437.507L208.812 454.232L212.613 454.708C214.704 454.97 217.782 455.547 219.455 455.988C221.127 456.43 224.548 457.028 227.057 457.317C234.033 458.122 234.153 458.242 236.614 466.775C237.859 471.09 237.756 470.754 238.256 472.096C238.49 472.724 239.281 475.289 240.014 477.798C240.748 480.307 241.809 483.034 242.374 483.859C243.676 485.76 243.673 486.929 242.362 488.196C236.989 493.389 232.273 497.536 227.72 501.07L222.304 505.277L225.704 512.062C227.574 515.794 230.853 521.757 232.99 525.311C237.112 532.164 237.044 532.064 239.881 535.556L241.719 537.82L247.692 535.775C250.977 534.651 256.851 532.607 260.748 531.232L267.833 528.731L270.44 531.57C271.875 533.132 273.049 534.69 273.049 535.031C273.049 535.77 262.319 542.688 253.351 547.731L246.956 551.327L245.55 549.532C244.121 547.709 237.568 538.271 236.179 536.037C235.761 535.364 235.209 534.642 234.953 534.433C233.637 533.359 220.847 510.5 218.004 504.142C203.749 472.261 200.107 435.662 207.704 400.637C208.566 396.665 209.584 391.959 209.969 390.18C210.775 386.445 215.017 373.522 216.077 371.57C216.471 370.844 216.794 369.869 216.794 369.402C216.794 366.196 231.987 339.007 239.049 329.575C242.138 325.45 259.853 307.187 266.063 301.548C266.163 301.26 266.256 300.968 266.319 300.669C266.325 300.639 266.329 300.608 266.335 300.577C266.302 299.945 266.267 299.312 266.281 298.678C266.282 297.377 266.284 296.075 266.288 294.773C266.292 293.521 266.295 292.268 266.319 291.015C266.339 290.078 266.379 289.141 266.423 288.205C266.358 288.081 266.287 287.966 266.16 287.89C266.024 287.813 265.936 287.788 265.778 287.831C265.611 287.865 265.445 287.906 265.282 287.958C260.533 291.656 252.935 298.321 247.582 303.74C239.74 311.679 237.119 314.685 231.572 322.102C228.818 325.785 225.889 329.654 225.063 330.699C224.236 331.744 222.498 334.481 221.2 336.781C219.901 339.08 218.425 341.475 217.92 342.102C215.54 345.054 206.029 365.209 204.223 371.126C203.544 373.351 202.642 376.026 202.218 377.071C200.712 380.785 199.272 385.385 198.606 388.617C198.234 390.42 197.203 395.195 196.313 399.227C195.423 403.259 194.762 406.851 194.843 407.209C194.924 407.567 194.785 408.373 194.535 409C192.91 413.067 192.909 457.397 194.532 461.454C194.783 462.081 194.918 463.029 194.831 463.562C194.69 464.434 197.059 475.796 199.546 486.166C204.235 505.721 218.718 534.065 233.921 553.438C241.889 563.592 263.036 584.061 268.488 586.896C269.533 587.439 271.757 588.974 273.429 590.308C275.102 591.642 276.983 592.971 277.61 593.261C278.814 593.818 279.915 594.475 284.832 597.579C289.171 600.317 308.437 609.693 309.726 609.693C310.32 609.693 311.04 609.928 311.326 610.214C312.197 611.085 326.534 615.899 330.824 616.762C331.87 616.972 335.804 617.871 339.567 618.759C371.379 626.266 413.649 623.76 444.855 612.517C451.098 610.268 451.298 610.18 461.955 605.055C491.463 590.862 515.083 570.228 534.368 541.797C537.818 536.712 540.64 532.144 540.64 531.646C540.64 531.148 541.089 530.289 541.638 529.737C544.348 527.008 557.365 497.44 557.365 494.015C557.365 493.298 557.645 492.538 557.988 492.326C558.331 492.114 559.406 488.588 560.376 484.49C561.346 480.392 562.324 476.525 562.549 475.897C563.065 474.461 563.09 474.339 565.028 463.354C567.775 447.781 567.076 404.046 563.838 388.92L562.713 383.665L566.025 379.797C571.063 373.914 594.688 349.704 595.391 349.704C595.731 349.704 596.918 352.526 598.028 355.976C599.138 359.425 600.31 362.931 600.632 363.768C603.509 371.223 606.925 384.095 608.702 394.176C609.365 397.939 610.28 403.07 610.735 405.579C611.884 411.92 611.823 455.844 610.656 462.214C610.158 464.932 609.612 468.181 609.443 469.436C608.835 473.933 605.799 489.231 605.219 490.721C604.893 491.558 604.278 493.61 603.853 495.283C600.944 506.715 595.419 521.859 589.614 534.311C588.183 537.38 587.012 540.002 587.012 540.139C587.012 540.534 575.79 560.032 573.765 563.154C568.56 571.182 561.255 581.113 557.745 584.933C556.908 585.843 554.685 588.438 552.803 590.7C535.267 611.778 505.436 633.346 475.393 646.667C460.683 653.189 448.068 657.149 426.23 662.101C405.506 666.8 362.336 666.639 339.452 661.777C326.081 658.936 311.619 655.069 306.878 653.068C306.042 652.715 303.647 651.829 301.557 651.102C299.466 650.374 296.216 649.122 294.335 648.319C292.453 647.517 290.23 646.569 289.393 646.214C287.498 645.409 271.196 637.303 268.108 635.629C265.71 634.33 259.543 630.43 252.524 625.772C247.336 622.33 247.893 622.746 237.637 614.634C226.069 605.485 209.096 588.393 202.166 578.917C201.855 578.492 200.487 576.736 199.125 575.013C197.763 573.291 196.136 571.113 195.508 570.174C194.881 569.236 193.32 567.053 192.04 565.324C189.918 562.459 185.756 555.828 182.432 550.017C177.465 541.334 166.186 516.948 167.137 516.948C167.374 516.948 167.242 516.521 166.845 515.998C166.178 515.121 165.158 512.38 162.949 505.526C160.383 497.567 157.749 486.065 156.337 476.658C155.741 472.686 154.894 467.212 154.455 464.494C152.968 455.298 152.692 428.611 153.968 417.362C155.759 401.57 156.83 394.301 157.577 392.856C157.952 392.13 158.259 390.647 158.259 389.56C158.259 385.306 166.341 359.147 171.161 347.803C174.502 339.94 184.747 319.206 185.621 318.536C185.894 318.327 186.361 317.642 186.661 317.015C187.423 315.42 188.506 313.666 192.75 307.158C216.792 270.286 252.72 240.929 295.095 223.533C297.394 222.589 299.801 221.557 300.442 221.24C301.082 220.923 302.793 220.409 304.243 220.098C305.692 219.788 307.22 219.278 307.638 218.966C308.056 218.653 309.388 218.161 310.597 217.871L312.796 217.346L310.217 214.676C308.799 213.208 306.507 211.305 305.124 210.447L302.609 208.888L294.482 212.133C287.174 215.049 270.445 223.26 264.173 227.009C254.64 232.706 249.991 235.667 245.328 239.011C220.492 256.826 197.907 279.42 182.552 301.811C180.689 304.529 178.908 306.867 178.594 307.006C178.28 307.146 178.024 307.556 178.024 307.918C178.024 308.28 177.034 310.047 175.826 311.845C172.206 317.233 163.695 333.443 160.238 341.532C159.568 343.1 158.532 345.494 157.938 346.853C155.701 351.965 153.562 357.744 152.533 361.453C151.948 363.563 150.591 368.3 149.518 371.981C143.531 392.524 140.447 426.136 142.251 451.191C142.673 457.044 143.038 462.518 143.062 463.354C143.103 464.765 145.103 477.814 146.909 488.441C149.292 502.464 157.984 527.774 165.267 541.894C166.681 544.636 167.112 546.223 166.61 546.835C166.204 547.331 164.669 549.276 163.2 551.157C161.73 553.039 160.258 554.92 159.927 555.339C159.597 555.757 157.153 559.007 154.495 562.56C151.836 566.114 148.688 570.285 147.498 571.828C146.309 573.372 145.335 574.829 145.335 575.067C145.335 575.305 144.138 577.203 142.674 579.285C141.211 581.367 140.014 583.336 140.014 583.659C140.014 583.982 138.873 585.953 137.479 588.038C129.35 600.198 125.567 609.354 125.074 618.055C124.677 625.068 125.866 628.863 128.991 630.542C129.827 630.992 130.706 631.621 130.945 631.942C132.104 633.503 141.184 634.192 150.174 633.4C162.545 632.311 188.393 625.638 201.21 620.226C205.168 618.555 217.27 614.26 218.031 614.257C218.502 614.255 219.323 614.778 219.854 615.418C220.385 616.058 224.921 619.672 229.934 623.448C270.35 653.891 311.143 670.516 356.671 675.103C360.643 675.503 364.235 675.973 364.653 676.148C366.076 676.743 404.918 675.899 410.646 675.149C422.05 673.655 427.122 672.803 433.832 671.253C445.69 668.513 456.749 665.461 458.718 664.387C459.444 663.991 460.399 663.667 460.841 663.667C461.283 663.667 465.992 661.937 471.304 659.823C486.922 653.608 500.307 646.58 513.968 637.42C517.068 635.341 520.146 633.297 520.809 632.879C521.473 632.461 522.186 631.929 522.395 631.696C522.604 631.463 525.683 629.075 529.237 626.389C548.641 611.725 563.109 596.694 581.528 572.063C582.862 570.279 587.78 562.492 591.13 556.859C593.119 553.514 595.065 550.264 595.455 549.637C596.223 548.4 603.506 533.432 605.441 529.112C608.34 522.643 610.504 516.92 612.056 511.627C612.975 508.491 614.026 505.241 614.392 504.405C615.947 500.847 619.569 485.095 620.247 478.938C620.455 477.057 620.929 475.14 621.303 474.678C621.677 474.217 621.937 473.02 621.881 472.018C621.825 471.016 622.227 466.433 622.776 461.834C623.325 457.235 623.784 446.63 623.795 438.267C623.812 425.259 623.444 419.531 621.547 403.298C621.4 402.044 620.956 399.136 620.559 396.836C620.163 394.537 619.64 391.458 619.398 389.995C619.156 388.531 618.113 383.941 617.082 379.793C615.407 373.059 615.323 372.041 616.291 370.29C618.268 366.711 624.03 354.015 628.05 344.383C630.231 339.156 632.305 334.196 632.659 333.36C633.013 332.523 634.037 329.958 634.935 327.658C635.832 325.358 636.913 322.622 637.336 321.576C640.146 314.629 649.822 283.36 651.567 275.584C652.036 273.494 653.099 268.983 653.929 265.559C654.76 262.136 655.766 257.346 656.166 254.916C661.579 222.008 662.272 214.038 662.272 184.74C662.272 170.574 661.973 158.798 661.609 158.573C661.244 158.347 647.817 171.241 631.771 187.226C605.315 213.58 593.85 224.56 586.252 230.814C584.789 232.019 583.249 233.389 582.831 233.859C582.413 234.33 579.334 237.042 575.989 239.886C572.645 242.73 567.684 247.071 564.967 249.532C556.629 257.082 550.316 262.281 549.488 262.281C549.248 262.281 547.888 261.169 546.465 259.81C538.004 251.732 517.666 235.753 511.15 232.063C510.227 231.54 508.702 230.685 507.761 230.162C506.821 229.64 505.88 229.023 505.671 228.792C503.318 226.191 470.626 210.587 467.53 210.587C466.933 210.587 466.119 210.287 465.722 209.922C463.342 207.731 429.149 199.184 422.763 199.184C420.012 199.184 419.776 199.383 418.019 203.175C415.792 207.981 415.988 208.259 422.15 209.064C428.989 209.957 435.174 211.328 446.755 214.517C459.319 217.978 479.129 226.469 491.987 233.907C494.258 235.22 505.517 242.615 511.752 246.888C521.485 253.557 543.958 273.701 551.874 282.852L553.558 284.799L551.85 287.152C550.911 288.447 549.629 290.26 549.002 291.182C548.375 292.104 546.074 295.3 543.889 298.285C538.777 305.267 538.524 305.619 533.383 312.834C530.999 316.179 528.664 319.167 528.193 319.474C527.722 319.781 522.419 320.038 516.409 320.044L505.481 320.056L505.999 317.585C508.984 303.359 509.287 296.633 507.27 289.357C504.892 280.781 505.971 280.845 486.896 288.138C477.78 291.623 469.941 294.762 469.475 295.11C469.009 295.459 468.452 297.937 468.237 300.616C467.802 306.037 465.608 311.357 463.86 311.234C463.233 311.189 458.658 308.308 453.695 304.833C446.537 299.82 444.415 298.674 443.432 299.29C441.024 300.799 441.735 302.946 447.034 310.184C449.938 314.15 452.011 317.507 451.64 317.643C451.269 317.78 449.073 317.342 446.76 316.669C433.301 312.757 432.124 290.694 445.052 284.675C452.12 281.385 457.726 282.687 463.826 289.035L466.886 292.22L483.748 285.422C505.279 276.744 504.321 277.526 500.455 271.767C487.805 252.926 473.845 244.069 454.737 242.762C431.117 241.146 406.61 258.498 398.718 282.426C396.145 290.228 395.594 311.676 397.854 316.065L399.127 318.536H394.243H389.36V278.411V238.287L393.952 233.749C405.214 222.623 415.38 203.145 420.671 182.556C426.507 159.847 423.461 141.578 409.939 118.19C404.427 108.656 351.871 32.5328 350.459 32.0375ZM389.684 107.384C390.045 107.022 399.25 118.927 401.297 122.404C404.253 127.423 409.758 141.03 411.342 147.236C415.643 164.085 410.023 189.654 397.649 209.534C388.782 223.782 389.364 223.87 389.338 208.28C389.26 161.873 389.446 107.621 389.684 107.384ZM256.351 158.295C254.99 158.178 254.804 159.571 254.804 162.388C254.804 166.971 254.737 166.882 264.264 175.021L266.501 176.933L262.553 181.894C258.018 187.593 257.991 187.698 260.424 189.984C261.9 191.371 262.4 191.503 263.083 190.687C263.546 190.133 265.528 187.727 267.487 185.338L271.048 180.997L272.269 183.058C272.941 184.192 276.699 190.85 280.621 197.854C285.394 206.375 288.172 210.587 289.019 210.587C289.73 210.587 291.886 208.267 293.934 205.297L297.58 200.007L303.369 204.498C306.553 206.968 310.356 210.019 311.819 211.277C313.283 212.536 314.928 213.58 315.475 213.597C316.845 213.639 322.462 209.031 322.462 207.864C322.462 207.343 318.442 203.608 313.53 199.564C308.617 195.52 304.492 191.923 304.363 191.573C304.234 191.223 305.7 188.575 307.62 185.687C312.319 178.621 312.011 177.988 303.267 176.727C299.751 176.22 299.656 176.136 299.656 173.56C299.656 171.554 300.023 170.818 301.176 170.516C302.998 170.04 303.068 169.09 301.546 165.449C300.144 162.092 299.583 162.039 297.064 165.033C294.932 167.566 294.678 168.429 295.855 169.156C296.64 169.641 296.926 174.293 296.214 175.004C295.77 175.448 289.94 174.516 289.327 173.903C288.491 173.067 290.068 169.316 291.401 168.967C293.149 168.51 293.18 167.315 291.533 163.86C289.962 160.565 288.959 160.496 286.421 163.512C284.165 166.193 283.983 167.123 285.592 167.741C286.825 168.214 287.096 170.825 286.079 172.428C285.5 173.342 277.61 173.004 277.61 172.066C277.61 171.893 279.042 169.854 280.794 167.535C284.116 163.134 284.17 161.949 281.128 160.084C279.77 159.251 278.954 159.968 274.076 166.277L272.443 168.388L264.954 163.26C260.25 160.039 257.713 158.412 256.351 158.295ZM281.711 181.906C282.196 181.421 296.927 183.993 298.213 184.788C298.912 185.22 297.96 186.779 294.793 190.385C292.38 193.134 290.265 195.383 290.094 195.383C289.489 195.383 281.338 182.279 281.711 181.906ZM651.036 184.062C651.314 183.965 651.464 184.061 651.515 184.326C651.754 185.566 650.378 211.097 649.628 219.329C649.086 225.289 647.113 239.198 645.909 245.556C645.236 249.11 644.276 254.303 643.777 257.096C643.277 259.889 642.615 262.425 642.307 262.734C641.999 263.042 641.747 264.227 641.747 265.368C641.747 266.508 641.053 269.787 640.204 272.653C639.356 275.52 638.147 279.746 637.518 282.046C635.144 290.734 629.821 308.141 628.801 310.554C628.448 311.39 627.928 312.929 627.646 313.974C627.364 315.02 626.697 316.901 626.164 318.156C625.631 319.41 624.42 322.66 623.471 325.377C622.522 328.095 621.456 330.643 621.103 331.04C620.75 331.438 620.461 332.242 620.461 332.827C620.461 333.411 619.998 334.969 619.432 336.286C618.867 337.604 617.685 340.391 616.807 342.482C612.478 352.791 610.376 357.705 610.212 357.897C610.112 358.013 609.105 355.447 607.974 352.195C606.843 348.944 605.426 345.206 604.827 343.888C604.227 342.571 603.737 341.256 603.737 340.969C603.737 340.682 602.711 338.23 601.456 335.52C600.202 332.81 599.176 330.294 599.176 329.93C599.176 327.682 596.95 328.921 592.851 333.45C571.176 357.394 537.584 391.591 520.875 406.724C515.648 411.457 509.32 417.243 506.811 419.583C504.302 421.923 501.224 424.635 499.969 425.608C498.715 426.582 495.956 428.973 493.839 430.922C490.119 434.346 487.955 436.185 478.008 444.371C475.453 446.474 470.283 450.752 466.52 453.877C462.757 457.002 456.942 461.603 453.597 464.101C450.252 466.599 445.587 470.275 443.23 472.27C440.874 474.265 438.699 475.897 438.396 475.897C438.093 475.897 436.257 477.198 434.317 478.787C431.237 481.31 423.668 486.861 411.513 495.513C409.572 496.894 405.59 499.618 402.663 501.565C399.737 503.511 397.171 505.311 396.962 505.565C396.753 505.818 392.306 508.818 387.079 512.23C381.853 515.642 377.235 518.702 376.817 519.031C376.398 519.361 372.293 521.987 367.694 524.868C363.095 527.749 356.766 531.72 353.63 533.691C344.717 539.293 328.702 548.877 328.254 548.877C328.032 548.877 326.04 549.956 323.827 551.275C321.613 552.593 317.578 554.878 314.86 556.351C312.142 557.825 308.893 559.649 307.638 560.406C306.384 561.163 303.476 562.727 301.176 563.882C298.877 565.036 296.824 566.152 296.615 566.361C296.406 566.571 293.669 568.071 290.534 569.696C287.398 571.322 283.055 573.631 280.883 574.828C275.96 577.54 276.456 577.579 270.981 574.041C264.359 569.761 256.351 561.739 256.329 559.362C256.326 559.066 257.949 557.888 259.936 556.746C263.154 554.895 274.827 547.778 278.773 545.261C279.596 544.736 280.784 544.076 281.411 543.796C282.038 543.516 282.723 543.088 282.932 542.844C283.397 542.302 289.582 538.262 291.674 537.134C295.947 534.829 338.083 506.813 347.669 499.903C350.035 498.198 352.721 496.29 353.641 495.663C354.56 495.036 358.201 492.384 361.733 489.771C365.264 487.158 368.478 485.02 368.875 485.02C369.271 485.02 369.595 484.751 369.595 484.423C369.595 484.095 372.93 481.444 377.007 478.533C381.083 475.622 385.616 472.213 387.079 470.958C388.543 469.702 390.294 468.333 390.969 467.915C391.645 467.497 397.119 463.194 403.133 458.353C414.218 449.43 415.291 448.543 422.392 442.449C424.584 440.567 427.2 438.371 428.204 437.568C437.52 430.125 457.733 411.499 474.785 394.645C497.837 371.86 524.055 342.941 535.167 328.038C535.479 327.62 538.018 324.37 540.809 320.816C543.601 317.262 546.843 313.074 548.013 311.51C549.184 309.945 550.775 307.893 551.549 306.949C552.322 306.004 554.127 303.522 555.561 301.431C556.994 299.341 559.689 295.578 561.55 293.069C568.589 283.583 568.596 283.844 561.149 275.627L556.365 270.349L560.171 266.885C562.264 264.98 565.601 262.053 567.587 260.38C569.573 258.708 573.155 255.629 575.546 253.538C577.936 251.448 580.73 249.053 581.753 248.217C583.789 246.553 597.422 234.964 601.075 231.791C609.379 224.578 613.273 221.044 619.321 215.236C623.084 211.622 628.692 206.447 631.784 203.736C634.876 201.025 640.519 195.231 644.324 190.86C648.22 186.386 650.202 184.352 651.036 184.062ZM392.781 195.763L392.549 200.24C392.422 202.701 392.506 205.204 392.735 205.802C394.124 209.423 401.358 203.175 401.737 198.026L401.903 195.763H397.342H392.781ZM340.181 198.519C334.575 198.99 324.375 201.112 324.159 202.243C324.038 202.879 325.521 205.53 327.455 208.134C329.39 210.738 331.302 212.868 331.703 212.868C332.104 212.868 334.836 212.471 337.775 211.986C342.31 211.237 343.223 210.826 343.813 209.274C344.759 206.788 344.692 199.673 343.715 198.695C343.407 198.388 342.05 198.362 340.181 198.519ZM394.024 247.677C393.47 247.861 393.161 250.27 393.161 254.386C393.161 261.505 392.961 261.234 398.977 262.244C406.258 263.465 407.05 263.295 410.314 259.81C416.568 253.134 417.062 252.43 416.139 251.507C415.225 250.593 395.516 247.179 394.024 247.677ZM328.403 254.333C326.527 254.607 323.546 255.833 318.851 257.819L315.62 259.186V265.142C315.62 268.506 315.988 271.468 316.467 271.947C317.089 272.569 319.154 272.129 324.259 270.285L331.204 267.776L331.399 261.797C331.585 256.066 331.529 253.876 328.403 254.333ZM346.848 276.307C347.266 276.049 347.549 281.566 347.549 289.984C347.549 297.743 347.384 304.092 347.184 304.092C345.88 304.092 343.465 296.971 343.154 292.214C342.803 286.842 344.982 277.461 346.848 276.307ZM512.67 304.175C511.713 304.224 511.307 305.683 510.578 310.015C509.555 316.093 509.739 316.831 512.386 317.236C517.885 318.079 523.969 317.76 524.412 316.605C524.869 315.413 516.571 305.94 513.844 304.543C513.371 304.3 512.989 304.159 512.67 304.175ZM380.998 359.573L420.271 359.769L459.545 359.967L466.207 369.089L472.871 378.211L453.177 397.454C441.271 409.087 426.154 422.84 414.945 432.233C404.749 440.779 395.931 447.748 395.352 447.721C394.774 447.694 391.393 446.544 387.839 445.166L381.378 442.659L381.174 435.522L380.971 428.385L386.282 425.121C394.143 420.29 394.128 419.846 385.997 416.624C383.328 415.566 381.025 414.406 380.88 414.046C380.736 413.687 383.183 412.464 386.319 411.329C394.019 408.543 394.016 407.541 386.297 404.43C379.447 401.668 379.458 401.56 386.88 399.07C394.43 396.536 394.205 395.661 385.015 391.851L379.097 389.396L385.179 387.551C390.017 386.082 391.308 385.381 391.494 384.124C391.694 382.767 390.674 382.143 384.272 379.698C375.02 376.165 374.967 376.113 378.282 374.065L380.998 372.385V365.98V359.573ZM707.307 366.074C705.767 366.167 703.835 366.43 701.35 366.813C690.32 368.511 690.179 368.625 687.28 378.026C684.55 386.881 679.082 400.936 674.562 410.721L671.493 417.362H664.237C655.843 417.362 656.807 418.565 655.408 406.339C654.93 402.158 654.109 396.434 653.584 393.619C652.465 387.624 651.94 388.051 661.386 387.27C665.039 386.968 667.865 386.373 668.06 385.864C668.465 384.808 666.252 373.901 665.476 373.134C665.178 372.838 661.341 373.127 656.951 373.775C645.546 375.459 644.188 377.349 646.33 388.56C647.662 395.528 649.238 406.721 650.115 415.436C650.97 423.932 652.36 428.289 654.598 429.487C655.285 429.854 659.672 430.26 664.345 430.388C672.48 430.61 672.928 430.539 674.832 428.75C678.201 425.585 690.715 398.302 694.205 386.514L695.124 383.413L703.203 382.575C707.647 382.114 711.397 381.85 711.536 381.989C712.415 382.868 716.735 415.607 716.061 416.281C715.872 416.47 711.898 416.842 707.231 417.109L698.746 417.595L699.197 423.751C699.819 432.24 699.347 431.708 706.518 432C709.988 432.141 714.255 432.326 716.002 432.412C719.729 432.593 721.942 430.457 722.808 425.843C724.124 418.827 718.362 378.322 715.053 371.327C713.034 367.059 711.928 365.794 707.307 366.074ZM552.759 394.556C555.115 394.556 556.418 443.476 554.429 457.273C552.653 469.593 552.107 472.598 550.63 478.178C549.8 481.314 548.722 485.419 548.236 487.301C547.75 489.182 547.075 491.406 546.737 492.242C546.398 493.078 545.529 495.473 544.805 497.563C541.407 507.369 533.175 523.814 526.373 534.383C524.911 536.654 523.418 538.878 523.057 539.324C522.696 539.77 520.113 543.042 517.316 546.596C510.172 555.673 502.123 563.871 492.22 572.161C487.54 576.079 483.485 579.285 483.208 579.285C482.93 579.285 481.457 580.251 479.934 581.432C471.31 588.117 450.933 598.25 437.633 602.468C432.615 604.059 427.826 605.615 426.99 605.925C425.253 606.568 416.046 608.458 406.283 610.174C398.434 611.554 371.042 612.198 363.133 611.188C360.206 610.815 354.904 609.969 351.35 609.31C347.796 608.651 342.503 607.755 339.589 607.319C336.675 606.883 333.66 606.19 332.89 605.778C332.119 605.365 327.833 603.716 323.365 602.113C318.896 600.51 312.614 597.987 309.404 596.507C306.193 595.027 302.088 593.422 300.281 592.939C297.201 592.116 284.499 584.758 284.467 583.778C284.459 583.531 285.318 582.936 286.376 582.453C288.025 581.702 288.747 581.859 291.417 583.545C294.506 585.495 310.541 593.729 311.249 593.729C311.452 593.729 312.481 592.446 313.536 590.878C314.591 589.31 316.786 586.659 318.415 584.986C320.043 583.314 322.87 579.963 324.698 577.54C328.31 572.752 329.002 572.591 335.002 575.135C338.956 576.811 350.88 580.064 353.034 580.054C355.454 580.043 356.308 581.368 356.953 586.127C358.919 600.625 360.045 605.913 361.338 606.732C361.907 607.093 370.314 607.394 380.021 607.401C400.394 607.414 398.694 608.134 399.992 598.949C401.092 591.171 403.112 582.131 404.004 580.995C404.415 580.473 405.719 580.045 406.902 580.045C408.086 580.045 409.84 579.733 410.8 579.353C411.76 578.973 414.599 578.082 417.107 577.373C419.616 576.663 423.684 575.372 426.147 574.502L430.623 572.923L432.785 575.533C439.457 583.594 443.243 588.096 445.615 590.789L448.276 593.81L453.217 591.508C461.196 587.788 480.584 576.231 480.584 575.194C480.584 574.379 478.024 566.582 477.56 565.981C477.236 565.563 476.194 562.73 475.243 559.684C474.293 556.639 473.223 553.968 472.868 553.748C470.799 552.47 472.366 548.981 476.7 545.211C479.163 543.069 483.847 538.713 487.111 535.533C491.546 531.212 493.439 529.842 494.606 530.112C495.465 530.311 501.062 532.179 507.044 534.262L517.922 538.051L520.766 534.152C525.02 528.324 528.319 522.775 532.784 513.937L536.802 505.985L535.197 504.276C534.314 503.336 531.697 501.099 529.381 499.305C527.065 497.511 523.491 494.516 521.439 492.65C517.221 488.813 517.266 489.334 520.265 478.938C522.869 469.908 523.914 465.511 523.927 463.534C523.956 459.201 525.386 458.15 532.667 457.115C536.425 456.581 541.894 455.695 544.821 455.146L550.143 454.149L550.656 450.769C551.33 446.339 551.413 429.019 550.796 421.721L550.31 415.969L547.014 415.139C545.201 414.683 543.454 414.386 543.13 414.481C542.806 414.576 540.432 414.196 537.855 413.637L533.169 412.621L540.503 405.678C544.538 401.86 548.81 397.796 549.999 396.646C551.187 395.497 552.43 394.556 552.759 394.556ZM659.511 450.97C651.641 450.742 651.223 453.748 650.065 465.436C649.598 470.144 648.445 478.664 647.502 484.367C645.622 495.736 645.706 498.677 647.974 500.748C648.836 501.535 662.23 505.917 679.252 510.981C695.627 515.852 709.735 519.872 710.603 519.913C715.706 520.156 718.732 510.139 721.945 482.364C723.862 465.8 723.094 459.205 719.077 457.745C717.324 457.108 700.249 455.136 699.892 455.529C699.781 455.652 699.568 458.831 699.417 462.594L699.142 469.436L705.224 470.387C708.569 470.911 712.462 471.532 713.876 471.77L716.447 472.203L715.932 478.041C715.366 484.463 712.5 504.082 712.014 504.87C711.787 505.237 654.309 491.407 653.365 490.759C653.227 490.664 655.439 473.57 656.623 465.58L656.969 463.246L664.6 464.339C668.798 464.94 672.392 465.271 672.589 465.075C672.785 464.879 673.156 461.98 673.414 458.636L673.883 452.555L670.168 452.074C665.585 451.481 662.134 451.046 659.511 450.97ZM488.097 451.837C488.209 452.12 488.081 452.964 487.812 454.612C487.037 459.351 484.479 469.878 483.655 471.716C483.28 472.553 482.408 475.033 481.717 477.228C481.026 479.423 480.233 481.188 479.953 481.151C479.457 481.084 464.235 474.831 462.719 474.071C462.301 473.862 463.132 472.733 464.566 471.563C466.664 469.852 480.153 458.319 486.949 452.425C487.635 451.83 487.985 451.553 488.097 451.837ZM382.558 453.57C382.991 453.631 383.54 453.791 384.233 454.033L386.579 454.851L384.359 456.628C381.488 458.925 380.998 458.871 380.998 456.258C380.998 454.104 381.258 453.386 382.558 453.57ZM372.019 454.114C372.562 454.319 372.635 455.647 372.635 459.746V465.803L362.563 473.41C357.023 477.594 343.082 487.503 331.585 495.428C320.087 503.354 310.242 510.096 309.708 510.411C308.63 511.046 295.384 498.197 289.879 491.177L286.66 487.072L303.954 480.347C313.466 476.649 321.842 473.434 322.568 473.204C323.635 472.865 323.933 473.326 324.125 475.612C324.256 477.168 324.705 478.548 325.123 478.68C325.541 478.812 329.133 476.036 333.105 472.512L340.327 466.107L355.151 460.432C363.304 457.311 370.573 454.518 371.305 454.224C371.605 454.104 371.838 454.046 372.019 454.114ZM450.221 481.162C451.536 480.867 453.997 481.743 462.623 484.96C469.213 487.419 474.808 489.633 475.056 489.881C476.384 491.209 465.583 504.036 457.704 510.487C446.666 519.525 428.323 528.681 414.447 532.081C409.085 533.395 405.974 533.973 393.921 535.894C391.203 536.327 388.125 536.826 387.079 537.002C382.878 537.71 379.875 536.511 379.632 534.031C379.395 531.619 380.55 530.484 389.064 524.754C390.783 523.597 394.571 521.048 397.482 519.089C400.392 517.131 403.219 514.993 403.762 514.338C404.306 513.683 405.179 513.147 405.704 513.147C406.229 513.147 407.04 512.688 407.507 512.126C407.973 511.564 411.178 509.155 414.631 506.772C424.323 500.081 430.607 495.665 432.691 494.078C436.487 491.19 440.289 488.401 442.969 486.54C445.777 484.591 446.44 484.079 449.103 481.805C449.472 481.49 449.782 481.261 450.221 481.162ZM639.18 519.989C638.462 519.989 635.396 530.911 636.045 531.155C636.464 531.311 651.345 537.55 669.114 545.019C686.884 552.489 702 558.635 702.706 558.679C703.665 558.739 704.518 557.135 706.086 552.32C707.24 548.779 708.031 545.753 707.844 545.597C707.499 545.308 639.61 519.989 639.18 519.989ZM631.746 543.208C630.723 542.785 629.552 544.629 625.512 553.028C621.349 561.687 614.911 573.161 608.509 583.332C607.163 585.471 607.167 585.488 609.438 587.32C610.693 588.332 611.897 589.161 612.114 589.163C612.331 589.165 614.726 585.579 617.435 581.193C620.145 576.807 622.533 573.232 622.742 573.248C622.951 573.264 635.95 581.081 651.63 590.62C667.309 600.158 680.374 607.83 680.664 607.669C681.38 607.271 687.586 595.973 687.248 595.686C687.1 595.56 673.808 588.169 657.711 579.261C641.614 570.353 628.353 563.003 628.241 562.927C628.13 562.852 629.751 559.231 631.842 554.883C635.984 546.27 636.349 544.69 634.335 544.111C633.603 543.9 632.438 543.494 631.746 543.208ZM173.154 557.239C174.501 557.239 177.549 562.734 176.771 563.762C176.415 564.232 174.084 567.313 171.592 570.608C164.111 580.496 161.081 586.998 160.993 593.349C160.915 599.045 161.443 600.063 166.036 603.041C170.694 606.062 179.271 603.528 193.86 594.82C197.965 592.37 198.129 592.439 203.787 599.013C209.168 605.264 209.257 605.578 205.961 606.55C204.602 606.951 198.054 609.344 191.409 611.87C184.764 614.395 178.276 616.692 176.99 616.974C175.705 617.257 174.129 617.762 173.488 618.097C170.729 619.538 161.382 621.982 153.317 623.371C149.25 624.071 142.054 624.193 139.751 623.599C132.66 621.771 134.348 614.052 145.91 595.441C148.312 591.574 150.79 587.806 151.417 587.068C152.044 586.33 153.043 584.79 153.636 583.646C154.23 582.502 154.999 581.566 155.347 581.566C155.694 581.566 155.978 581.16 155.978 580.664C155.978 580.169 156.623 579.057 157.411 578.194C158.199 577.33 160.696 573.887 162.961 570.543C170.13 559.953 172.21 557.239 173.154 557.239ZM183.117 574.256C183.631 574.043 184.324 574.635 185.869 576.376C190.795 581.927 190.883 582.635 187.075 586.078C185.233 587.743 183.298 589.119 182.775 589.136C182.252 589.154 181.825 589.468 181.825 589.834C181.825 590.201 180.136 591.227 178.073 592.115C173.877 593.92 173.51 593.977 172.051 593.052C170.269 591.923 172.133 588.078 177.644 581.508C179.73 579.02 180.387 578.126 182.637 574.724C182.794 574.487 182.945 574.327 183.117 574.256ZM603.011 597.758C600.505 597.103 597.105 599.695 591.115 606.826C587.858 610.703 581.925 617.401 577.93 621.712C570.165 630.093 568.535 632.468 568.91 634.858C569.041 635.69 579.223 647.302 591.536 660.662C616.64 687.898 615.495 687.07 622.041 682.718C625.704 680.284 640.556 664.397 649.613 653.226C655.452 646.025 657.435 642.046 656.647 639.111C656.185 637.393 605.685 598.458 603.011 597.758ZM598.555 608.388C598.841 608.478 609.683 617.253 622.647 627.886L646.218 647.219L643.153 651.072C641.468 653.191 636.295 659.116 631.658 664.237C627.021 669.359 623.03 673.55 622.789 673.55C622.549 673.55 612.545 663.715 600.558 651.694L578.763 629.838L585.951 622.282C589.904 618.127 594.24 613.263 595.587 611.475C596.934 609.686 598.269 608.297 598.555 608.388ZM551.803 648.475C549.018 648.46 548.049 649.01 537.219 656.766C532.202 660.359 524.739 665.302 520.636 667.749C514.891 671.174 513.284 672.483 513.648 673.443C514.073 674.561 544.761 728.851 548.423 734.963L549.918 737.46L553.452 735.407C568.189 726.847 589.919 711.744 593.709 707.428C597.084 703.584 597.492 701.339 595.343 698.433C590.581 691.992 577.578 676.423 576.668 676.074C576.098 675.855 573.352 676.743 570.566 678.047C567.779 679.351 565.397 680.316 565.272 680.191C565.148 680.067 566.376 678.28 568 676.221C572.545 670.459 572.623 670.762 563.644 659.609C554.572 648.343 554.729 648.491 551.803 648.475ZM213.293 650.472C213.019 650.504 212.801 650.638 212.594 650.854C210.731 652.784 174.013 707.375 173.927 708.341C173.881 708.87 176.408 711.333 179.544 713.817C182.68 716.301 185.564 718.242 185.952 718.132C186.573 717.955 222.606 659.916 223.306 657.966C223.456 657.548 221.331 655.545 218.583 653.515C215.451 651.2 214.116 650.376 213.293 650.472ZM547.366 657.644L553.506 665.871C556.882 670.396 559.645 674.378 559.645 674.721C559.645 676.902 552.843 685.381 549.065 687.911C546.73 689.474 543.609 691.484 542.128 692.378L539.434 694.006L532.774 683.275C527.407 674.629 526.308 672.371 527.106 671.646C527.651 671.152 532.432 667.798 537.731 664.194L547.366 657.644ZM242.758 670.509C241.733 670.509 209.759 733.438 210.322 734.348C211.458 736.187 233.122 747.755 247.582 754.244C253.018 756.683 257.866 758.681 258.356 758.685C259.165 758.691 261.396 753.52 260.771 753.085C260.625 752.983 257.085 751.42 252.904 749.612C245.164 746.265 225.916 736.836 225.916 736.391C225.916 736.075 236.41 713.176 236.971 712.27C237.204 711.893 240.884 713.339 245.149 715.486C249.414 717.632 255.811 720.695 259.365 722.291L265.827 725.192L266.743 723.126C268.273 719.678 267.94 719.221 261.888 716.463C251.142 711.566 240.36 705.933 240.36 705.216C240.36 703.963 250.49 681.864 250.945 682.123C253.685 683.68 274.124 693.371 276.261 694.126C279.569 695.295 279.602 695.276 280.258 691.767L280.759 689.079L276.333 687.275C270.455 684.879 254.926 677.146 248.59 673.461C245.8 671.838 243.175 670.509 242.758 670.509ZM495.499 683.566C493.077 683.2 489.402 684.206 483.427 686.757C479.146 688.585 470.892 691.726 465.086 693.735C454.583 697.371 450.175 699.908 450.176 702.316C450.176 703.01 454.23 717.775 459.183 735.126C467.17 763.108 468.394 766.78 470.014 767.613C474.178 769.753 483.159 767.391 507.337 757.793C522.189 751.897 526.956 748.806 526.956 745.073C526.956 742.585 499.422 685.774 497.542 684.383C496.974 683.963 496.306 683.688 495.499 683.566ZM569.483 686.663L577.09 696.793L584.695 706.922L578.441 711.403C575.002 713.867 569.536 717.658 566.294 719.827C563.052 721.997 559.932 723.952 559.36 724.172C558.659 724.44 556.134 721.02 551.626 713.695C547.944 707.713 544.472 702.097 543.911 701.217C542.946 699.705 543.28 699.362 549.975 694.947C555.044 691.604 558.824 689.762 563.271 688.469L569.483 686.663ZM489.248 691.922C489.749 692.657 513.201 746.311 513.408 747.196C513.68 748.359 508.519 750.689 493.867 756.016C482.061 760.307 480.699 760.639 480.21 759.343C479.736 758.087 461.579 702.145 461.579 701.94C461.579 701.86 462.862 701.388 464.43 700.89C465.998 700.393 472.184 698.114 478.177 695.827C484.171 693.541 489.153 691.784 489.248 691.922ZM297.739 695.74C297.609 695.87 294.856 706.239 291.622 718.782C288.388 731.325 284.289 747.062 282.513 753.751C280.737 760.441 279.511 766.16 279.79 766.459C280.702 767.441 303.66 773.728 314.893 776.073C328.423 778.898 328.405 778.897 328.977 776.617C330 772.541 329.666 772.353 316.761 769.721C302.94 766.903 295.095 764.835 295.095 764.01C295.095 763.699 298.173 749.29 301.934 731.99C305.695 714.691 308.774 700.143 308.776 699.661C308.779 698.878 298.317 695.161 297.739 695.74ZM427.198 704.5C424.921 704.383 421.51 704.738 415.967 705.513C410.323 706.302 400.615 707.288 394.395 707.704C388.174 708.12 382.926 708.617 382.733 708.81C382.357 709.187 385.481 780.532 385.937 781.989C386.173 782.74 398.967 782.614 399.866 781.852C400 781.739 398.839 766.696 397.286 748.425C394.148 711.517 393.98 713.874 399.743 713.853C401.481 713.846 407.07 713.3 412.161 712.639C417.253 711.979 421.531 711.551 421.667 711.689C422.033 712.061 426.512 736.989 426.259 737.247C426.14 737.368 421.466 738.017 415.873 738.688C410.28 739.359 405.249 740.325 404.693 740.835C403.868 741.593 404.737 743.031 409.418 748.656C415.168 755.565 432.863 774.889 435.221 776.835C436.519 777.906 439.44 777.715 447.389 776.039L451.064 775.264L442.448 767.182C432.678 758.019 420.592 745.673 420.553 744.819C420.539 744.505 421.538 744.249 422.772 744.249C425.938 744.249 432.687 742.739 435.155 741.48C439.758 739.129 439.792 738.52 436.194 722.394C434.216 713.527 432.414 707.194 431.624 706.32C430.617 705.208 429.475 704.617 427.198 704.5Z" fill="white"/>
</svg>
