<?xml version="1.0" encoding="UTF-8"?><svg id="Layer_1" xmlns="http://www.w3.org/2000/svg" viewBox="0 0 814 814"><defs><style>.cls-1{fill:#edc702;}</style></defs><rect width="814" height="814" rx="150" ry="150"/><path class="cls-1" d="m366.08,56.92c-.48-.17-1.2.2-1.6.83-.41.64-.7,54.59-.68,122.96.04,116.22-.02,121.88-1.43,122.91-1.38,1.01-1.55.59-2.49-5.89-2.73-18.9-8.2-33.31-15.91-41.92l-3.96-4.42-3.83,3.14c-2.11,1.73-3.83,3.35-3.83,3.59s1.31,2.24,2.92,4.43c4.3,5.86,9.06,16.62,11.48,25.95,2.69,10.39,2.85,22.39.48,37.59-2.55,16.39.82,27.97,11.37,39.02l4.57,4.8h-7.46c-5.61,0-7.71.31-8.48,1.23-1.26,1.52-.32,39.04,1.01,40.69.63.77,5.86,1.03,20.98,1.03h20.14v11.17l-5.4,3.66c-3.07,2.08-5.3,4.17-5.16,4.83.13.64,3.11,2.36,6.62,3.82,3.51,1.46,6.59,2.85,6.85,3.11.26.26-2.61,1.53-6.38,2.84-9.26,3.22-9.33,4.36-.5,7.59l6.86,2.5-3.3,1.38c-12.6,5.28-12.69,5.5-3.4,8.99,7.19,2.71,7.18,2.84-.52,5.49-8.15,2.81-7.66,3.97,3.51,8.26,5,1.92,9.09,3.75,9.09,4.05s-1.67,1.73-3.72,3.17l-3.72,2.62v17.21l-17.97,7.29-17.97,7.28-11.57.44c-10.93.42-11.58.54-11.81,2.17-.14.95.33,2.2,1.03,2.78.7.58,1.27,1.48,1.26,2-.02.71-21.06,9.34-40.54,16.63-1.04.39-2.04-1.31-4.73-8.07-14.48-36.35-7.36-81.33,18.31-115.64l4.17-5.58h15.37c10.85,0,15.66-.29,16.36-.99.72-.72.99-6.54.99-20.98,0-23.14,1.06-20.99-10.31-20.99-6.25,0-7.79-.24-8.19-1.31-.28-.72-.5-24.7-.5-53.29s-.32-51.98-.73-51.98c-.93,0-11.16,6.76-11.52,7.62-.15.36-.71.65-1.24.65-.92,0-9.34,5.86-12.26,8.52-.76.69-2.13,1.66-3.03,2.14-.91.49-2.15,1.36-2.75,1.95-.6.59-2.89,2.11-5.08,3.38-2.19,1.27-5.09,3.47-6.44,4.89l-2.46,2.57.53,18.22c.29,10.02.59,26.77.66,37.22l.13,19-7.84.24c-4.31.13-8.22.61-8.67,1.07-.49.49-1.01,8.92-1.25,20.41-.41,19.31-.44,19.63-2.54,22.89-4.66,7.24-7.16,11.84-9.64,17.8-2.79,6.7-7.94,25.72-8.88,32.81-.63,4.76-.42,4.62-8.27,5.57-4.86.59-12.78,2-17.11,3.03-4,.96-4.09,1.5-3.79,24.23l.24,18.18,4.13.52c2.27.28,5.62.91,7.44,1.39,1.82.48,5.53,1.13,8.26,1.44,7.58.87,7.71,1.01,10.39,10.28,1.35,4.69,1.24,4.32,1.78,5.78.25.68,1.11,3.47,1.91,6.2.8,2.73,1.95,5.69,2.56,6.59,1.41,2.07,1.41,3.34-.01,4.71-5.84,5.64-10.96,10.15-15.91,13.99l-5.89,4.57,3.69,7.37c2.03,4.06,5.6,10.54,7.92,14.4,4.48,7.45,4.41,7.34,7.49,11.13l2,2.46,6.49-2.22c3.57-1.22,9.95-3.44,14.19-4.94l7.7-2.72,2.83,3.09c1.56,1.7,2.84,3.39,2.84,3.76,0,.8-11.66,8.32-21.41,13.8l-6.95,3.91-1.53-1.95c-1.55-1.98-8.67-12.24-10.18-14.67-.45-.73-1.05-1.52-1.33-1.74-1.43-1.17-15.33-26.01-18.42-32.92-15.49-34.65-19.45-74.42-11.19-112.48.94-4.32,2.04-9.43,2.46-11.36.88-4.06,5.49-18.1,6.64-20.22.43-.79.78-1.85.78-2.36,0-3.48,16.51-33.03,24.19-43.28,3.36-4.48,22.61-24.33,29.36-30.46.11-.31.21-.63.28-.96,0-.03.01-.07.02-.1-.04-.69-.07-1.37-.06-2.06,0-1.41,0-2.83,0-4.24,0-1.36,0-2.72.03-4.08.02-1.02.07-2.04.11-3.05-.07-.13-.15-.26-.29-.34-.15-.08-.24-.11-.42-.06-.18.04-.36.08-.54.14-5.16,4.02-13.42,11.26-19.24,17.15-8.52,8.63-11.37,11.89-17.4,19.95-2.99,4-6.18,8.21-7.07,9.34-.9,1.14-2.79,4.11-4.2,6.61-1.41,2.5-3.02,5.1-3.56,5.78-2.59,3.21-12.92,25.11-14.89,31.54-.74,2.42-1.72,5.33-2.18,6.46-1.64,4.04-3.2,9.04-3.93,12.55-.4,1.96-1.52,7.15-2.49,11.53-.97,4.38-1.69,8.29-1.6,8.67.09.39-.06,1.26-.33,1.95-1.77,4.42-1.77,52.59,0,57,.27.68.42,1.71.32,2.29-.15.95,2.42,13.3,5.12,24.56,5.1,21.25,20.83,52.05,37.36,73.11,8.66,11.03,31.64,33.28,37.57,36.36,1.14.59,3.55,2.26,5.37,3.71,1.82,1.45,3.86,2.89,4.54,3.21,1.31.61,2.5,1.32,7.85,4.69,4.72,2.98,25.65,13.16,27.05,13.16.65,0,1.43.26,1.74.57.95.95,16.53,6.18,21.19,7.12,1.14.23,5.41,1.21,9.5,2.17,34.57,8.16,80.51,5.43,114.42-6.78,6.78-2.44,7-2.54,18.58-8.11,32.07-15.42,57.74-37.85,78.69-68.74,3.75-5.53,6.82-10.49,6.82-11.03s.49-1.47,1.08-2.07c2.95-2.97,17.09-35.1,17.09-38.82,0-.78.3-1.61.68-1.84.37-.23,1.54-4.06,2.6-8.52,1.05-4.45,2.12-8.66,2.36-9.34.56-1.56.59-1.69,2.69-13.63,2.99-16.92,2.23-64.45-1.29-80.89l-1.22-5.71,3.6-4.2c5.47-6.39,31.15-32.7,31.91-32.7.37,0,1.66,3.07,2.87,6.82,1.21,3.75,2.48,7.56,2.83,8.47,3.13,8.1,6.84,22.09,8.77,33.05.72,4.09,1.71,9.67,2.21,12.39,1.25,6.89,1.18,54.62-.09,61.55-.54,2.95-1.13,6.48-1.32,7.85-.66,4.89-3.96,21.51-4.59,23.13-.35.91-1.02,3.14-1.48,4.96-3.16,12.42-9.17,28.88-15.47,42.41-1.56,3.34-2.83,6.18-2.83,6.33,0,.43-12.2,21.62-14.4,25.01-5.66,8.72-13.6,19.52-17.41,23.67-.91.99-3.33,3.81-5.37,6.27-19.06,22.91-51.48,46.34-84.12,60.82-15.99,7.09-29.7,11.39-53.43,16.77-22.52,5.11-69.44,4.93-94.3-.35-14.53-3.09-30.25-7.29-35.4-9.46-.91-.38-3.51-1.35-5.78-2.14-2.27-.79-5.8-2.15-7.85-3.02-2.05-.87-4.46-1.9-5.37-2.29-2.06-.87-19.78-9.68-23.13-11.5-2.61-1.41-9.31-5.65-16.94-10.71-5.64-3.74-5.03-3.29-16.18-12.1-12.57-9.94-31.02-28.52-38.55-38.81-.34-.46-1.82-2.37-3.3-4.24-1.48-1.87-3.25-4.24-3.93-5.26-.68-1.02-2.38-3.39-3.77-5.27-2.31-3.11-6.83-10.32-10.44-16.63-5.4-9.44-17.66-35.94-16.62-35.94.26,0,.11-.46-.32-1.03-.72-.95-1.83-3.93-4.23-11.38-2.79-8.65-5.65-21.15-7.19-31.37-.65-4.32-1.57-10.27-2.05-13.22-1.62-9.99-1.92-39-.53-51.22,1.95-17.16,3.11-25.06,3.92-26.63.41-.79.74-2.4.74-3.58,0-4.62,8.78-33.05,14.02-45.38,3.63-8.55,14.76-31.08,15.71-31.81.3-.23.8-.97,1.13-1.65.83-1.73,2.01-3.64,6.62-10.71,26.13-40.07,65.17-71.97,111.22-90.88,2.5-1.03,5.11-2.15,5.81-2.49.7-.34,2.55-.9,4.13-1.24,1.57-.34,3.24-.89,3.69-1.23.45-.34,1.9-.87,3.22-1.19l2.39-.57-2.8-2.9c-1.54-1.6-4.03-3.66-5.53-4.6l-2.73-1.69-8.83,3.53c-7.94,3.17-26.12,12.09-32.94,16.17-10.36,6.19-15.41,9.41-20.48,13.04-26.99,19.36-51.53,43.91-68.22,68.25-2.02,2.95-3.96,5.49-4.3,5.65-.34.15-.62.6-.62.99s-1.08,2.31-2.39,4.27c-3.93,5.86-13.18,23.47-16.94,32.26-.73,1.7-1.85,4.31-2.5,5.78-2.43,5.56-4.76,11.84-5.87,15.87-.64,2.29-2.11,7.44-3.28,11.44-6.51,22.32-9.86,58.85-7.9,86.08.46,6.36.86,12.31.88,13.22.04,1.53,2.22,15.71,4.18,27.26,2.59,15.24,12.04,42.74,19.95,58.09,1.54,2.98,2.01,4.7,1.46,5.37-.44.54-2.11,2.65-3.71,4.7-1.6,2.05-3.2,4.09-3.56,4.54-.36.45-3.01,3.99-5.9,7.85-2.89,3.86-6.31,8.4-7.6,10.07-1.29,1.68-2.35,3.26-2.35,3.52s-1.3,2.32-2.89,4.58c-1.59,2.26-2.89,4.4-2.89,4.75s-1.24,2.49-2.75,4.76c-8.83,13.21-12.95,23.16-13.48,32.62-.43,7.62.86,11.75,4.26,13.57.91.49,1.86,1.17,2.12,1.52,1.26,1.7,11.13,2.45,20.9,1.58,13.44-1.18,41.53-8.44,55.46-14.32,4.3-1.82,17.45-6.48,18.28-6.49.51,0,1.4.57,1.98,1.26.58.7,5.51,4.62,10.95,8.73,43.92,33.08,88.25,51.15,137.73,56.14,4.32.43,8.22.95,8.67,1.14,1.55.65,43.76-.27,49.98-1.09,12.39-1.62,17.91-2.55,25.2-4.23,12.89-2.98,24.9-6.29,27.04-7.46.79-.43,1.83-.78,2.31-.78s5.6-1.88,11.37-4.18c16.97-6.75,31.52-14.39,46.36-24.35,3.37-2.26,6.71-4.48,7.43-4.93.72-.45,1.5-1.03,1.72-1.29.23-.25,3.57-2.85,7.44-5.77,21.09-15.94,36.81-32.27,56.83-59.04,1.45-1.94,6.79-10.4,10.43-16.52,2.16-3.64,4.28-7.17,4.7-7.85.83-1.34,8.75-17.61,10.85-22.31,3.15-7.03,5.5-13.25,7.19-19,1-3.41,2.14-6.94,2.54-7.85,1.69-3.87,5.63-20.98,6.36-27.68.23-2.04.74-4.13,1.15-4.63.41-.5.69-1.8.63-2.89-.06-1.09.38-6.07.97-11.07.6-5,1.1-16.52,1.11-25.61.02-14.14-.38-20.36-2.44-38-.16-1.36-.64-4.52-1.07-7.02-.43-2.5-1-5.84-1.26-7.43-.26-1.59-1.4-6.58-2.52-11.09-1.82-7.32-1.91-8.42-.86-10.33,2.15-3.89,8.41-17.69,12.78-28.15,2.37-5.68,4.62-11.07,5.01-11.98.38-.91,1.5-3.7,2.47-6.2.97-2.5,2.15-5.47,2.61-6.61,3.05-7.55,13.57-41.53,15.47-49.98.51-2.27,1.66-7.17,2.57-10.89.9-3.72,2-8.93,2.43-11.57,5.88-35.76,6.64-44.42,6.64-76.26,0-15.39-.32-28.19-.72-28.44-.4-.25-14.99,13.77-32.43,31.14-28.75,28.64-41.21,40.57-49.47,47.37-1.59,1.31-3.26,2.8-3.72,3.31-.45.51-3.8,3.46-7.44,6.55-3.63,3.09-9.03,7.81-11.98,10.48-9.06,8.2-15.92,13.85-16.82,13.85-.26,0-1.74-1.21-3.29-2.69-9.19-8.78-31.3-26.14-38.38-30.15-1-.57-2.66-1.5-3.68-2.07-1.02-.57-2.04-1.24-2.27-1.49-2.56-2.83-38.08-19.78-41.45-19.78-.65,0-1.53-.33-1.96-.72-2.59-2.38-39.75-11.67-46.69-11.67-2.99,0-3.25.22-5.16,4.34-2.42,5.22-2.21,5.52,4.49,6.4,7.43.97,14.15,2.46,26.74,5.93,13.65,3.76,35.18,12.99,49.16,21.07,2.47,1.43,14.7,9.46,21.48,14.11,10.58,7.25,35,29.14,43.6,39.08l1.83,2.12-1.86,2.56c-1.02,1.41-2.41,3.38-3.09,4.38s-3.18,4.48-5.56,7.72c-5.56,7.59-5.83,7.97-11.42,15.81-2.59,3.64-5.13,6.88-5.64,7.22s-6.27.61-12.81.62h-11.88s.56-2.67.56-2.67c3.24-15.46,3.57-22.77,1.38-30.68-2.58-9.32-1.41-9.25-22.14-1.32-9.91,3.79-18.43,7.2-18.93,7.58-.51.38-1.11,3.07-1.35,5.98-.47,5.89-2.86,11.67-4.76,11.54-.68-.05-5.65-3.18-11.05-6.96-7.78-5.45-10.08-6.69-11.15-6.02-2.62,1.64-1.84,3.97,3.91,11.84,3.16,4.31,5.41,7.96,5.01,8.11-.4.15-2.79-.33-5.3-1.06-14.63-4.25-15.91-28.23-1.86-34.77,7.68-3.58,13.77-2.16,20.4,4.74l3.33,3.46,18.32-7.39c23.4-9.43,22.36-8.58,18.16-14.84-13.75-20.48-28.92-30.1-49.68-31.52-25.67-1.76-52.3,17.1-60.88,43.1-2.8,8.48-3.39,31.79-.94,36.56l1.38,2.69h-10.61v-87.21l4.99-4.93c12.24-12.09,23.29-33.26,29.04-55.63,6.34-24.68,3.03-44.53-11.66-69.95-5.99-10.36-63.1-93.09-64.64-93.63Zm42.63,81.88c.39-.39,10.4,12.54,12.62,16.32,3.21,5.45,9.19,20.24,10.92,26.99,4.67,18.31-1.43,46.1-14.88,67.7-9.64,15.48-9,15.58-9.03-1.36-.08-50.43.12-109.39.38-109.65Zm-144.9,55.33c-1.48-.13-1.68,1.39-1.68,4.45,0,4.98-.07,4.88,10.28,13.73l2.43,2.08-4.29,5.39c-4.93,6.19-4.96,6.31-2.31,8.79,1.6,1.51,2.15,1.65,2.89.76.5-.6,2.66-3.22,4.79-5.81l3.87-4.72,1.33,2.24c.73,1.23,4.81,8.47,9.08,16.08,5.19,9.26,8.21,13.84,9.13,13.84.77,0,3.12-2.52,5.34-5.75l3.96-5.75,6.29,4.88c3.46,2.68,7.59,6,9.18,7.37,1.59,1.37,3.38,2.5,3.97,2.52,1.49.05,7.59-4.96,7.59-6.23,0-.57-4.37-4.63-9.71-9.02-5.34-4.39-9.82-8.3-9.96-8.68-.14-.38,1.45-3.26,3.54-6.4,5.11-7.68,4.77-8.37-4.73-9.74-3.82-.55-3.92-.64-3.92-3.44,0-2.18.4-2.98,1.65-3.31,1.98-.52,2.06-1.55.4-5.51-1.52-3.65-2.13-3.71-4.87-.45-2.32,2.75-2.59,3.69-1.31,4.48.85.53,1.16,5.58.39,6.36-.48.48-6.82-.53-7.48-1.2-.91-.91.81-4.98,2.25-5.36,1.9-.5,1.93-1.8.14-5.55-1.71-3.58-2.8-3.66-5.56-.38-2.45,2.91-2.65,3.92-.9,4.6,1.34.51,1.63,3.35.53,5.09-.63.99-9.2.63-9.2-.39,0-.19,1.56-2.4,3.46-4.92,3.61-4.78,3.67-6.07.36-8.1-1.48-.91-2.36-.13-7.66,6.73l-1.77,2.29-8.14-5.57c-5.11-3.5-7.87-5.27-9.35-5.4Zm27.56,25.66c.53-.53,16.54,2.27,17.93,3.13.76.47-.27,2.16-3.72,6.08-2.62,2.99-4.92,5.43-5.11,5.43-.66,0-9.52-14.24-9.11-14.65Zm401.36,2.34c.3-.11.47,0,.52.29.26,1.35-1.24,29.09-2.05,38.04-.59,6.48-2.73,21.59-4.04,28.5-.73,3.86-1.77,9.51-2.32,12.54-.54,3.04-1.26,5.79-1.6,6.13-.33.33-.61,1.62-.61,2.86s-.75,4.8-1.68,7.92c-.92,3.12-2.24,7.71-2.92,10.21-2.58,9.44-8.36,28.36-9.47,30.98-.38.91-.95,2.58-1.26,3.72-.31,1.14-1.03,3.18-1.61,4.54-.58,1.36-1.9,4.89-2.93,7.85-1.03,2.95-2.19,5.72-2.57,6.15-.38.43-.7,1.31-.7,1.94s-.5,2.33-1.12,3.76c-.61,1.43-1.9,4.46-2.85,6.73-4.7,11.2-6.99,16.54-7.17,16.75-.11.13-1.2-2.66-2.43-6.2-1.23-3.53-2.77-7.6-3.42-9.03-.65-1.43-1.18-2.86-1.18-3.17s-1.11-2.98-2.48-5.92c-1.36-2.95-2.48-5.68-2.48-6.07,0-2.44-2.42-1.1-6.87,3.83-23.56,26.02-60.06,63.18-78.22,79.63-5.68,5.14-12.56,11.43-15.28,13.97s-6.07,5.49-7.44,6.55c-1.36,1.06-4.36,3.66-6.66,5.77-4.04,3.72-6.39,5.72-17.2,14.62-2.78,2.29-8.4,6.93-12.48,10.33s-10.41,8.4-14.04,11.11c-3.64,2.71-8.7,6.71-11.27,8.88-2.56,2.17-4.92,3.94-5.25,3.94s-2.32,1.41-4.43,3.14c-3.35,2.74-11.57,8.77-24.78,18.18-2.11,1.5-6.44,4.46-9.62,6.58-3.18,2.11-5.97,4.07-6.2,4.35-.23.27-5.06,3.54-10.74,7.24-5.68,3.71-10.7,7.03-11.15,7.39-.46.36-4.92,3.21-9.91,6.34-5,3.13-11.88,7.45-15.28,9.59-9.69,6.09-27.09,16.5-27.58,16.5-.24,0-2.41,1.17-4.81,2.61-2.41,1.43-6.79,3.92-9.74,5.52-2.95,1.6-6.48,3.58-7.85,4.41-1.36.82-4.52,2.52-7.02,3.78-2.5,1.25-4.73,2.47-4.96,2.69-.23.23-3.2,1.86-6.61,3.62-3.41,1.77-8.13,4.28-10.49,5.58-5.35,2.95-4.81,2.99-10.76-.86-7.2-4.65-15.9-13.37-15.92-15.95,0-.32,1.76-1.6,3.92-2.84,3.5-2.01,16.18-9.75,20.47-12.48.89-.57,2.19-1.29,2.87-1.59.68-.3,1.43-.77,1.65-1.03.51-.59,7.23-4.98,9.5-6.21,4.64-2.5,50.43-32.95,60.85-40.46,2.57-1.85,5.49-3.93,6.49-4.61,1-.68,4.96-3.56,8.79-6.4,3.84-2.84,7.33-5.16,7.76-5.16s.78-.29.78-.65,3.62-3.24,8.05-6.4c4.43-3.16,9.36-6.87,10.95-8.23,1.59-1.36,3.49-2.85,4.23-3.31.73-.45,6.68-5.13,13.22-10.39,12.05-9.7,13.21-10.66,20.93-17.28,2.38-2.05,5.23-4.43,6.32-5.3,10.12-8.09,32.09-28.33,50.62-46.65,25.05-24.76,53.54-56.19,65.62-72.38.34-.45,3.1-3.99,6.13-7.85,3.03-3.86,6.56-8.41,7.83-10.11,1.27-1.7,3-3.93,3.84-4.96.84-1.03,2.8-3.72,4.36-6,1.56-2.27,4.49-6.36,6.51-9.09,7.65-10.31,7.66-10.03-.44-18.95l-5.2-5.74,4.14-3.76c2.27-2.07,5.9-5.25,8.06-7.07,2.16-1.82,6.05-5.16,8.65-7.44,2.6-2.27,5.63-4.87,6.75-5.78,2.21-1.81,17.03-14.4,21-17.85,9.02-7.84,13.26-11.68,19.83-17.99,4.09-3.93,10.18-9.55,13.54-12.5,3.36-2.95,9.49-9.24,13.63-13.99,4.23-4.86,6.39-7.07,7.29-7.39Zm-280.66,12.72l-.25,4.87c-.14,2.67-.05,5.39.2,6.04,1.51,3.94,9.37-2.85,9.78-8.45l.18-2.46h-9.91Zm-57.16,3c-6.09.51-17.18,2.82-17.41,4.05-.13.69,1.48,3.57,3.58,6.4,2.1,2.83,4.18,5.14,4.62,5.14s3.4-.43,6.6-.96c4.93-.81,5.92-1.26,6.56-2.95,1.03-2.7.96-10.43-.11-11.5-.33-.33-1.81-.36-3.84-.19Zm58.51,53.42c-.6.2-.94,2.82-.94,7.29,0,7.74-.22,7.44,6.32,8.54,7.91,1.33,8.77,1.14,12.32-2.65,6.8-7.26,7.33-8.02,6.33-9.02-.99-.99-22.41-4.7-24.03-4.16Zm-71.31,7.23c-2.04.3-5.28,1.63-10.38,3.79l-3.51,1.49v6.47c0,3.66.4,6.87.92,7.4.68.68,2.92.2,8.47-1.81l7.55-2.73.21-6.5c.2-6.23.14-8.61-3.26-8.11Zm20.04,23.88c.45-.28.76,5.72.76,14.86,0,8.43-.18,15.33-.4,15.33-1.42,0-4.04-7.74-4.38-12.91-.38-5.84,1.99-16.03,4.01-17.29Zm180.2,30.29c-1.04.05-1.48,1.64-2.27,6.35-1.11,6.61-.91,7.41,1.96,7.85,5.98.92,12.59.57,13.07-.69.5-1.3-8.52-11.59-11.48-13.11-.51-.26-.93-.42-1.28-.4Zm-143.09,60.2l42.68.21,42.68.22,7.24,9.91,7.24,9.91-21.4,20.91c-12.94,12.64-29.37,27.59-41.55,37.8-11.08,9.29-20.66,16.86-21.29,16.83-.63-.03-4.3-1.28-8.16-2.78l-7.02-2.72-.22-7.76-.22-7.76,5.77-3.55c8.54-5.25,8.53-5.73-.31-9.23-2.9-1.15-5.4-2.41-5.56-2.8-.16-.39,2.5-1.72,5.91-2.95,8.37-3.03,8.36-4.12-.02-7.5-7.44-3-7.43-3.12.63-5.82,8.2-2.75,7.96-3.7-2.03-7.85l-6.43-2.67,6.61-2.01c5.26-1.6,6.66-2.36,6.86-3.72.22-1.47-.89-2.15-7.85-4.81-10.05-3.84-10.11-3.9-6.51-6.12l2.95-1.83v-13.92Zm186.66,38.02c2.56,0,3.98,53.16,1.81,68.16-1.93,13.39-2.52,16.65-4.13,22.72-.9,3.41-2.07,7.87-2.6,9.91-.53,2.04-1.26,4.46-1.63,5.37-.37.91-1.31,3.51-2.1,5.78-3.69,10.66-12.64,28.53-20.03,40.01-1.59,2.47-3.21,4.88-3.6,5.37-.39.48-3.2,4.04-6.24,7.9-7.76,9.86-16.51,18.77-27.27,27.78-5.09,4.26-9.49,7.74-9.79,7.74s-1.9,1.05-3.56,2.33c-9.37,7.26-31.52,18.28-45.97,22.86-5.45,1.73-10.66,3.42-11.57,3.76-1.89.7-11.89,2.75-22.5,4.62-8.53,1.5-38.3,2.2-46.89,1.1-3.18-.41-8.94-1.32-12.81-2.04-3.86-.72-9.61-1.69-12.78-2.16-3.17-.47-6.44-1.23-7.28-1.67-.84-.45-5.5-2.24-10.35-3.98-4.86-1.74-11.68-4.48-15.17-6.09-3.49-1.61-7.95-3.35-9.91-3.88-3.35-.89-17.15-8.89-17.19-9.96,0-.27.92-.92,2.07-1.44,1.79-.82,2.58-.65,5.48,1.19,3.36,2.12,20.78,11.07,21.55,11.07.22,0,1.34-1.39,2.49-3.1,1.15-1.7,3.53-4.58,5.3-6.4,1.77-1.82,4.84-5.46,6.83-8.09,3.93-5.2,4.68-5.38,11.2-2.61,4.3,1.82,17.26,5.36,19.6,5.35,2.63-.01,3.56,1.43,4.26,6.6,2.14,15.76,3.36,21.5,4.77,22.39.62.39,9.75.72,20.3.73,22.14.01,20.29.8,21.7-9.19,1.2-8.45,3.39-18.28,4.36-19.51.45-.57,1.86-1.03,3.15-1.03s3.19-.34,4.24-.75c1.04-.41,4.13-1.38,6.85-2.15,2.73-.77,7.15-2.17,9.82-3.12l4.86-1.72,2.35,2.84c7.25,8.76,11.37,13.65,13.94,16.58l2.89,3.28,5.37-2.5c8.67-4.04,29.74-16.6,29.74-17.73,0-.89-2.78-9.36-3.29-10.01-.35-.45-1.48-3.53-2.52-6.84-1.03-3.31-2.2-6.21-2.58-6.45-2.25-1.39-.55-5.18,4.16-9.28,2.68-2.33,7.77-7.06,11.31-10.52,4.82-4.7,6.88-6.18,8.15-5.89.93.22,7.02,2.25,13.52,4.51l11.82,4.12,3.09-4.24c4.62-6.33,8.21-12.36,13.06-21.97l4.37-8.64-1.74-1.86c-.96-1.02-3.8-3.45-6.32-5.4-2.52-1.95-6.4-5.2-8.63-7.23-4.58-4.17-4.53-3.6-1.28-14.9,2.83-9.81,3.97-14.59,3.98-16.74.03-4.71,1.59-5.85,9.5-6.98,4.08-.58,10.03-1.54,13.21-2.14l5.78-1.08.56-3.67c.73-4.81.82-23.64.15-31.57l-.53-6.25-3.58-.9c-1.97-.5-3.87-.82-4.22-.72s-2.93-.31-5.73-.92l-5.09-1.1,7.97-7.55c4.39-4.15,9.03-8.57,10.32-9.82,1.29-1.25,2.64-2.27,3-2.27Zm-70.27,62.25c.12.31-.02,1.22-.31,3.02-.84,5.15-3.62,16.59-4.52,18.59-.41.91-1.36,3.6-2.11,5.99-.75,2.39-1.61,4.3-1.92,4.26-.54-.07-17.08-6.87-18.73-7.69-.45-.23.45-1.45,2.01-2.73,2.28-1.86,16.94-14.39,24.32-20.8.75-.65,1.13-.95,1.25-.64Zm-114.69,1.88c.47.07,1.07.24,1.82.5l2.55.89-2.41,1.93c-3.12,2.5-3.65,2.44-3.65-.4,0-2.34.28-3.12,1.7-2.92Zm-11.45.59c.59.22.67,1.67.67,6.12v6.58l-10.95,8.27c-6.02,4.55-21.17,15.32-33.66,23.93-12.5,8.61-23.19,15.94-23.77,16.28-1.17.69-15.57-13.27-21.55-20.9l-3.5-4.46,18.79-7.31c10.34-4.02,19.44-7.51,20.23-7.76,1.16-.37,1.48.13,1.69,2.62.14,1.69.63,3.19,1.08,3.33.45.14,4.36-2.87,8.67-6.7l7.85-6.96,16.11-6.17c8.86-3.39,16.76-6.43,17.56-6.75.33-.13.58-.19.78-.12Zm84.98,29.39c1.43-.32,4.1.63,13.48,4.13,7.16,2.67,13.24,5.08,13.51,5.35,1.44,1.44-10.29,15.38-18.86,22.39-12,9.82-31.93,19.77-47.01,23.47-5.83,1.43-9.21,2.06-22.31,4.14-2.95.47-6.3,1.01-7.44,1.2-4.57.77-7.83-.53-8.09-3.23-.26-2.62,1-3.85,10.25-10.08,1.87-1.26,5.98-4.03,9.15-6.16,3.16-2.13,6.23-4.45,6.82-5.16.59-.71,1.54-1.29,2.11-1.29s1.45-.5,1.96-1.11c.51-.61,3.99-3.23,7.74-5.82,10.53-7.27,17.36-12.07,19.63-13.8,4.13-3.14,8.26-6.17,11.17-8.19,3.05-2.12,3.77-2.67,6.67-5.15.4-.34.74-.59,1.21-.7Zm-301.1,82.68c1.46,0,4.78,5.97,3.93,7.09-.39.51-2.92,3.86-5.63,7.44-8.13,10.75-11.42,17.81-11.52,24.71-.08,6.19.49,7.3,5.48,10.53,5.06,3.28,14.38.53,30.24-8.93,4.46-2.66,4.64-2.59,10.79,4.56,5.85,6.79,5.94,7.13,2.36,8.19-1.48.44-8.59,3.04-15.81,5.78-7.22,2.74-14.27,5.24-15.67,5.55-1.4.31-3.11.86-3.81,1.22-3,1.57-13.16,4.22-21.92,5.73-4.42.76-12.24.89-14.74.25-7.71-1.99-5.87-10.38,6.69-30.6,2.61-4.2,5.3-8.3,5.98-9.1.68-.8,1.77-2.48,2.41-3.72.65-1.24,1.48-2.26,1.86-2.26s.69-.44.69-.98.7-1.75,1.56-2.68c.86-.94,3.57-4.68,6.03-8.31,7.79-11.51,10.05-14.46,11.08-14.46Zm10.83,18.49c.56-.23,1.31.41,2.99,2.3,5.35,6.03,5.45,6.8,1.31,10.54-2,1.81-4.1,3.3-4.67,3.32-.57.02-1.03.36-1.03.76s-1.84,1.51-4.08,2.48c-4.56,1.96-4.96,2.02-6.54,1.02-1.94-1.23.09-5.41,6.08-12.55,2.27-2.7,2.98-3.68,5.43-7.37.17-.26.33-.43.52-.51Z"/></svg>