<svg width="814" height="814" viewBox="0 0 814 814" fill="none" xmlns="http://www.w3.org/2000/svg">
<rect width="814" height="814" fill="#1E1E1E"/>
<g clip-path="url(#clip0_0_1)">
<path d="M326.31 1.76378C325.83 1.59529 325.112 1.96599 324.716 2.58754C324.311 3.22173 324.015 57.0232 324.041 125.193C324.086 241.076 324.02 246.72 322.611 247.751C321.238 248.754 321.063 248.339 320.13 241.88C317.409 223.032 311.959 208.67 304.27 200.085L300.323 195.678L296.5 198.811C294.398 200.533 292.677 202.147 292.677 202.395C292.677 202.644 293.986 204.629 295.585 206.807C299.871 212.647 304.618 223.381 307.029 232.686C309.713 243.047 309.866 255.016 307.51 270.172C304.969 286.517 308.332 298.059 318.846 309.082L323.408 313.864H315.97C310.376 313.864 308.278 314.17 307.51 315.095C306.254 316.608 307.185 354.022 308.52 355.67C309.146 356.443 314.365 356.7 329.436 356.7H349.517V362.267V367.833L344.132 371.486C341.071 373.561 338.849 375.641 338.983 376.306C339.113 376.949 342.084 378.661 345.585 380.111C349.086 381.561 352.16 382.957 352.415 383.211C352.669 383.466 349.807 384.741 346.055 386.045C336.823 389.251 336.748 390.394 345.561 393.608L352.4 396.102L349.105 397.483C336.538 402.744 336.455 402.964 345.714 406.449C352.883 409.147 352.87 409.276 345.192 411.926C337.069 414.73 337.558 415.881 348.693 420.167C353.677 422.085 357.755 423.902 357.755 424.205C357.755 424.508 356.087 425.931 354.048 427.368L350.341 429.981V438.563V447.145L332.424 454.409L314.507 461.672L302.974 462.113C292.073 462.529 291.428 462.648 291.195 464.273C291.06 465.219 291.524 466.468 292.225 467.05C292.927 467.633 293.492 468.528 293.48 469.039C293.464 469.749 272.476 478.356 253.059 485.617C252.023 486.005 251.029 484.308 248.345 477.57C233.907 441.319 241.006 396.475 266.6 362.26L270.759 356.7H286.084C296.905 356.7 301.7 356.41 302.398 355.712C303.113 354.998 303.386 349.195 303.386 334.793C303.386 311.716 304.441 313.864 293.11 313.864C286.876 313.864 285.346 313.62 284.94 312.561C284.665 311.844 284.44 287.934 284.44 259.428C284.44 229.868 284.125 207.599 283.709 207.599C282.777 207.599 272.586 214.335 272.22 215.193C272.069 215.547 271.513 215.839 270.984 215.844C270.067 215.852 261.667 221.69 258.76 224.339C258.001 225.03 256.64 225.993 255.735 226.478C254.83 226.962 253.597 227.837 252.995 228.421C252.393 229.006 250.113 230.521 247.929 231.79C245.744 233.059 242.854 235.251 241.506 236.662L239.055 239.227L239.583 257.393C239.874 267.384 240.169 284.085 240.24 294.506L240.368 313.452L232.551 313.692C228.251 313.824 224.358 314.304 223.901 314.76C223.413 315.247 222.899 323.653 222.657 335.115C222.251 354.372 222.217 354.686 220.122 357.935C215.47 365.15 212.983 369.743 210.512 375.68C207.731 382.36 202.599 401.326 201.659 408.394C201.028 413.141 201.244 412.997 193.414 413.953C188.572 414.544 180.671 415.944 176.354 416.975C172.364 417.927 172.279 418.471 172.58 441.136L172.82 459.258L176.938 459.775C179.204 460.059 182.54 460.683 184.352 461.162C186.165 461.64 189.872 462.288 192.59 462.602C200.15 463.474 200.28 463.604 202.947 472.851C204.295 477.527 204.184 477.163 204.726 478.617C204.979 479.296 205.836 482.077 206.631 484.795C207.426 487.514 208.575 490.469 209.188 491.363C210.598 493.423 210.595 494.689 209.175 496.062C203.352 501.69 198.242 506.183 193.309 510.013L187.44 514.571L191.124 521.924C193.151 525.968 196.703 532.429 199.019 536.28C203.486 543.707 203.413 543.599 206.486 547.382L208.478 549.835L214.951 547.62C218.51 546.402 224.876 544.187 229.098 542.697L236.776 539.987L239.601 543.064C241.155 544.756 242.428 546.444 242.428 546.814C242.428 547.615 230.8 555.11 221.082 560.575L214.153 564.472L212.629 562.527C211.081 560.551 203.98 550.324 202.475 547.903C202.022 547.174 201.424 546.392 201.146 546.166C199.721 545.002 185.861 520.231 182.78 513.342C167.333 478.796 163.386 439.136 171.619 401.183C172.553 396.879 173.657 391.779 174.073 389.851C174.947 385.804 179.544 371.801 180.692 369.685C181.119 368.899 181.469 367.842 181.469 367.336C181.469 363.862 197.932 334.4 205.585 324.179C208.932 319.709 228.129 299.919 234.858 293.809C234.966 293.497 235.067 293.181 235.134 292.856C235.141 292.823 235.146 292.79 235.152 292.757C235.117 292.071 235.079 291.386 235.094 290.699C235.095 289.289 235.097 287.878 235.101 286.468C235.106 285.11 235.109 283.753 235.135 282.395C235.157 281.38 235.201 280.365 235.247 279.35C235.177 279.216 235.101 279.091 234.962 279.009C234.816 278.925 234.719 278.898 234.549 278.944C234.368 278.982 234.188 279.025 234.012 279.083C228.865 283.09 220.632 290.312 214.832 296.184C206.334 304.787 203.493 308.044 197.483 316.081C194.499 320.072 191.325 324.264 190.429 325.397C189.534 326.529 187.65 329.495 186.243 331.987C184.836 334.479 183.237 337.074 182.689 337.753C180.11 340.952 169.804 362.792 167.847 369.204C167.111 371.615 166.134 374.514 165.675 375.646C164.042 379.67 162.482 384.655 161.76 388.157C161.358 390.111 160.24 395.285 159.276 399.655C158.312 404.024 157.595 407.916 157.683 408.304C157.771 408.692 157.62 409.565 157.348 410.244C155.589 414.652 155.587 462.689 157.345 467.084C157.617 467.764 157.764 468.792 157.67 469.369C157.517 470.314 160.084 482.625 162.778 493.863C167.86 515.053 183.554 545.766 200.028 566.76C208.662 577.763 231.578 599.943 237.485 603.015C238.618 603.604 241.027 605.267 242.84 606.712C244.652 608.157 246.691 609.598 247.37 609.912C248.675 610.516 249.868 611.228 255.196 614.591C259.897 617.558 280.775 627.718 282.171 627.718C282.815 627.718 283.595 627.972 283.906 628.283C284.849 629.227 300.385 634.444 305.034 635.378C306.167 635.606 310.429 636.58 314.507 637.542C348.98 645.677 394.783 642.962 428.598 630.778C435.363 628.341 435.58 628.246 447.128 622.692C479.104 607.313 504.699 584.953 525.597 554.146C529.334 548.635 532.393 543.685 532.393 543.146C532.393 542.606 532.879 541.675 533.474 541.077C536.41 538.12 550.516 506.08 550.516 502.368C550.516 501.591 550.82 500.768 551.191 500.538C551.563 500.309 552.727 496.487 553.778 492.046C554.83 487.606 555.89 483.415 556.134 482.736C556.693 481.18 556.719 481.046 558.819 469.144C561.796 452.268 561.039 404.876 557.53 388.486L556.311 382.792L559.9 378.6C565.359 372.225 590.959 345.991 591.721 345.991C592.09 345.991 593.376 349.049 594.579 352.787C595.781 356.525 597.051 360.324 597.401 361.231C600.518 369.309 604.22 383.258 606.145 394.181C606.864 398.259 607.855 403.819 608.348 406.538C609.593 413.409 609.527 461.006 608.263 467.908C607.723 470.853 607.132 474.374 606.948 475.734C606.29 480.607 603 497.184 602.371 498.799C602.018 499.705 601.352 501.929 600.891 503.742C597.739 516.13 591.752 532.54 585.461 546.034C583.911 549.359 582.642 552.201 582.642 552.349C582.642 552.777 570.481 573.905 568.287 577.288C562.647 585.988 554.731 596.748 550.927 600.888C550.021 601.874 547.612 604.686 545.573 607.137C526.57 629.978 494.245 653.349 461.69 667.783C445.751 674.851 432.081 679.142 408.416 684.508C385.96 689.6 339.18 689.426 314.383 684.157C299.894 681.079 284.223 676.889 279.085 674.719C278.179 674.337 275.584 673.378 273.319 672.589C271.053 671.801 267.532 670.444 265.493 669.574C263.454 668.704 261.045 667.677 260.139 667.293C258.084 666.42 240.42 657.636 237.073 655.823C234.475 654.415 227.793 650.189 220.186 645.141C214.565 641.411 215.168 641.862 204.055 633.073C191.52 623.158 173.128 604.638 165.618 594.369C165.282 593.908 163.799 592.005 162.323 590.139C160.847 588.272 159.083 585.912 158.404 584.895C157.724 583.878 156.033 581.512 154.645 579.639C152.346 576.535 147.836 569.35 144.234 563.053C138.851 553.643 126.63 527.219 127.661 527.219C127.917 527.219 127.774 526.756 127.344 526.189C126.621 525.238 125.516 522.268 123.122 514.842C120.342 506.217 117.487 493.753 115.957 483.559C115.312 479.255 114.393 473.324 113.917 470.379C112.306 460.414 112.007 431.495 113.39 419.306C115.33 402.193 116.492 394.316 117.301 392.751C117.707 391.964 118.039 390.357 118.039 389.179C118.039 384.569 126.798 356.223 132.021 343.931C135.641 335.41 146.742 312.943 147.69 312.217C147.986 311.99 148.492 311.249 148.816 310.569C149.642 308.84 150.816 306.939 155.414 299.887C181.467 259.932 220.399 228.121 266.317 209.27C268.809 208.247 271.416 207.13 272.111 206.786C272.805 206.442 274.659 205.885 276.229 205.549C277.8 205.212 279.456 204.659 279.909 204.321C280.362 203.983 281.805 203.449 283.115 203.135L285.498 202.566L282.704 199.673C281.166 198.082 278.683 196.02 277.185 195.091L274.46 193.402L265.652 196.917C257.734 200.078 239.606 208.975 232.81 213.037C222.479 219.211 217.442 222.419 212.389 226.043C185.477 245.347 161.003 269.83 144.364 294.094C142.345 297.039 140.415 299.572 140.075 299.723C139.735 299.874 139.457 300.319 139.457 300.711C139.457 301.104 138.385 303.019 137.076 304.967C133.153 310.805 123.93 328.37 120.184 337.135C119.458 338.834 118.336 341.429 117.692 342.902C115.268 348.441 112.95 354.703 111.835 358.722C111.201 361.008 109.73 366.142 108.568 370.131C102.08 392.391 98.739 428.813 100.694 455.963C101.15 462.306 101.546 468.237 101.572 469.144C101.616 470.672 103.784 484.812 105.741 496.328C108.323 511.524 117.741 538.95 125.633 554.25C127.166 557.222 127.634 558.941 127.089 559.605C126.649 560.142 124.986 562.25 123.394 564.288C121.802 566.327 120.205 568.366 119.848 568.819C119.49 569.272 116.842 572.794 113.961 576.645C111.08 580.496 107.668 585.015 106.38 586.688C105.091 588.36 104.035 589.939 104.035 590.197C104.035 590.454 102.738 592.512 101.152 594.768C99.5664 597.024 98.269 599.157 98.269 599.507C98.269 599.858 97.0328 601.993 95.5226 604.252C86.7138 617.429 82.6142 627.351 82.0801 636.78C81.6496 644.379 82.9389 648.491 86.3244 650.311C87.2306 650.798 88.1833 651.48 88.4417 651.828C89.6975 653.519 99.5368 654.266 109.279 653.408C122.685 652.227 150.693 644.996 164.582 639.132C168.871 637.321 181.984 632.667 182.809 632.664C183.32 632.661 184.209 633.228 184.785 633.922C185.361 634.616 190.276 638.531 195.708 642.623C239.503 675.611 283.707 693.627 333.042 698.597C337.346 699.031 341.238 699.54 341.691 699.73C343.232 700.374 385.322 699.46 391.529 698.647C403.887 697.029 409.383 696.105 416.654 694.425C429.504 691.456 441.488 688.15 443.621 686.986C444.407 686.556 445.443 686.205 445.922 686.205C446.4 686.205 451.503 684.331 457.26 682.04C474.183 675.305 488.687 667.69 503.49 657.763C506.849 655.51 510.185 653.296 510.904 652.843C511.622 652.39 512.396 651.813 512.622 651.561C512.849 651.308 516.185 648.721 520.036 645.81C541.063 629.92 556.74 613.632 576.699 586.942C578.144 585.009 583.474 576.571 587.104 570.467C589.259 566.842 591.369 563.32 591.79 562.641C592.623 561.3 600.514 545.081 602.612 540.399C605.753 533.39 608.098 527.189 609.78 521.453C610.776 518.055 611.915 514.533 612.311 513.627C613.996 509.771 617.921 492.703 618.656 486.031C618.881 483.992 619.395 481.915 619.8 481.415C620.205 480.915 620.487 479.617 620.426 478.532C620.365 477.446 620.801 472.48 621.396 467.496C621.991 462.512 622.488 451.021 622.5 441.959C622.518 427.864 622.12 421.656 620.064 404.066C619.905 402.707 619.423 399.556 618.994 397.064C618.565 394.572 617.998 391.236 617.736 389.65C617.473 388.065 616.344 383.09 615.226 378.596C613.411 371.298 613.32 370.196 614.368 368.298C616.511 364.42 622.755 350.663 627.111 340.225C629.474 334.561 631.721 329.186 632.105 328.28C632.489 327.374 633.599 324.594 634.572 322.102C635.544 319.61 636.715 316.644 637.173 315.512C640.219 307.983 650.704 274.099 652.595 265.674C653.103 263.409 654.255 258.52 655.154 254.811C656.054 251.101 657.144 245.911 657.577 243.278C663.443 207.618 664.195 198.982 664.195 167.234C664.195 151.883 663.871 139.123 663.476 138.879C663.08 138.634 648.531 152.607 631.143 169.927C602.475 198.485 590.051 210.383 581.818 217.16C580.233 218.466 578.565 219.95 578.112 220.46C577.658 220.97 574.322 223.909 570.698 226.991C567.073 230.073 561.698 234.777 558.753 237.444C549.719 245.625 542.878 251.258 541.98 251.258C541.721 251.258 540.247 250.053 538.704 248.581C529.536 239.828 507.498 222.513 500.436 218.513C499.436 217.947 497.784 217.02 496.765 216.454C495.745 215.888 494.726 215.219 494.499 214.969C491.95 212.151 456.525 195.242 453.17 195.242C452.523 195.242 451.64 194.918 451.21 194.521C448.631 192.147 411.579 182.886 404.659 182.886C401.679 182.886 401.423 183.101 399.519 187.21C397.106 192.418 397.318 192.719 403.995 193.591C411.406 194.559 418.108 196.045 430.658 199.501C444.272 203.251 465.738 212.452 479.672 220.512C482.133 221.935 494.333 229.948 501.09 234.578C511.636 241.805 535.988 263.634 544.566 273.55L546.39 275.659L544.54 278.209C543.522 279.612 542.134 281.577 541.454 282.576C540.774 283.574 538.281 287.038 535.913 290.273C530.373 297.839 530.099 298.22 524.528 306.038C521.946 309.663 519.415 312.901 518.905 313.233C518.395 313.566 512.648 313.845 506.135 313.851L494.294 313.864L494.855 311.187C498.09 295.771 498.418 288.482 496.232 280.598C493.655 271.305 494.825 271.375 474.155 279.277C464.276 283.054 455.782 286.455 455.277 286.833C454.773 287.211 454.169 289.895 453.936 292.799C453.464 298.673 451.087 304.437 449.192 304.304C448.513 304.256 443.556 301.134 438.178 297.368C430.421 291.936 428.122 290.695 427.057 291.362C424.448 292.997 425.218 295.323 430.96 303.166C434.107 307.464 436.353 311.102 435.951 311.25C435.549 311.398 433.17 310.923 430.663 310.194C416.079 305.955 414.803 282.048 428.812 275.525C436.471 271.96 442.546 273.37 449.155 280.249L452.471 283.7L470.744 276.335C494.075 266.931 493.037 267.778 488.847 261.537C475.14 241.121 460.013 231.524 439.307 230.107C413.712 228.356 387.156 247.159 378.605 273.088C375.816 281.542 375.219 304.783 377.668 309.539L379.047 312.217H373.755H368.464V268.737V225.258L373.44 220.341C385.643 208.284 396.659 187.178 402.392 164.867C408.716 140.26 405.416 120.463 390.763 95.1194C384.79 84.7885 327.84 2.30042 326.31 1.76378ZM368.814 83.4097C369.206 83.018 379.181 95.9186 381.399 99.6855C384.602 105.125 390.567 119.87 392.284 126.595C396.944 144.852 390.854 172.559 377.446 194.101C367.837 209.54 368.468 209.636 368.439 192.742C368.355 142.455 368.557 83.6667 368.814 83.4097ZM224.334 138.578C222.858 138.451 222.657 139.96 222.657 143.014C222.657 147.98 222.585 147.883 232.908 156.702L235.332 158.774L231.054 164.15C226.14 170.326 226.11 170.44 228.747 172.917C230.347 174.419 230.889 174.562 231.629 173.678C232.13 173.078 234.278 170.471 236.401 167.883L240.259 163.178L241.583 165.411C242.311 166.64 246.383 173.855 250.633 181.444C255.805 190.678 258.815 195.242 259.733 195.242C260.504 195.242 262.839 192.728 265.059 189.51L269.01 183.777L275.283 188.644C278.733 191.321 282.854 194.627 284.44 195.99C286.025 197.354 287.808 198.485 288.401 198.503C289.886 198.549 295.972 193.556 295.972 192.291C295.972 191.726 291.617 187.68 286.293 183.298C280.97 178.915 276.499 175.018 276.36 174.638C276.22 174.259 277.809 171.389 279.89 168.261C284.981 160.603 284.648 159.918 275.172 158.551C271.362 158.001 271.259 157.911 271.259 155.119C271.259 152.945 271.658 152.147 272.907 151.821C274.881 151.304 274.956 150.275 273.308 146.33C271.788 142.693 271.18 142.635 268.45 145.879C266.14 148.625 265.866 149.559 267.141 150.347C267.991 150.873 268.301 155.914 267.53 156.684C267.049 157.166 260.731 156.155 260.066 155.491C259.161 154.585 260.869 150.52 262.314 150.143C264.209 149.647 264.242 148.352 262.457 144.608C260.754 141.037 259.668 140.963 256.918 144.231C254.474 147.136 254.275 148.144 256.02 148.814C257.356 149.326 257.649 152.156 256.548 153.893C255.92 154.883 247.37 154.517 247.37 153.5C247.37 153.313 248.922 151.103 250.82 148.59C254.42 143.822 254.478 142.537 251.182 140.517C249.71 139.614 248.827 140.391 243.541 147.227L241.771 149.515L233.656 143.958C228.559 140.467 225.809 138.704 224.334 138.578ZM251.814 164.163C252.34 163.637 268.303 166.425 269.696 167.286C270.453 167.754 269.421 169.443 265.99 173.351C263.375 176.33 261.084 178.767 260.898 178.767C260.242 178.767 251.41 164.567 251.814 164.163ZM652.019 166.499C652.32 166.394 652.483 166.498 652.538 166.785C652.797 168.129 651.305 195.795 650.493 204.715C649.905 211.173 647.768 226.246 646.463 233.135C645.734 236.986 644.694 242.613 644.153 245.64C643.611 248.666 642.894 251.415 642.56 251.749C642.226 252.083 641.953 253.367 641.953 254.603C641.953 255.839 641.201 259.392 640.282 262.498C639.362 265.604 638.052 270.184 637.371 272.676C634.798 282.09 629.03 300.953 627.925 303.567C627.542 304.473 626.979 306.141 626.673 307.274C626.368 308.407 625.645 310.445 625.068 311.805C624.49 313.164 623.177 316.685 622.149 319.63C621.121 322.575 619.966 325.336 619.583 325.767C619.2 326.197 618.888 327.069 618.888 327.702C618.888 328.336 618.386 330.023 617.773 331.451C617.16 332.879 615.88 335.9 614.928 338.165C610.237 349.336 607.96 354.661 607.781 354.869C607.674 354.994 606.582 352.214 605.357 348.691C604.131 345.167 602.596 341.116 601.946 339.689C601.296 338.261 600.765 336.837 600.765 336.526C600.765 336.214 599.653 333.557 598.294 330.621C596.935 327.684 595.822 324.958 595.822 324.563C595.822 322.128 593.411 323.47 588.968 328.378C565.482 354.324 529.081 391.381 510.975 407.778C505.311 412.907 498.454 419.177 495.735 421.713C493.017 424.248 489.68 427.187 488.321 428.242C486.962 429.297 483.972 431.888 481.678 434C477.648 437.71 475.302 439.703 464.524 448.574C461.755 450.852 456.153 455.487 452.076 458.874C447.998 462.26 441.696 467.246 438.072 469.953C434.447 472.66 429.392 476.644 426.838 478.805C424.285 480.967 421.928 482.736 421.6 482.736C421.271 482.736 419.282 484.145 417.18 485.867C413.842 488.601 405.64 494.616 392.469 503.991C390.366 505.488 386.051 508.439 382.879 510.549C379.708 512.659 376.928 514.609 376.701 514.883C376.475 515.158 371.656 518.408 365.992 522.106C360.329 525.803 355.325 529.12 354.871 529.476C354.418 529.833 349.97 532.679 344.986 535.801C340.003 538.923 333.145 543.225 329.747 545.361C320.088 551.432 302.734 561.817 302.249 561.817C302.008 561.817 299.849 562.987 297.451 564.415C295.052 565.844 290.68 568.32 287.735 569.916C284.79 571.513 281.268 573.49 279.909 574.31C278.55 575.131 275.399 576.826 272.907 578.077C270.415 579.328 268.191 580.537 267.964 580.764C267.738 580.99 264.772 582.616 261.374 584.377C257.976 586.138 253.27 588.641 250.916 589.938C245.582 592.877 246.119 592.92 240.186 589.085C233.011 584.447 224.334 575.755 224.31 573.179C224.306 572.858 226.066 571.582 228.218 570.344C231.705 568.338 244.354 560.626 248.63 557.899C249.522 557.33 250.809 556.615 251.489 556.311C252.169 556.007 252.91 555.544 253.137 555.28C253.641 554.693 260.344 550.315 262.61 549.092C267.241 546.595 312.9 516.236 323.287 508.749C325.85 506.901 328.762 504.833 329.758 504.154C330.754 503.474 334.7 500.601 338.527 497.769C342.353 494.938 345.836 492.621 346.265 492.621C346.695 492.621 347.046 492.33 347.046 491.974C347.046 491.618 350.66 488.746 355.077 485.592C359.495 482.437 364.407 478.743 365.992 477.383C367.578 476.023 369.475 474.539 370.208 474.086C370.94 473.633 376.871 468.97 383.388 463.725C395.4 454.055 396.563 453.095 404.257 446.49C406.632 444.451 409.467 442.071 410.556 441.202C420.65 433.136 442.553 412.952 461.031 394.689C486.011 370 514.42 338.663 526.462 322.514C526.8 322.061 529.551 318.539 532.576 314.688C535.601 310.837 539.114 306.299 540.382 304.603C541.651 302.908 543.375 300.684 544.213 299.661C545.051 298.637 547.008 295.947 548.561 293.682C550.113 291.417 553.034 287.339 555.051 284.62C562.678 274.341 562.686 274.625 554.617 265.721L549.433 260.001L553.556 256.247C555.824 254.183 559.44 251.011 561.593 249.199C563.745 247.386 567.626 244.05 570.217 241.785C572.807 239.519 575.834 236.925 576.943 236.018C579.15 234.216 593.922 221.657 597.88 218.219C606.879 210.403 611.098 206.573 617.652 200.28C621.73 196.364 627.807 190.756 631.157 187.819C634.508 184.881 640.623 178.602 644.746 173.866C648.967 169.018 651.115 166.813 652.019 166.499ZM372.17 179.179L371.92 184.03C371.782 186.697 371.872 189.409 372.121 190.057C373.626 193.981 381.464 187.211 381.875 181.631L382.056 179.179H377.113H372.17ZM315.173 182.165C309.098 182.675 298.045 184.975 297.811 186.2C297.68 186.89 299.286 189.763 301.383 192.584C303.48 195.406 305.552 197.713 305.986 197.713C306.421 197.713 309.381 197.284 312.565 196.758C317.48 195.946 318.469 195.501 319.109 193.82C320.133 191.125 320.061 183.415 319.002 182.356C318.669 182.023 317.198 181.995 315.173 182.165ZM373.517 235.433C372.918 235.633 372.582 238.243 372.582 242.703C372.582 250.417 372.366 250.124 378.885 251.218C386.775 252.542 387.632 252.357 391.17 248.581C397.946 241.347 398.482 240.584 397.482 239.584C396.491 238.593 375.134 234.894 373.517 235.433ZM302.41 242.646C300.377 242.942 297.147 244.272 292.059 246.423L288.558 247.905V254.358C288.558 258.004 288.957 261.214 289.476 261.732C290.15 262.407 292.388 261.93 297.919 259.932L305.446 257.213L305.656 250.734C305.858 244.523 305.797 242.151 302.41 242.646ZM322.397 266.457C322.85 266.177 323.157 272.156 323.157 281.277C323.157 289.686 322.978 296.565 322.761 296.565C321.348 296.565 318.731 288.848 318.394 283.694C318.014 277.873 320.375 267.707 322.397 266.457ZM502.084 296.655C501.047 296.708 500.607 298.289 499.817 302.983C498.708 309.57 498.908 310.369 501.777 310.809C507.735 311.722 514.327 311.376 514.807 310.125C515.303 308.833 506.311 298.568 503.357 297.054C502.843 296.791 502.43 296.638 502.084 296.655ZM359.402 356.685L401.96 356.898L444.517 357.112L451.736 366.997L458.957 376.882L437.616 397.734C424.716 410.339 408.334 425.242 396.188 435.421C385.139 444.681 375.584 452.232 374.957 452.203C374.33 452.175 370.667 450.928 366.816 449.434L359.814 446.719L359.594 438.985L359.373 431.25L365.128 427.714C373.647 422.479 373.63 421.998 364.819 418.506C361.927 417.36 359.432 416.103 359.275 415.713C359.118 415.323 361.77 413.998 365.169 412.769C373.512 409.75 373.508 408.664 365.144 405.292C357.722 402.3 357.734 402.182 365.777 399.484C373.958 396.739 373.714 395.791 363.756 391.662L357.343 389.002L363.933 387.002C369.176 385.411 370.575 384.651 370.776 383.289C370.992 381.818 369.888 381.142 362.95 378.493C352.925 374.664 352.867 374.608 356.459 372.388L359.402 370.569V363.628V356.685ZM712.995 363.729C711.326 363.83 709.232 364.116 706.54 364.53C694.587 366.37 694.435 366.494 691.294 376.681C688.335 386.276 682.41 401.507 677.512 412.109L674.186 419.306H666.323C657.227 419.306 658.272 420.61 656.757 407.361C656.239 402.831 655.348 396.628 654.779 393.578C653.568 387.082 652.999 387.545 663.234 386.698C667.192 386.371 670.255 385.725 670.466 385.174C670.906 384.03 668.507 372.212 667.667 371.38C667.343 371.059 663.186 371.372 658.428 372.075C646.07 373.899 644.599 375.947 646.92 388.096C648.362 395.647 650.07 407.775 651.021 417.219C651.948 426.425 653.454 431.147 655.878 432.444C656.623 432.843 661.377 433.283 666.441 433.421C675.255 433.661 675.741 433.585 677.805 431.646C681.456 428.216 695.016 398.653 698.798 385.879L699.794 382.518L708.548 381.611C713.363 381.111 717.427 380.825 717.577 380.975C718.53 381.928 723.212 417.404 722.481 418.135C722.276 418.339 717.97 418.743 712.913 419.032L703.718 419.558L704.207 426.229C704.881 435.428 704.369 434.852 712.14 435.168C715.9 435.321 720.524 435.522 722.417 435.614C726.456 435.811 728.854 433.496 729.792 428.496C731.218 420.893 724.975 377.002 721.389 369.422C719.201 364.797 718.002 363.426 712.995 363.729ZM545.525 394.593C548.078 394.593 549.49 447.603 547.335 462.554C545.41 475.904 544.818 479.16 543.217 485.207C542.318 488.605 541.151 493.053 540.624 495.092C540.097 497.131 539.365 499.54 538.999 500.447C538.632 501.353 537.69 503.948 536.906 506.213C533.224 516.839 524.303 534.659 516.933 546.111C515.348 548.573 513.731 550.982 513.34 551.465C512.949 551.948 510.149 555.495 507.118 559.346C499.377 569.181 490.655 578.064 479.924 587.048C474.853 591.293 470.459 594.768 470.158 594.768C469.858 594.768 468.261 595.814 466.611 597.094C457.266 604.338 435.185 615.319 420.773 619.889C415.336 621.613 410.146 623.299 409.24 623.635C407.358 624.332 397.381 626.38 386.802 628.239C378.296 629.735 348.614 630.432 340.044 629.338C336.872 628.933 331.126 628.017 327.275 627.303C323.424 626.589 317.689 625.618 314.531 625.145C311.373 624.673 308.107 623.922 307.272 623.475C306.437 623.029 301.793 621.242 296.951 619.505C292.109 617.768 285.301 615.033 281.822 613.429C278.343 611.826 273.895 610.086 271.937 609.563C268.599 608.671 254.835 600.698 254.8 599.636C254.791 599.369 255.722 598.724 256.869 598.201C258.655 597.387 259.438 597.557 262.332 599.384C265.679 601.497 283.055 610.419 283.822 610.419C284.041 610.419 285.156 609.029 286.3 607.33C287.443 605.631 289.822 602.758 291.586 600.946C293.351 599.134 296.415 595.503 298.395 592.877C302.309 587.689 303.059 587.514 309.561 590.271C313.846 592.087 326.766 595.612 329.1 595.601C331.722 595.589 332.648 597.025 333.347 602.181C335.477 617.892 336.697 623.622 338.099 624.51C338.716 624.901 347.826 625.227 358.343 625.234C380.42 625.249 378.578 626.029 379.985 616.076C381.177 607.647 383.366 597.852 384.332 596.621C384.777 596.055 386.19 595.591 387.473 595.591C388.755 595.591 390.656 595.254 391.696 594.842C392.737 594.43 395.813 593.464 398.531 592.695C401.249 591.927 405.657 590.527 408.326 589.585L413.177 587.873L415.519 590.702C422.749 599.437 426.852 604.315 429.422 607.233L432.305 610.508L437.66 608.012C446.306 603.982 467.315 591.458 467.315 590.335C467.315 589.451 464.542 581.002 464.038 580.352C463.687 579.899 462.558 576.828 461.528 573.528C460.498 570.228 459.339 567.334 458.954 567.096C456.712 565.71 458.409 561.93 463.106 557.845C465.775 555.524 470.851 550.804 474.388 547.358C479.194 542.675 481.245 541.191 482.51 541.484C483.44 541.699 489.506 543.723 495.988 545.981L507.775 550.086L510.857 545.861C515.467 539.546 519.041 533.533 523.88 523.956L528.234 515.339L526.494 513.487C525.538 512.469 522.702 510.044 520.192 508.1C517.682 506.156 513.809 502.911 511.586 500.889C507.015 496.731 507.065 497.296 510.313 486.031C513.136 476.245 514.269 471.481 514.283 469.338C514.314 464.643 515.863 463.504 523.753 462.383C527.825 461.804 533.752 460.844 536.923 460.25L542.69 459.168L543.246 455.506C543.976 450.706 544.066 431.938 543.398 424.03L542.871 417.797L539.3 416.897C537.335 416.403 535.442 416.082 535.091 416.185C534.74 416.287 532.167 415.875 529.374 415.269L524.297 414.169L532.245 406.645C536.616 402.508 541.246 398.104 542.534 396.858C543.821 395.612 545.168 394.593 545.525 394.593ZM661.202 455.724C652.674 455.477 652.222 458.734 650.966 471.399C650.461 476.501 649.211 485.733 648.189 491.913C646.152 504.233 646.243 507.42 648.701 509.664C649.635 510.517 664.149 515.265 682.594 520.753C700.338 526.031 715.626 530.387 716.567 530.432C722.096 530.695 725.375 519.84 728.857 489.743C730.934 471.794 730.102 464.647 725.749 463.065C723.85 462.375 705.346 460.239 704.96 460.665C704.839 460.798 704.608 464.242 704.445 468.32L704.147 475.734L710.737 476.765C714.362 477.332 718.581 478.005 720.113 478.263L722.899 478.733L722.341 485.059C721.727 492.018 718.623 513.277 718.095 514.13C717.849 514.528 655.566 499.542 654.543 498.839C654.393 498.737 656.79 480.214 658.073 471.555L658.448 469.026L666.718 470.21C671.266 470.862 675.161 471.221 675.374 471.008C675.586 470.796 675.989 467.655 676.268 464.03L676.777 457.442L672.751 456.921C667.785 456.278 664.045 455.806 661.202 455.724ZM475.456 456.663C475.578 456.97 475.439 457.885 475.147 459.67C474.308 464.806 471.535 476.213 470.642 478.205C470.236 479.111 469.291 481.799 468.543 484.177C467.795 486.556 466.935 488.469 466.631 488.428C466.094 488.356 449.599 481.58 447.957 480.757C447.504 480.53 448.404 479.307 449.958 478.039C452.231 476.185 466.848 463.687 474.213 457.3C474.955 456.656 475.335 456.356 475.456 456.663ZM361.093 458.541C361.563 458.607 362.157 458.781 362.908 459.043L365.45 459.929L363.045 461.855C359.934 464.344 359.402 464.286 359.402 461.455C359.402 459.12 359.685 458.342 361.093 458.541ZM349.673 459.131C350.261 459.353 350.341 460.792 350.341 465.234V471.797L339.426 480.041C333.423 484.574 318.317 495.311 305.858 503.899C293.398 512.488 282.731 519.794 282.152 520.135C280.984 520.823 266.63 506.9 260.665 499.293L257.177 494.844L275.917 487.558C286.224 483.55 295.3 480.067 296.087 479.817C297.243 479.45 297.566 479.949 297.774 482.427C297.916 484.112 298.402 485.608 298.856 485.751C299.309 485.893 303.201 482.885 307.505 479.067L315.331 472.127L331.394 465.977C340.229 462.596 348.106 459.569 348.899 459.25C349.224 459.12 349.477 459.058 349.673 459.131ZM434.413 488.441C435.838 488.121 438.505 489.069 447.852 492.557C454.993 495.221 461.056 497.62 461.325 497.888C462.764 499.327 451.059 513.227 442.522 520.217C430.561 530.011 410.685 539.932 395.648 543.617C389.838 545.041 386.466 545.667 373.406 547.749C370.461 548.218 367.125 548.758 365.992 548.949C361.44 549.716 358.185 548.418 357.922 545.729C357.666 543.116 358.917 541.887 368.143 535.677C370.006 534.423 374.111 531.661 377.264 529.539C380.418 527.417 383.481 525.1 384.07 524.391C384.659 523.681 385.606 523.1 386.174 523.1C386.743 523.1 387.622 522.602 388.128 521.993C388.633 521.384 392.106 518.774 395.847 516.191C406.35 508.942 413.16 504.156 415.418 502.437C419.531 499.306 423.651 496.284 426.555 494.268C429.597 492.156 430.316 491.602 433.201 489.138C433.602 488.796 433.938 488.548 434.413 488.441ZM639.171 530.514C638.394 530.514 635.071 542.35 635.775 542.613C636.228 542.783 652.353 549.543 671.609 557.637C690.864 565.731 707.244 572.392 708.009 572.439C709.049 572.504 709.973 570.766 711.672 565.548C712.922 561.71 713.779 558.432 713.577 558.263C713.203 557.949 639.637 530.514 639.171 530.514ZM631.116 555.674C630.007 555.216 628.738 557.214 624.361 566.316C619.849 575.698 612.873 588.132 605.936 599.153C604.477 601.471 604.482 601.49 606.943 603.475C608.302 604.571 609.607 605.469 609.842 605.472C610.078 605.474 612.673 601.588 615.609 596.835C618.545 592.082 621.133 588.208 621.359 588.226C621.586 588.243 635.672 596.714 652.662 607.05C669.652 617.386 683.81 625.7 684.124 625.525C684.9 625.094 691.625 612.851 691.258 612.54C691.098 612.403 676.695 604.395 659.252 594.742C641.809 585.089 627.439 577.124 627.319 577.042C627.198 576.96 628.954 573.037 631.22 568.325C635.708 558.992 636.104 557.28 633.921 556.652C633.129 556.424 631.866 555.984 631.116 555.674ZM134.18 570.878C135.64 570.878 138.942 576.833 138.099 577.946C137.714 578.456 135.188 581.795 132.487 585.365C124.381 596.08 121.098 603.125 121.003 610.007C120.918 616.18 121.49 617.283 126.467 620.51C131.514 623.784 140.809 621.037 156.618 611.602C161.065 608.947 161.244 609.021 167.375 616.145C173.205 622.919 173.302 623.259 169.731 624.312C168.258 624.746 161.162 627.34 153.962 630.077C146.761 632.813 139.731 635.302 138.337 635.608C136.944 635.914 135.236 636.462 134.542 636.825C131.553 638.386 121.423 641.034 112.685 642.539C108.278 643.299 100.48 643.431 97.9842 642.787C90.3 640.807 92.13 632.441 104.658 612.274C107.261 608.084 109.946 604.002 110.625 603.202C111.305 602.401 112.388 600.733 113.031 599.493C113.674 598.253 114.508 597.239 114.884 597.239C115.261 597.239 115.568 596.799 115.568 596.262C115.568 595.725 116.267 594.52 117.121 593.585C117.975 592.65 120.681 588.919 123.135 585.294C130.903 573.82 133.157 570.878 134.18 570.878ZM144.976 589.318C145.533 589.088 146.284 589.729 147.959 591.616C153.296 597.63 153.391 598.398 149.265 602.128C147.269 603.933 145.172 605.424 144.606 605.443C144.039 605.461 143.576 605.802 143.576 606.199C143.576 606.596 141.746 607.708 139.51 608.67C134.964 610.626 134.566 610.688 132.985 609.685C131.055 608.463 133.074 604.296 139.045 597.176C141.306 594.48 142.018 593.512 144.456 589.825C144.626 589.568 144.79 589.395 144.976 589.318ZM599.978 614.786C597.263 614.076 593.579 616.884 587.088 624.611C583.559 628.812 577.129 636.071 572.8 640.742C564.386 649.823 562.62 652.397 563.026 654.988C563.168 655.889 574.201 668.472 587.545 682.949C614.747 712.462 613.506 711.565 620.6 706.849C624.569 704.211 640.663 686.996 650.477 674.891C656.804 667.088 658.953 662.776 658.099 659.596C657.599 657.734 602.876 615.543 599.978 614.786ZM595.15 626.304C595.46 626.402 607.208 635.91 621.256 647.432L646.798 668.382L643.477 672.557C641.651 674.853 636.045 681.273 631.021 686.823C625.996 692.373 621.672 696.914 621.411 696.914C621.15 696.914 610.309 686.257 597.32 673.231L573.703 649.548L581.492 641.36C585.775 636.857 590.474 631.587 591.934 629.649C593.393 627.711 594.84 626.206 595.15 626.304ZM544.488 669.743C541.471 669.727 540.421 670.323 528.686 678.727C523.249 682.621 515.162 687.977 510.716 690.628C504.491 694.34 502.749 695.758 503.144 696.798C503.605 698.01 536.858 756.839 540.827 763.462L542.447 766.168L546.276 763.943C562.245 754.668 585.792 738.302 589.898 733.625C593.556 729.459 593.998 727.027 591.67 723.878C586.51 716.899 572.419 700.028 571.433 699.649C570.816 699.413 567.84 700.375 564.82 701.788C561.801 703.201 559.22 704.246 559.084 704.111C558.949 703.976 560.28 702.04 562.04 699.809C566.965 693.565 567.05 693.893 557.32 681.808C547.489 669.599 547.66 669.76 544.488 669.743ZM177.675 671.907C177.378 671.942 177.143 672.087 176.918 672.32C174.899 674.412 135.111 733.568 135.018 734.614C134.968 735.187 137.707 737.857 141.105 740.548C144.503 743.239 147.628 745.343 148.049 745.224C148.722 745.032 187.767 682.141 188.526 680.027C188.688 679.574 186.385 677.404 183.408 675.204C180.013 672.695 178.567 671.803 177.675 671.907ZM539.681 679.678L546.334 688.593C549.993 693.496 552.987 697.812 552.987 698.184C552.987 700.547 545.616 709.735 541.522 712.476C538.992 714.169 535.61 716.348 534.005 717.317L531.086 719.08L523.869 707.453C518.054 698.083 516.862 695.637 517.727 694.852C518.318 694.316 523.499 690.681 529.241 686.777L539.681 679.678ZM209.604 693.619C208.493 693.619 173.846 761.81 174.456 762.796C175.687 764.789 199.162 777.324 214.832 784.356C220.721 786.999 225.975 789.164 226.506 789.168C227.383 789.174 229.801 783.571 229.124 783.099C228.965 782.989 225.129 781.295 220.598 779.336C212.211 775.709 191.354 765.492 191.354 765.01C191.354 764.668 202.726 739.854 203.333 738.872C203.585 738.463 207.573 740.031 212.195 742.356C216.816 744.682 223.749 748.001 227.6 749.73L234.602 752.874L235.595 750.636C237.253 746.899 236.891 746.404 230.333 743.415C218.689 738.109 207.006 732.005 207.006 731.228C207.006 729.871 217.982 705.924 218.476 706.204C221.445 707.892 243.593 718.392 245.908 719.211C249.493 720.478 249.529 720.457 250.239 716.654L250.783 713.742L245.987 711.787C239.617 709.19 222.79 700.811 215.924 696.818C212.9 695.059 210.056 693.619 209.604 693.619ZM483.477 707.768C480.852 707.372 476.87 708.461 470.396 711.226C465.757 713.207 456.813 716.61 450.521 718.788C439.14 722.727 434.364 725.476 434.365 728.085C434.365 728.838 438.757 744.837 444.124 763.639C452.78 793.961 454.105 797.94 455.861 798.842C460.373 801.161 470.106 798.601 496.305 788.201C512.399 781.812 517.565 778.463 517.565 774.417C517.565 771.721 487.728 710.16 485.691 708.653C485.076 708.198 484.352 707.9 483.477 707.768ZM563.647 711.124L571.89 722.1L580.131 733.076L573.354 737.932C569.627 740.602 563.704 744.71 560.191 747.061C556.679 749.412 553.298 751.531 552.678 751.769C551.919 752.06 549.182 748.353 544.297 740.416C540.307 733.934 536.545 727.848 535.937 726.895C534.892 725.256 535.253 724.884 542.508 720.1C548.001 716.478 552.097 714.482 556.916 713.081L563.647 711.124ZM476.703 716.823C477.246 717.619 502.659 775.759 502.884 776.718C503.178 777.979 497.586 780.503 481.709 786.275C468.915 790.926 467.44 791.285 466.91 789.881C466.396 788.52 446.721 727.9 446.721 727.678C446.721 727.592 448.111 727.08 449.81 726.541C451.509 726.002 458.213 723.532 464.707 721.054C471.202 718.576 476.601 716.673 476.703 716.823ZM269.182 720.96C269.042 721.1 266.058 732.336 262.554 745.928C259.049 759.52 254.607 776.572 252.683 783.821C250.759 791.071 249.431 797.267 249.732 797.592C250.72 798.655 275.598 805.469 287.77 808.01C302.432 811.071 302.412 811.07 303.032 808.599C304.141 804.182 303.779 803.979 289.794 801.127C274.818 798.073 266.317 795.832 266.317 794.937C266.317 794.601 269.652 778.987 273.727 760.241C277.803 741.495 281.14 725.731 281.141 725.209C281.145 724.36 269.808 720.332 269.182 720.96ZM409.465 730.452C406.998 730.325 403.302 730.71 397.295 731.549C391.179 732.405 380.66 733.473 373.919 733.924C367.179 734.375 361.492 734.914 361.283 735.123C360.875 735.531 364.26 812.841 364.755 814.42C365.01 815.233 378.874 815.098 379.848 814.272C379.993 814.149 378.735 797.848 377.052 778.05C373.652 738.056 373.47 740.61 379.715 740.587C381.599 740.58 387.654 739.988 393.172 739.272C398.689 738.556 403.325 738.093 403.472 738.243C403.869 738.645 408.723 765.658 408.448 765.937C408.319 766.068 403.255 766.772 397.194 767.499C391.133 768.226 385.681 769.272 385.079 769.825C384.185 770.646 385.126 772.205 390.198 778.3C396.43 785.787 415.604 806.726 418.16 808.835C419.566 809.996 422.731 809.789 431.345 807.973L435.327 807.133L425.99 798.376C415.404 788.446 402.307 775.068 402.265 774.142C402.25 773.802 403.332 773.524 404.669 773.524C408.1 773.524 415.414 771.889 418.087 770.524C423.076 767.977 423.112 767.316 419.214 749.843C417.07 740.234 415.118 733.371 414.261 732.425C413.17 731.219 411.932 730.579 409.465 730.452Z" fill="black"/>
</g>
<defs>
<clipPath id="clip0_0_1">
<rect width="814" height="814" fill="white"/>
</clipPath>
</defs>
</svg>
