<?xml version="1.0" encoding="UTF-8"?>
<svg id="layer" xmlns="http://www.w3.org/2000/svg" viewBox="0 0 643.5 636.11">
  <defs>
    <style>
      .cls-1 {
        fill: #fff;
      }

      .cls-2 {
        fill: #98989a;
      }

      .cls-3 {
        fill: #ec1c24;
      }

      .cls-4 {
        fill: #0066b2;
      }
    </style>
  </defs>
  <g>
    <path class="cls-2" d="m240.86,263.22c-.26,0-.52-.1-.72-.29l-21.62-20.48c-.23-.22-.35-.53-.32-.85.03-.32.19-.6.46-.78,24.7-16.66,57-25.83,90.95-25.83,20.25,0,39.68,3.18,57.76,9.44.34.12.59.4.67.74.08.35-.02.71-.26.97l-24.81,25.85c-.2.21-.47.32-.75.32-.06,0-.12,0-.19-.02-10.6-1.93-21.51-2.91-32.42-2.91-24.17,0-47.79,4.75-68.32,13.75-.14.06-.28.09-.42.09Z"/>
    <path class="cls-1" d="m309.6,216.04c20.59,0,40.07,3.37,57.42,9.38l-24.81,25.85c-10.43-1.9-21.36-2.93-32.61-2.93-25.22,0-48.74,5.08-68.74,13.84l-21.62-20.48c23.57-15.89,55.35-25.65,90.36-25.65m0-2.09c-34.15,0-66.66,9.24-91.53,26.01-.53.35-.86.93-.92,1.56-.05.63.19,1.25.65,1.69l21.62,20.48c.4.38.91.57,1.44.57.28,0,.57-.06.84-.18,20.4-8.94,43.88-13.66,67.9-13.66,10.85,0,21.69.97,32.23,2.9.13.02.25.03.38.03.56,0,1.11-.23,1.51-.64l24.81-25.85c.49-.51.69-1.24.52-1.94-.17-.69-.68-1.25-1.35-1.49-18.19-6.3-37.74-9.49-58.11-9.49h0Z"/>
  </g>
  <g>
    <path class="cls-1" d="m219.24,242.74c-.26,0-.52-.1-.72-.29l-28.29-26.81c-.23-.22-.35-.54-.32-.85.03-.32.2-.61.47-.78,33.01-21.46,75.35-33.28,119.23-33.28,29.52,0,58.84,5.41,84.78,15.63.32.13.56.41.64.75.08.34-.03.7-.27.95l-26.98,28.09c-.2.21-.47.32-.75.32-.11,0-.23-.02-.34-.06-17.86-6.19-37.06-9.32-57.08-9.32-33.53,0-65.42,9.05-89.78,25.48-.18.12-.38.18-.58.18Z"/>
    <path class="cls-1" d="m309.6,181.77c30.51,0,59.23,5.64,84.4,15.56l-26.98,28.09c-17.35-6.01-36.83-9.38-57.42-9.38-35.01,0-66.79,9.76-90.36,25.65l-28.29-26.81c31.67-20.59,73.17-33.11,118.66-33.11m0-2.09c-44.08,0-86.62,11.88-119.8,33.45-.54.35-.88.93-.94,1.56-.06.64.18,1.27.64,1.71l28.29,26.81c.4.38.92.57,1.44.57.41,0,.81-.12,1.17-.36,24.19-16.31,55.87-25.3,89.19-25.3,19.9,0,38.99,3.12,56.74,9.26.22.08.46.12.68.12.56,0,1.11-.23,1.51-.64l26.98-28.09c.48-.5.68-1.21.54-1.9-.15-.68-.63-1.24-1.28-1.5-26.07-10.28-55.52-15.71-85.17-15.71h0Z"/>
  </g>
  <g>
    <path class="cls-2" d="m180.06,326.99c-.48,0-.9-.33-1.02-.8-1.33-5.43-2.01-10.95-2.01-16.4,0-7.1,1.14-14.28,3.39-21.35.11-.35.4-.61.75-.7.08-.02.16-.03.24-.03.28,0,.54.11.74.31l10.87,11c.36.36.4.93.11,1.34-5.82,8.19-9.88,16.88-12.07,25.84-.11.47-.53.8-1.02.8h0Z"/>
    <path class="cls-1" d="m181.42,288.75l10.87,11c-5.78,8.13-9.97,16.92-12.23,26.19-1.29-5.26-1.98-10.65-1.98-16.15,0-7.24,1.19-14.28,3.34-21.03m0-2.09c-.16,0-.33.02-.49.06-.71.17-1.28.7-1.5,1.4-2.28,7.17-3.44,14.46-3.44,21.67,0,5.54.69,11.14,2.04,16.65.23.94,1.07,1.59,2.03,1.59h0c.96,0,1.8-.66,2.03-1.59,2.16-8.83,6.17-17.4,11.91-25.48.59-.83.5-1.96-.22-2.68l-10.87-11c-.4-.4-.94-.62-1.49-.62h0Z"/>
  </g>
  <g>
    <path class="cls-2" d="m95.18,411.41c-.23,0-.47-.08-.66-.23-.3-.24-.44-.63-.37-1.01l4.56-23.65c.06-.33.29-.62.6-.75l35.76-16.17c.14-.06.28-.09.43-.09.15,0,.31.03.45.1.28.13.48.38.56.68.57,2.21,1,4.53,1.46,6.99.85,4.55,1.72,9.25,3.55,13.1.12.26.13.55.03.82-.1.27-.3.48-.57.59l-45.4,19.55c-.13.06-.27.08-.41.08Z"/>
    <path class="cls-1" d="m135.5,370.54c1.66,6.39,2.22,14.25,5.08,20.28l-45.4,19.55,4.56-23.65,35.76-16.17m0-2.09c-.29,0-.59.06-.86.19l-35.76,16.17c-.62.28-1.06.84-1.19,1.51l-4.56,23.65c-.15.76.14,1.54.74,2.03.38.3.84.46,1.31.46.28,0,.56-.06.83-.17l45.4-19.55c.52-.22.93-.65,1.13-1.18.2-.53.18-1.12-.07-1.64-1.77-3.73-2.63-8.36-3.47-12.85-.44-2.36-.9-4.81-1.48-7.06-.15-.6-.57-1.1-1.12-1.36-.29-.14-.59-.2-.9-.2h0Z"/>
  </g>
  <g>
    <path class="cls-2" d="m2.01,490.32c-.29-.02-.56-.17-.74-.41-.18-.23-.25-.53-.2-.82L66.77,129.28c.08-.46.47-.81.94-.85l30.43-2.7s.06,0,.09,0c.29,0,.57.12.77.34.22.24.32.57.26.89L34.2,491.99c-.09.5-.53.86-1.03.86-.03,0-31.16-2.54-31.16-2.54Z"/>
    <path class="cls-1" d="m98.23,126.76h0m0,0L33.17,491.81l-31.08-2.53L67.8,129.46l30.43-2.7m0-2.09s-.07,0-.1,0h0s0,0,0,0c-.03,0-.07,0-.1,0l-30.41,2.7c-.94.08-1.7.78-1.87,1.71L.03,488.9c-.11.58.04,1.18.4,1.65.36.47.9.76,1.49.81l31.08,2.53c.06,0,.11,0,.17,0,1,0,1.88-.72,2.06-1.72L100.27,127.24c.04-.15.05-.31.05-.47,0-1.15-.92-2.08-2.07-2.09,0,0-.02,0-.02,0h0Zm0,4.18h0,0Z"/>
  </g>
  <g>
    <path class="cls-3" d="m33.04,492.85c-.23,0-.46-.08-.65-.22-.3-.24-.45-.63-.38-1.01L97.09,126.57c.07-.38.34-.69.7-.81.11-.04.22-.05.33-.05.26,0,.52.1.72.29l92.99,88.13,28.3,26.81,69.34,65.72c.21.2.33.47.33.76v28.65l29.76,28.54c.25.24.37.59.31.93-.06.34-.29.63-.6.78l-65.97,29.62c-.14.06-.28.09-.43.09-.1,0-.21-.02-.31-.05-19.26-5.99-35.9-16.44-52.36-32.88-.24-.24-.35-.59-.29-.92s.28-.62.59-.77l51.39-23.55-53.24-45.86-13.31-13.42-53.45-53.82-2.05,10.76-29.05,151.4-4.13,21.6,43.02-18.45c.13-.06.27-.08.41-.08.39,0,.77.22.95.6,7.28,15.33,16.93,28.01,30.4,39.9.27.24.4.59.34.95-.05.35-.29.65-.61.8l-137.71,60.54c-.13.06-.28.09-.42.09Z"/>
    <path class="cls-1" d="m98.12,126.76l92.99,88.13,28.3,26.81,21.61,20.48,47.73,45.24v29.1l30.08,28.84-65.97,29.62c-21.93-6.82-38.2-18.91-51.93-32.62l52.88-24.23-54.47-46.93-13.25-13.36-30.86-31.08-23.98-24.15-2.43,12.71-29.05,151.4-4.5,23.53,44.83-19.23c7.22,15.22,16.94,28.13,30.65,40.24l-137.71,60.54L98.12,126.76m0-2.09c-.22,0-.44.03-.65.1-.73.24-1.27.86-1.41,1.62L30.98,491.44c-.14.76.16,1.53.77,2.01.38.3.83.45,1.29.45.28,0,.57-.06.84-.18l137.71-60.54c.65-.29,1.12-.89,1.22-1.59.11-.71-.15-1.42-.68-1.89-13.35-11.79-22.93-24.37-30.14-39.57-.36-.75-1.11-1.2-1.89-1.2-.28,0-.56.05-.82.17l-41.21,17.68,3.76-19.67,29.05-151.4,1.68-8.81,21.19,21.34,30.86,31.08,13.24,13.36s.08.08.12.11l52,44.8-49.91,22.87c-.62.29-1.07.86-1.19,1.53-.12.67.1,1.37.58,1.85,16.59,16.57,33.36,27.1,52.79,33.14.2.06.41.09.62.09.29,0,.59-.06.86-.18l65.97-29.62c.63-.28,1.09-.87,1.2-1.55s-.11-1.38-.61-1.87l-29.44-28.23v-28.21c0-.57-.24-1.12-.65-1.52l-47.73-45.24-21.61-20.48-28.31-26.81-92.99-88.12c-.39-.37-.91-.57-1.44-.57h0Z"/>
  </g>
  <path class="cls-1" d="m462.81,225.65l94.79,91.01-89.69,93.4c13.69-18.74,21.48-40.21,21.48-63.03,0-5.46-.49-10.86-1.37-16.16.87-5.29,1.37-10.68,1.37-16.15,0-29.83-13.28-57.36-35.71-79.53l9.14-9.53m0-2.09s-.03,0-.04,0c-.55.01-1.08.24-1.47.64l-9.14,9.53c-.79.82-.77,2.13.04,2.94,22.96,22.69,35.09,49.67,35.09,78.04,0,5.1-.45,10.42-1.34,15.81-.04.23-.04.45,0,.68.89,5.4,1.34,10.72,1.34,15.82,0,21.56-7.29,42.93-21.07,61.8-.65.89-.5,2.13.34,2.84.39.33.87.49,1.34.49.55,0,1.1-.22,1.51-.64l89.69-93.4c.38-.4.59-.94.58-1.49-.01-.55-.24-1.08-.64-1.47l-94.79-91.01c-.39-.37-.91-.58-1.45-.58h0Z"/>
  <path class="cls-1" d="m409.49,281.17c15.02,12.52,25.52,27.87,29.64,44.77-3.34,13.67-10.83,26.34-21.53,37.3l-45.21-43.43,37.1-38.64m0-2.09c-.55,0-1.1.22-1.51.64l-37.1,38.64c-.8.83-.77,2.16.06,2.96l45.21,43.43c.41.39.93.58,1.45.58s1.09-.21,1.5-.63c11.26-11.54,18.68-24.41,22.06-38.27.08-.33.08-.67,0-.99-4.12-16.91-14.61-32.78-30.33-45.88-.39-.32-.87-.48-1.34-.48h0Z"/>
  <g>
    <path class="cls-2" d="m439.13,326.99c-.48,0-.9-.33-1.02-.8-3.95-16.2-14.15-31.52-29.5-44.29-.22-.19-.36-.46-.38-.75-.02-.29.09-.57.29-.78l15.67-16.22c.2-.2.47-.32.75-.32.02,0,.04,0,.06,0,.3.02.58.17.77.41,10.72,13.96,16.38,29.71,16.38,45.55,0,5.39-.68,10.91-2.01,16.4-.11.47-.53.8-1.02.8Z"/>
    <path class="cls-1" d="m424.95,264.88c10.23,13.32,16.17,28.66,16.17,44.91,0,5.51-.71,10.9-1.99,16.15-4.12-16.9-14.8-32.33-29.85-44.85l15.66-16.22m0-2.09c-.57,0-1.11.23-1.5.64l-15.66,16.22c-.4.42-.62.99-.58,1.57.03.58.3,1.12.75,1.49,15.18,12.63,25.26,27.75,29.15,43.73.23.94,1.07,1.6,2.03,1.6s1.8-.66,2.03-1.6c1.36-5.57,2.05-11.17,2.05-16.65,0-16.07-5.74-32.04-16.6-46.18-.37-.48-.93-.78-1.54-.81-.04,0-.08,0-.12,0h0Z"/>
  </g>
  <g>
    <path class="cls-2" d="m468.58,510.4c-.27,0-.53-.1-.72-.29l-56.04-53.82c-.24-.23-.36-.57-.31-.9.05-.33.25-.62.55-.78,6.69-3.48,13.03-7.25,18.82-11.2.18-.12.38-.18.59-.18.26,0,.52.1.72.29l36.37,34.94,171.92-178.99c.2-.21.47-.32.75-.32.13,0,.26.02.39.07.39.16.66.54.66.96l.19,29.15c0,.27-.1.53-.29.73l-172.83,180.02c-.19.2-.46.32-.73.32h-.02Z"/>
    <path class="cls-1" d="m641.22,300.19l.19,29.15-172.83,180.01-56.05-53.82c6.64-3.45,12.99-7.21,18.93-11.26l37.12,35.66,172.64-179.75m0-2.09c-.56,0-1.11.22-1.51.64l-171.19,178.24-35.61-34.21c-.4-.39-.92-.58-1.45-.58-.41,0-.82.12-1.18.36-5.76,3.93-12.05,7.68-18.71,11.14-.6.31-1.01.89-1.11,1.56-.1.67.14,1.34.62,1.81l56.05,53.82c.39.37.91.58,1.45.58.01,0,.03,0,.04,0,.55-.01,1.08-.24,1.47-.64l172.83-180.01c.38-.39.59-.92.58-1.46l-.19-29.15c0-.85-.53-1.61-1.32-1.93-.25-.1-.51-.15-.77-.15h0Z"/>
  </g>
  <g>
    <path class="cls-2" d="m352.92,399.35c-.27,0-.53-.1-.72-.29l-64.33-61.79c-.21-.2-.32-.47-.32-.76l.08-29.17c0-.42.25-.8.64-.96.13-.06.27-.08.41-.08.26,0,.52.1.72.29l23.39,22.33,63.67,61.14c.25.25.37.6.3.95-.07.35-.3.64-.63.77-7.2,2.99-14.92,5.53-22.96,7.54-.08.02-.17.03-.25.03Z"/>
    <path class="cls-1" d="m288.67,307.34l23.39,22.33,30.57,29.36,33.1,31.78c-7.19,2.99-14.83,5.49-22.82,7.49l-31.44-30.2-32.89-31.59.08-29.17m0-2.09c-.28,0-.56.05-.82.17-.77.33-1.27,1.08-1.27,1.92l-.08,29.17c0,.57.23,1.12.64,1.51l32.89,31.59,31.44,30.2c.39.38.92.58,1.45.58.17,0,.34-.02.51-.06,8.09-2.02,15.87-4.57,23.11-7.59.65-.27,1.12-.85,1.25-1.55s-.1-1.41-.61-1.89l-33.1-31.78-30.57-29.36-23.4-22.34c-.4-.38-.92-.58-1.44-.58h0Z"/>
  </g>
  <g>
    <path class="cls-2" d="m372.19,321.05c-.26,0-.52-.1-.72-.29l-14.69-14.1c-.2-.19-.32-.46-.32-.73s.1-.55.29-.75l35.06-36.51,18.51-19.26,27.13-28.28,24.61-25.62c.21-.21.48-.32.75-.32s.52.1.72.29l109.74,105.24c.2.19.32.46.32.73,0,.28-.1.55-.29.75l-14.7,15.26c-.21.21-.48.32-.75.32s-.52-.1-.72-.29l-94.28-90.38-8.42,8.77-81.48,84.83c-.21.21-.48.32-.75.32Z"/>
    <path class="cls-1" d="m462.81,196.24l109.74,105.24-14.7,15.26-95.04-91.1-9.14,9.53-28.58,29.75-15.6,16.24-37.3,38.83-14.69-14.1,35.06-36.51,18.51-19.26,27.14-28.28,24.61-25.62m0-2.09c-.55,0-1.1.22-1.51.64l-24.61,25.62-27.14,28.28-18.51,19.25-35.06,36.51c-.38.4-.59.94-.58,1.49.01.55.24,1.08.64,1.47l14.69,14.1c.41.39.93.58,1.45.58.55,0,1.1-.22,1.51-.64l37.3-38.83,15.6-16.24,28.58-29.75,7.7-8.02,93.53,89.66c.41.39.93.58,1.45.58.55,0,1.1-.21,1.51-.64l14.7-15.26c.39-.4.6-.94.58-1.49-.01-.56-.24-1.08-.64-1.47l-109.74-105.24c-.41-.39-.93-.58-1.45-.58h0Z"/>
  </g>
  <g>
    <path class="cls-1" d="m309.6,448.02c-40.02,0-77.94-9.53-109.65-27.57-17.57-9.98-32.37-22.15-43.99-36.17-4.43-5.33-8.36-10.93-11.7-16.65-6.87-11.74-11.4-24.09-13.47-36.72-.92-5.58-1.38-11.03-1.38-16.22,0-20.85,6.35-40.83,18.87-59.39.07-.1.17-.16.29-.17.01,0,.02,0,.04,0,.1,0,.21.04.28.12l32.82,33.22c.1.1.14.26.09.39-2.21,6.93-3.33,13.97-3.33,20.92,0,5.34.66,10.74,1.97,16.06,1.86,7.59,5.06,15.02,9.51,22.09,3.56,5.65,7.89,11.03,12.87,15.99,13.8,13.78,32.59,24.65,54.33,31.43,16.57,5.16,34.22,7.78,52.45,7.78,14.75,0,29.3-1.75,43.22-5.21,7.97-1.99,15.63-4.5,22.76-7.47,16.43-6.83,30.86-16.34,41.74-27.49,10.94-11.22,18.15-23.71,21.43-37.12,1.31-5.38,1.97-10.78,1.97-16.06,0-15.6-5.51-31.03-15.95-44.62-.12-.15-.11-.37.03-.51l28.58-29.75c.07-.08.17-.12.28-.12h0c.1,0,.2.04.28.11,23.44,23.16,35.83,50.76,35.83,79.81,0,5.24-.46,10.69-1.37,16.22-3.9,23.77-16.47,46.39-36.37,65.39-11.55,11.04-25.34,20.65-40.99,28.58-6.81,3.43-13.91,6.52-21.12,9.17-25.09,9.27-52.12,13.96-80.33,13.96Z"/>
    <path class="cls-1" d="m453.67,235.17c22.43,22.17,35.71,49.7,35.71,79.53,0,5.47-.49,10.86-1.37,16.15-4,24.37-16.91,46.7-36.25,65.17-11.52,11.01-25.33,20.63-40.89,28.51-6.72,3.39-13.75,6.46-21.08,9.15-24.14,8.92-51.36,13.94-80.19,13.94-41.21,0-79.15-10.28-109.45-27.51-17.45-9.92-32.34-22.16-43.88-36.08-4.4-5.3-8.3-10.84-11.66-16.6-6.71-11.45-11.32-23.72-13.42-36.58-.87-5.29-1.38-10.68-1.38-16.15,0-21.27,6.78-41.35,18.8-59.18l32.82,33.22c-2.15,6.76-3.34,13.79-3.34,21.03,0,5.51.69,10.9,1.98,16.15,1.9,7.78,5.16,15.22,9.56,22.2,3.58,5.68,7.91,11.06,12.92,16.06,13.74,13.72,32.55,24.69,54.49,31.53,16.1,5.01,33.87,7.8,52.57,7.8,15.18,0,29.76-1.85,43.32-5.22,7.99-2,15.63-4.5,22.82-7.49,16.63-6.92,30.93-16.36,41.87-27.58,10.7-10.96,18.19-23.63,21.53-37.3,1.28-5.26,1.99-10.65,1.99-16.15,0-16.25-5.8-31.54-16.03-44.86l28.58-29.75m0-.78s0,0-.01,0c-.21,0-.41.09-.56.24l-28.58,29.75c-.27.28-.29.71-.06,1.02,10.38,13.52,15.87,28.87,15.87,44.38,0,5.25-.66,10.62-1.96,15.97-3.26,13.35-10.43,25.77-21.33,36.94-10.84,11.12-25.23,20.59-41.61,27.4-7.11,2.96-14.75,5.47-22.71,7.45-13.9,3.45-28.41,5.19-43.13,5.19-18.19,0-35.8-2.61-52.34-7.76-21.68-6.76-40.41-17.59-54.17-31.33-4.96-4.95-9.27-10.3-12.81-15.93-4.43-7.03-7.62-14.42-9.46-21.97-1.3-5.29-1.96-10.66-1.96-15.97,0-6.91,1.11-13.91,3.31-20.8.09-.28.02-.58-.19-.79l-32.82-33.22c-.15-.15-.35-.23-.56-.23-.02,0-.05,0-.07,0-.23.02-.45.15-.58.34-12.57,18.63-18.94,38.69-18.94,59.61,0,5.21.47,10.68,1.39,16.28,2.07,12.67,6.62,25.07,13.52,36.85,3.35,5.74,7.3,11.35,11.74,16.7,11.65,14.05,26.49,26.25,44.1,36.26,31.77,18.07,69.75,27.62,109.84,27.62,28.26,0,55.33-4.71,80.46-13.99,7.22-2.66,14.34-5.75,21.16-9.19,15.68-7.94,29.5-17.58,41.08-28.64,19.96-19.06,32.57-41.75,36.49-65.61.91-5.54,1.38-11.02,1.38-16.28,0-29.16-12.43-56.85-35.95-80.09-.15-.15-.35-.23-.55-.23h0Z"/>
  </g>
  <g>
    <path class="cls-4" d="m468.42,481.22c-.27,0-.53-.1-.73-.29l-36.86-35.55c-.23-.22-.34-.53-.32-.84.03-.31.19-.6.45-.78,14.65-10.03,26.74-21.5,35.93-34.11.03-.04.06-.07.09-.11l89.69-93.38,13.97-14.56-107.97-103.65-23.89,24.86-45.63,47.54-34.15,35.56,13.93,13.36,45.23,43.43c.2.19.32.46.32.74,0,.28-.1.55-.3.75-10.84,11.1-25.48,20.68-42.34,27.71-.13.05-.27.08-.4.08-.26,0-.53-.1-.72-.29l-32.99-31.68-53.81-51.91c-.41-.4-.43-1.06-.03-1.48l53.36-55.85,119.22-124.16c.21-.21.48-.32.75-.32s.52.1.72.29l180,172.83c.2.19.32.46.32.73s-.1.55-.29.75l-172.83,180c-.19.2-.46.32-.73.32h-.02Z"/>
    <path class="cls-1" d="m461.25,127.34l180,172.83-172.83,180-36.86-35.55c14.49-9.92,26.74-21.41,36.19-34.36l89.69-93.38,14.69-15.32-109.47-105.1-24.61,25.61-27.15,28.28-18.49,19.26-34.87,36.32,14.69,14.09,45.23,43.43c-10.96,11.22-25.38,20.55-41.99,27.48l-32.99-31.68-53.81-51.91,53.36-55.85,24.83-25.85,26.98-28.09,67.42-70.21m0-2.09c-.55,0-1.1.22-1.51.64l-67.42,70.21-26.98,28.09-24.83,25.85-53.37,55.85c-.8.83-.77,2.15.06,2.95l53.81,51.91,32.99,31.68c.4.38.92.58,1.45.58.27,0,.54-.05.8-.16,16.99-7.09,31.75-16.75,42.68-27.95.39-.4.6-.94.6-1.5,0-.56-.24-1.09-.64-1.48l-45.23-43.43-13.18-12.64,33.42-34.81,18.49-19.26,27.15-28.28,23.16-24.11,106.46,102.21-13.24,13.81-89.69,93.38c-.07.07-.13.14-.18.22-9.13,12.51-21.13,23.91-35.68,33.86-.52.36-.85.93-.9,1.55s.18,1.24.63,1.68l36.86,35.55c.39.38.91.59,1.45.59.01,0,.03,0,.04,0,.56-.01,1.08-.24,1.47-.64l172.83-180c.38-.4.59-.94.58-1.49-.01-.55-.24-1.08-.64-1.47l-180-172.83c-.41-.39-.93-.58-1.45-.58h0Z"/>
  </g>
  <g>
    <path class="cls-2" d="m201.02,362.88c-.11,0-.22-.05-.29-.13l-1.29-1.44c-3.01-3.34-6.12-6.79-8.45-10.49-.1-.16-.96-1.58-.96-1.58-.06-.1-.07-.22-.03-.33.04-.11.12-.2.23-.24l33.86-12.47-96.5-95.55c-.09-.09-.13-.22-.11-.35l3.37-17.8c.03-.14.13-.26.26-.3.04-.01.08-.02.12-.02.1,0,.19.04.27.1l123.57,115.07c.1.09.14.22.12.35-.02.13-.1.24-.22.29l-53.77,24.85c-.05.02-.11.04-.16.04Z"/>
    <path class="cls-1" d="m131.23,222.57l123.57,115.07-53.77,24.85c-3.43-3.84-7.06-7.68-9.7-11.87-.1-.16-.96-1.58-.96-1.58l34.44-12.69-96.94-95.98,3.37-17.8m0-.78c-.08,0-.16.01-.24.04-.27.09-.47.32-.53.6l-3.37,17.8c-.05.26.03.52.22.7l96.07,95.11-33.28,12.26c-.22.08-.39.26-.47.48-.08.22-.05.47.07.67,0,0,.87,1.43.97,1.59,2.35,3.73,5.47,7.19,8.48,10.54.43.48.87.96,1.3,1.44.15.17.37.26.58.26.11,0,.22-.02.33-.07l53.77-24.85c.24-.11.4-.33.45-.59.04-.26-.05-.52-.24-.7l-123.57-115.07c-.15-.14-.34-.21-.53-.21h0Z"/>
  </g>
  <g>
    <path class="cls-2" d="m309.6,480.98c-53.56,0-104.08-17.46-138.59-47.89-14.02-12.39-24.79-26.39-32.02-41.62-2.91-6.13-5.23-12.48-6.9-18.85-2.21-8.48-3.34-17.09-3.34-25.61,0-1.26-.04-3.67-.09-6.69-.16-10.12-.43-27.05.26-31.22.08-.51.52-.88,1.03-.88.01,0,.03,0,.04,0,.53.02.96.43,1,.95,0,0,.04.19.04.2.02.08.02.17.02.25-.02.46-.05.93-.08,1.4-.07,1.2-.14,2.44-.14,3.67,0,5.11.46,10.48,1.36,15.98,2.03,12.45,6.5,24.64,13.29,36.22,3.3,5.65,7.19,11.19,11.57,16.46,11.51,13.88,26.18,25.94,43.6,35.84,31.49,17.91,69.16,27.38,108.94,27.38,28.04,0,54.9-4.67,79.83-13.88,7.16-2.63,14.21-5.7,20.97-9.1,15.52-7.86,29.19-17.39,40.64-28.33,19.67-18.79,32.1-41.12,35.94-64.58.9-5.45,1.35-10.82,1.35-15.98,0-.69-.03-1.86-.05-2.84q-.05-2.15.27-2.48c.2-.2.47-.31.75-.31.3,0,.99.12,1.07,1.21.36,7,.2,21.95.1,30.88-.03,2.66-.05,4.75-.05,5.86,0,22.23-7.5,44.24-21.68,63.65-9.48,12.99-21.74,24.68-36.46,34.75-5.92,4.05-12.31,7.86-18.99,11.33-30.53,15.85-66.39,24.23-103.71,24.23Z"/>
    <path class="cls-1" d="m129.96,309.28c0,.08.04.22.06.31-.08,1.7-.22,3.39-.22,5.12,0,5.47.51,10.86,1.38,16.15,2.1,12.86,6.71,25.13,13.42,36.58,3.36,5.76,7.27,11.3,11.66,16.6,11.55,13.93,26.43,26.16,43.88,36.08,30.3,17.23,68.24,27.51,109.45,27.51,28.83,0,56.05-5.02,80.19-13.94,7.33-2.7,14.35-5.76,21.08-9.15,15.56-7.88,29.37-17.5,40.89-28.51,19.34-18.47,32.26-40.8,36.25-65.17.87-5.29,1.37-10.68,1.37-16.15,0-1.37-.1-4.6-.07-4.6,0,0,.01.07.02.23.46,9.05.05,31.87.05,36.67,0,22.82-7.78,44.29-21.48,63.03-9.45,12.95-21.71,24.59-36.2,34.5-5.93,4.05-12.24,7.82-18.88,11.27-29.22,15.18-64.8,24.12-103.23,24.12-55.38,0-104.9-18.53-137.9-47.63-13.72-12.12-24.55-26.07-31.76-41.28-2.86-6.03-5.16-12.25-6.83-18.66-2.14-8.21-3.3-16.67-3.3-25.35,0-5.46-.72-32.44.16-37.74m0-2.09c-1.02,0-1.9.74-2.06,1.75-.65,3.93-.49,17.67-.27,31.4.05,3.03.09,5.43.09,6.67,0,8.6,1.13,17.31,3.37,25.87,1.68,6.43,4.02,12.84,6.96,19.03,7.29,15.35,18.14,29.47,32.27,41.95,34.7,30.6,85.47,48.15,139.28,48.15,37.48,0,73.51-8.42,104.19-24.35,6.72-3.5,13.15-7.33,19.1-11.4,14.81-10.13,27.16-21.91,36.71-35,14.31-19.59,21.88-41.81,21.88-64.26,0-1.11.02-3.19.05-5.85.1-8.95.26-23.92-.1-30.93-.14-2.16-1.91-2.22-2.11-2.22-.56,0-1.1.23-1.5.63-.63.64-.62.84-.57,3.23.02.98.05,2.14.05,2.83,0,5.1-.45,10.42-1.34,15.81-3.81,23.24-16.13,45.37-35.63,64-11.38,10.87-24.97,20.35-40.4,28.16-6.72,3.39-13.74,6.44-20.85,9.06-24.82,9.17-51.55,13.81-79.47,13.81-39.59,0-77.08-9.42-108.42-27.24-17.31-9.84-31.88-21.81-43.31-35.6-4.34-5.23-8.2-10.72-11.47-16.32-6.72-11.48-11.15-23.54-13.16-35.86-.9-5.45-1.35-10.77-1.35-15.82,0-1.19.07-2.37.14-3.61.03-.47.05-.94.08-1.4,0-.17,0-.33-.04-.5l-.03-.14v-.05c-.14-1.01-.99-1.78-2.01-1.82-.03,0-.05,0-.08,0h0Z"/>
  </g>
</svg>