<?xml version="1.0" encoding="UTF-8"?>
<svg id="layer" xmlns="http://www.w3.org/2000/svg" viewBox="0 0 643.5 493.6">
  <defs>
    <style>
      .cls-1 {
        fill: #fff;
      }

      .cls-2 {
        fill: #e30b17;
        stroke: #fff;
        stroke-miterlimit: 10;
        stroke-width: 4.48px;
      }
    </style>
  </defs>
  <g id="Ebene_1" data-name="Ebene 1">
    <path class="cls-2" d="m77.19,246.8C77.19,111.74,186.7,2.24,321.75,2.24s244.56,109.5,244.56,244.56-109.5,244.56-244.56,244.56h0c-135.06-.73-244.56-110.23-244.56-244.56"/>
    <path class="cls-1" d="m304.23,436.61l-6.57-.73-4.38,25.55c0,4.38-2.19,7.3-6.57,6.57s-5.11-2.92-4.38-7.3v-2.19l-6.57-.73v2.19c-1.46,5.84,1.46,11.68,7.3,13.14.73,0,1.46.73,2.19.73,10.95,1.46,13.14-4.38,14.6-10.95l4.38-26.28m4.38,24.09c0,8.76,7.3,15.33,15.33,15.33,8.76,0,15.33-7.3,15.33-15.33v-24.09h-6.57v21.9c0,5.11,0,10.95-8.76,10.95s-8.76-5.84-8.76-10.95v-21.9h-6.57v24.09m70.08-14.6l-15.33,4.38,1.46,5.11,9.49-2.92c2.19,5.11-.73,10.22-5.11,12.41-.73,0-1.46.73-2.19.73-8.03,2.19-13.14-3.65-15.33-10.95-2.19-7.3,0-14.6,7.3-16.79,4.38-1.46,9.49,0,11.68,4.38l6.57-1.46c-3.65-7.3-11.68-10.22-18.98-8.03-10.22,3.65-16.06,14.6-12.41,25.55,3.65,9.49,13.14,15.33,23.36,13.14,4.38-.73,8.03-4.38,9.49-8.03l2.19,4.38,4.38-1.46-5.11-18.98m11.68,15.33l25.55-10.22-2.19-5.11-19.71,8.03-4.38-10.22,17.52-7.3-2.19-5.11-17.52,7.3-3.65-9.49,18.98-7.3-2.19-5.11-25.55,10.22,15.33,34.31"/>
    <path class="cls-1" d="m425.42,448.29l5.11-2.92-14.6-24.09h0l29.2,15.33,5.84-3.65-19.71-32.85-5.11,2.92,14.6,24.09h0l-29.2-15.33-5.84,3.65,19.71,32.85m17.52-49.64l5.11-4.38c7.3-7.3,13.14-4.38,18.25,1.46,5.11,5.84,7.3,11.68,0,18.25l-4.38,4.38-18.98-19.71Zm17.52,27.74l11.68-10.95c6.57-8.03,5.84-20.44-2.19-27.01-6.57-5.84-16.06-5.84-23.36-.73l-11.68,10.95,25.55,27.74"/>
    <path class="cls-1" d="m502.07,383.32l3.65-5.11-13.87-9.49,9.49-13.87-4.38-2.92-9.49,13.87-8.03-5.11,10.95-16.06-4.38-2.92-14.6,21.9,30.66,19.71"/>
    <path class="cls-1" d="m491.85,323.45c-5.11,9.49-2.19,21.9,7.3,27.01,9.49,5.11,21.9,2.19,27.01-7.3s2.19-21.9-7.3-27.01c-.73,0-1.46-.73-1.46-.73-8.76-5.11-19.71-1.46-24.82,7.3l-.73.73Zm5.11,2.19c2.92-5.84,10.95-8.76,16.79-5.11,0,0,.73,0,.73.73,6.57,2.92,11.68,8.76,8.76,15.33-2.92,5.84-10.22,8.76-16.79,5.11-.73,0-.73-.73-1.46-.73-6.57-2.92-11.68-8.76-8.76-16.06m10.95-24.09l2.19-10.22c.73-3.65,2.19-6.57,7.3-5.11,2.92,0,5.11,2.92,5.11,5.84q0,.73-.73,1.46l-2.19,10.22-11.68-2.19Zm29.93,13.87l1.46-6.57-15.33-3.65,2.19-9.49c1.46-5.84,4.38-6.57,11.68-5.11,2.19.73,3.65.73,5.84,0l1.46-6.57c-3.65.73-6.57.73-10.22,0-5.84-1.46-8.03,1.46-8.76,3.65h0c-.73-4.38-3.65-7.3-8.03-8.03-6.57-1.46-10.95,2.19-13.14,9.49l-4.38,17.52,37.23,8.76"/>
    <path class="cls-1" d="m532.73,277.46c9.49,0,13.87-6.57,14.6-15.33.73-9.49-2.92-15.33-10.95-15.33-4.38,0-8.76,2.92-10.22,6.57,0,2.19-2.92,10.22-3.65,10.95s-2.19,4.38-5.11,4.38-4.38-4.38-4.38-7.3,2.19-8.03,7.3-8.03v-6.57c-8.03,0-12.41,5.84-13.14,13.87-.73,8.03,2.92,13.87,10.22,14.6,5.11,0,8.76-2.92,10.22-8.03,1.46-5.11,2.92-8.76,3.65-10.95.73-2.19,2.92-2.92,5.11-2.92,2.92,0,5.84,2.19,5.11,8.03-.73,5.84-2.92,9.49-8.76,8.76v7.3m-15.33-67.89c-7.3,2.19-12.41,9.49-10.95,17.52,1.46,10.95,11.68,18.25,22.63,16.79,10.22-1.46,17.52-10.95,16.79-21.17-.73-8.76-8.76-14.6-16.79-13.87h0l.73,6.57c5.11-.73,10.22,2.92,10.95,8.03h0c.73,8.03-5.84,12.41-13.14,13.14-7.3.73-14.6-1.46-15.33-9.49-.73-4.38,2.19-8.76,6.57-10.22l-1.46-7.3m24.09-11.68l-2.19-6.57-16.06,4.38-4.38-16.79,16.06-4.38-2.19-6.57-36.5,10.22,2.19,6.57,14.6-4.38,4.38,16.06-14.6,4.38,2.19,6.57,36.5-9.49m-40.15-23.36l-4.38-10.95,29.93-11.68-2.19-5.84-29.93,11.68-4.38-10.95-5.11,2.19,10.95,28.47,5.11-2.92M186.7,51.88l142.36,114.61,127.76-114.61-70.81,162.07,66.43,56.21-73.73,5.11-.73,75.92-45.99-48.18-150.39,134.33,78.11-154.04-72.27,5.11,83.95-73L186.7,51.88"/>
  </g>
</svg>