<?xml version="1.0" encoding="UTF-8"?>
<svg id="layer" xmlns="http://www.w3.org/2000/svg" xmlns:xlink="http://www.w3.org/1999/xlink" viewBox="0 0 474.2 484.51">
  <defs>
    <style>
      .cls-1 {
        fill: #fff;
      }

      .cls-2 {
        clip-path: url(#clippath);
      }

      .cls-3 {
        fill: none;
      }

      .cls-4 {
        fill: url(#linear-gradient);
      }
    </style>
    <clipPath id="clippath">
      <rect class="cls-3" x="10.23" width="344.49" height="344.49"/>
    </clipPath>
    <linearGradient id="linear-gradient" x1="1.41" y1="162.94" x2="125.55" y2="162.94" gradientTransform="translate(0 516.19) scale(1 -1)" gradientUnits="userSpaceOnUse">
      <stop offset="0" stop-color="#05e575"/>
      <stop offset="1" stop-color="#000"/>
    </linearGradient>
    <image id="image" width="500" height="500" xlink:href="../../../../../../../../../Downloads/robotic downloads/mebrobo_1_-removebg-preview.png"/>
  </defs>
  <g class="cls-2">
    <g>
      <use transform="translate(10.23) scale(.69)" xlink:href="#image"/>
      <use transform="translate(10.23) scale(.69)" xlink:href="#image"/>
    </g>
  </g>
  <image width="364" height="686" transform="translate(253.22 68.05) scale(.61)" xlink:href="../../../../../../../../../Downloads/robotic downloads/Daniel_D_sentrieb_1_-removebg-preview.png"/>
  <path class="cls-1" d="m165.02,371.01v16.21c0,2.12-.8,2.88-2.92,2.88h-5.42c-1.74,0-2.58-.85-2.67-2.54v-65.02c0-2.96.47-3.56,3.43-3.94,7.07-.89,14.14-1.82,21.29-1.69,6.94.13,13.67,1.44,19.73,5.08,7.92,4.78,12.02,11.9,12.23,21.17.17,6.27-1.06,12.19-4.95,17.23-1.44,1.86-3.34,3.43-5.12,5-.55.51-.63.8-.3,1.44,3.39,6.56,6.73,13.12,10.12,19.73.97,1.95.55,3.01-1.57,3.3-2.12.3-4.28.38-6.39.42-1.35.04-2.2-.85-2.79-2.03-2.37-4.7-4.74-9.44-7.15-14.14-.55-1.1-1.14-2.16-1.65-3.26-.3-.59-.63-.76-1.31-.63-6.94,1.57-13.97,1.82-21.04,1.1-1.14-.17-2.24-.21-3.51-.3Zm.04-10.67c.47.08.89.17,1.31.17,2.24.21,4.49.47,6.73.59,4.32.3,8.64.51,12.91-.63,8.04-2.16,12.57-6.48,13.04-14.65.3-5.46-1.23-10.16-5.71-13.59-3.05-2.33-6.52-3.56-10.24-4.19-3.94-.63-7.87-.38-11.85-.08-2.03.17-4.11.38-6.18.59v31.79Z"/>
  <path class="cls-1" d="m283.89,384.26c-1.86,1.4-3.64,2.92-5.63,4.06-3.43,1.99-7.28,2.41-11.13,2.37-4.74-.04-9.23-1.06-13.29-3.6-5.59-3.47-9.06-8.55-10.33-14.99-1.44-7.2-.85-14.22,3.01-20.66,3.34-5.63,8.34-8.97,14.73-10.24,5.76-1.14,11.51-.97,16.93,1.52,2.03.93,3.81,2.37,5.76,3.6v-24.38c0-2.46.85-3.26,3.34-3.34,1.52-.04,3.01-.17,4.53-.25,1.65-.04,2.46.68,2.58,2.33.04.34,0,.68,0,1.02v64.6c0,.68-.08,1.31-.25,1.95-.25.97-.93,1.52-1.9,1.61-1.9.17-3.81.34-5.76.42-1.82.08-2.54-.63-2.58-2.5v-3.51c-.04-.08-.04-.04,0,0Zm-.13-18.29c-.08,0-.21-.04-.3-.04,0-.76.04-1.57,0-2.33-.21-3.09-.97-5.97-2.96-8.42-4.95-5.97-15.75-6.69-21.89-1.35-4.83,4.19-5.63,9.65-4.7,15.58.76,4.83,3.43,8.3,7.92,10.2,4.15,1.78,8.47,1.9,12.78.51,3.89-1.27,6.82-3.77,8.09-7.75.59-2.03.72-4.28,1.06-6.39Z"/>
  <path class="cls-1" d="m315.81,369.06c.47,5.21,3.01,8.76,7.58,10.63,6.69,2.75,13.25,2.33,19.6-1.23.38-.21.76-.47,1.14-.68,1.52-.76,2.5-.55,3.56.8.63.8,1.31,1.61,1.99,2.37,1.57,1.65,1.48,2.88-.42,4.15-3.47,2.37-7.2,4.02-11.35,4.83-6.77,1.31-13.42,1.06-19.68-2.07-7.32-3.64-11.47-9.69-12.78-17.69-.97-6.01-.34-11.81,2.58-17.19,3.47-6.43,8.85-10.46,16-11.85,7.32-1.44,14.31-.55,20.49,3.98,4.7,3.43,7.49,8.13,8.55,13.8.47,2.37.47,4.83.51,7.28.04,1.99-.97,2.84-3.01,2.84h-33.48c-.34.04-.72.04-1.27.04Zm27.64-7.75c.04-.13.08-.21.08-.25v-.34c-.51-4.44-2.96-7.45-6.9-9.31-2.71-1.27-5.63-1.44-8.55-1.23-3.85.25-7.24,1.65-9.82,4.66-1.57,1.82-2.54,3.94-2.5,6.48h27.69Z"/>
  <path class="cls-1" d="m417.57,340.57c5.88.08,11.77,1.48,17.31,4.23,1.99,1.02,2.33,2.07,1.35,4.02-.55,1.06-1.06,2.12-1.65,3.13-.97,1.74-1.95,2.03-3.77,1.14-4.15-1.99-8.42-3.43-13.04-3.47-1.9,0-3.85.21-5.67.68-2.12.51-3.22,2.03-3.34,4.02-.13,2.07.97,3.47,2.75,4.11,2.58.93,5.29,1.52,7.96,2.29,3.73,1.06,7.49,1.95,11.09,3.3,2.96,1.1,5.5,3.13,6.94,6.1,2.41,5.04,1.48,12.95-5.25,17.19-2.79,1.78-5.88,2.79-9.14,3.09-7.49.72-14.73-.17-21.72-3.09-1.02-.42-2.03-.93-3.01-1.44-1.35-.76-1.74-1.74-1.14-3.17.63-1.52,1.31-3.05,2.07-4.53.68-1.35,1.78-1.61,3.39-.85,1.52.72,3.05,1.52,4.61,2.12,4.74,1.78,9.65,2.41,14.69,1.69.97-.13,1.95-.51,2.84-.93,1.86-.89,2.62-2.5,2.62-4.53-.04-1.99-1.06-3.34-2.79-4.02-2.16-.85-4.4-1.52-6.65-2.07-4.23-1.02-8.55-1.74-12.53-3.6-2.58-1.19-5.04-2.5-6.48-5.12-2.58-4.7-1.78-13.46,4.91-17.27,4.15-2.24,8.64-2.96,13.63-3.01Z"/>
  <path class="cls-1" d="m374.05,348.02c3.85-5,8.93-7.07,14.86-7.45.47-.04.97.04,1.44.13,1.06.21,1.69.93,1.52,1.95-.38,2.29-.85,4.57-1.4,6.82-.25,1.06-1.19,1.19-2.12,1.19-2.62.04-5.16.42-7.54,1.57-3.98,1.9-6.18,5.12-6.27,9.44-.17,8.21-.08,16.42-.08,24.64,0,.55,0,1.1-.08,1.65-.17,1.27-.93,1.99-2.2,2.03-2.03.04-4.06.04-6.1,0-1.4-.04-2.24-.89-2.37-2.29-.04-.38,0-.72,0-1.1v-41.95c0-2.62.55-3.26,3.13-3.56,1.61-.17,3.22-.3,4.87-.34,1.61-.04,2.37.76,2.41,2.37-.04,1.61-.08,3.17-.08,4.91Z"/>
  <path class="cls-1" d="m222,365.54v-21.42c0-2.37.76-3.09,3.13-3.13h4.78c1.74,0,2.5.72,2.67,2.46.04.42.04.8.04,1.23v41.74c0,.51,0,1.06-.08,1.57-.17,1.35-.93,2.07-2.29,2.12-1.95.04-3.94.04-5.88,0-1.52-.04-2.33-.97-2.33-2.67v-9.78c-.04-4.06-.04-8.09-.04-12.11Z"/>
  <path class="cls-1" d="m234.74,326.34c0,3.94-3.26,7.15-7.24,7.15s-7.15-3.05-7.2-7.03c0-4.02,3.13-7.11,7.2-7.15,3.98,0,7.24,3.13,7.24,7.03Z"/>
  <g>
    <path class="cls-4" d="m75.87,427.65c-4.72,0-9.52-.46-14.28-1.38-40.24-7.85-66.62-46.99-58.81-87.24,6.8-34.87,37.51-60.18,73.03-60.18,4.74,0,9.52.46,14.22,1.37,1.69.37,2.99,1.51,3.52,3.04l31.74,87.91c.72,2.04-.02,4.31-1.79,5.53l-18.03,11.5c-.77.48-1.65.73-2.54.73h0c-1.32,0-2.58-.56-3.45-1.53-1.78-1.91-17.36-18.31-29.01-21.2-7.22-1.79-13.28-7.27-17.06-15.42-1.08-2.42-1.93-4.92-2.48-7.29-2.86-1.4-4.67-4.28-4.67-7.52,0-4.8,3.78-8.56,8.6-8.56s8.64,3.78,8.64,8.43c0,2.54-1.2,4.98-3.19,6.59.57,2.04,1.37,4.05,2.34,5.87,1.76,3.32,4.93,7.54,10.1,8.82,11.72,2.92,25.01,15.18,30.94,21.16l11.6-7.42-29.56-81.85c-3.27-.5-6.59-.76-9.87-.76-31.06,0-57.9,22.14-63.82,52.64-3.33,17.03.2,34.36,9.92,48.78,9.73,14.43,24.46,24.2,41.5,27.5,2.76.53,5.35.88,7.87,1.06l-4.46-18.28c-3.43-1.14-5.67-4.23-5.67-7.94,0-4.8,3.78-8.56,8.6-8.56s8.64,3.78,8.64,8.43c0,2.23-.89,4.35-2.47,5.94l5.86,24.08c.31,1.36,0,2.78-.83,3.92-.99,1.2-2.31,1.84-3.67,1.84h-1.44Z"/>
    <path class="cls-1" d="m75.8,280.25c4.6,0,9.27.44,13.95,1.34,1.14.25,2.07,1.02,2.46,2.12l31.75,87.92c.51,1.44-.04,3.05-1.27,3.89l-17.99,11.47c-.55.34-1.17.51-1.79.51-.9,0-1.78-.36-2.41-1.06-.17-.17-16.93-18.46-29.72-21.63-6.82-1.69-12.53-6.9-16.13-14.65-1.06-2.37-1.99-5.08-2.54-7.7-2.67-1.02-4.49-3.47-4.49-6.52,0-4.02,3.09-7.15,7.2-7.15s7.24,3.13,7.24,7.03c0,2.5-1.35,4.74-3.39,6.01.51,2.07,1.35,4.57,2.71,7.11,1.9,3.6,5.38,8.13,11.01,9.52,12.06,3.01,26.03,16.42,31.07,21.59l13.5-8.64-30.23-83.69c-3.66-.61-7.31-.9-10.91-.9-31.17,0-59.05,22.09-65.2,53.78-7.03,35.98,16.55,70.95,52.53,77.93,3.3.63,6.6,1.06,9.95,1.19l-5.08-20.83v-.08c-3.22-.72-5.46-3.43-5.46-6.82,0-4.02,3.09-7.15,7.2-7.15s7.24,3.13,7.24,7.03c0,2.16-1.02,4.15-2.62,5.46l6.05,24.89c.21.93,0,1.95-.59,2.75-.64.76-1.57,1.27-2.54,1.27h-1.44c-4.66,0-9.4-.47-14.01-1.35-39.5-7.7-65.36-46.1-57.7-85.6,6.79-34.82,37.4-59.04,71.65-59.04m0-2.81c-36.18,0-67.48,25.79-74.41,61.32-7.96,41.02,18.92,80.9,59.92,88.89,4.85.93,9.74,1.41,14.55,1.41h1.44c1.78,0,3.49-.83,4.7-2.28.04-.04.07-.09.1-.13,1.08-1.46,1.47-3.3,1.07-5.04l-5.69-23.39c1.5-1.77,2.33-4,2.33-6.34,0-5.43-4.51-9.84-10.05-9.84s-10.01,4.38-10.01,9.97c0,4.06,2.3,7.48,5.89,9l3.82,15.65c-1.86-.19-3.77-.48-5.77-.87-16.66-3.23-31.08-12.79-40.6-26.91-9.51-14.11-12.96-31.06-9.71-47.73,5.79-29.85,32.05-51.51,62.44-51.51,2.94,0,5.9.21,8.84.62l28.89,80.01-9.7,6.2c-6.36-6.3-19.24-17.85-30.79-20.73-4.67-1.16-7.58-5.05-9.2-8.11-.79-1.49-1.47-3.11-1.99-4.77,1.88-1.85,2.99-4.4,2.99-7.04,0-5.43-4.51-9.84-10.05-9.84s-10.01,4.38-10.01,9.97c0,3.56,1.87,6.74,4.86,8.47.57,2.27,1.39,4.63,2.41,6.9,3.99,8.58,10.38,14.33,18.02,16.23,11.24,2.79,26.56,18.92,28.27,20.75.02.02.04.04.05.06,1.14,1.25,2.76,1.97,4.48,1.97,1.16,0,2.29-.33,3.28-.94l18.01-11.49s.06-.04.08-.06c2.3-1.58,3.25-4.52,2.33-7.14l-31.76-87.94c-.68-1.96-2.36-3.43-4.49-3.91-.02,0-.05-.01-.07-.02-4.78-.93-9.65-1.4-14.48-1.4h0Z"/>
  </g>
</svg>